<?xml version="1.0" encoding="UTF-8" standalone="no"?>
<!-- Generator: Adobe Illustrator 19.0.0, SVG Export Plug-In . SVG Version: 6.00 Build 0)  -->

<svg
   xmlns:dc="http://purl.org/dc/elements/1.1/"
   xmlns:cc="http://creativecommons.org/ns#"
   xmlns:rdf="http://www.w3.org/1999/02/22-rdf-syntax-ns#"
   xmlns:svg="http://www.w3.org/2000/svg"
   xmlns="http://www.w3.org/2000/svg"
   xmlns:sodipodi="http://sodipodi.sourceforge.net/DTD/sodipodi-0.dtd"
   xmlns:inkscape="http://www.inkscape.org/namespaces/inkscape"
   version="1.1"
   id="Layer_1"
   x="0px"
   y="0px"
   viewBox="-31 35 36 32"
   style="enable-background:new -31 35 36 32;"
   xml:space="preserve"
   sodipodi:docname="book.svg"
   inkscape:version="0.92.0 r15299"><metadata
     id="metadata3695"><rdf:RDF><cc:Work
         rdf:about=""><dc:format>image/svg+xml</dc:format><dc:type
           rdf:resource="http://purl.org/dc/dcmitype/StillImage" /></cc:Work></rdf:RDF></metadata><defs
     id="defs3693" /><sodipodi:namedview
     pagecolor="#ffffff"
     bordercolor="#666666"
     borderopacity="1"
     objecttolerance="10"
     gridtolerance="10"
     guidetolerance="10"
     inkscape:pageopacity="0"
     inkscape:pageshadow="2"
     inkscape:window-width="1920"
     inkscape:window-height="1001"
     id="namedview3691"
     showgrid="false"
     inkscape:zoom="25.25"
     inkscape:cx="25.502122"
     inkscape:cy="14.415842"
     inkscape:window-x="-9"
     inkscape:window-y="-9"
     inkscape:window-maximized="1"
     inkscape:current-layer="Layer_1" /><style
     type="text/css"
     id="style3680">
	.st0{fill:#01D6A2;}
</style><path
     class="st0"
     d="M-24,42h-6c-0.5,0-1,0.5-1,1v22c0,0.6,0.5,1,1,1h6c0.5,0,1-0.4,1-1V43C-23,42.5-23.5,42-24,42z M-25,48h-4v-2h4  V48z"
     id="path3682"
     style="fill:#f45e64;fill-opacity:1" /><path
     class="st0"
     d="M-14,42h-6c-0.5,0-1,0.5-1,1v22c0,0.6,0.5,1,1,1h6c0.5,0,1-0.4,1-1V43C-13,42.5-13.5,42-14,42z M-15,48h-4v-2h4  V48z"
     id="path3684"
     style="fill:#f45e64;fill-opacity:1" /><path
     class="st0"
     d="M-7.1,43.5l-5.4,2.7c-0.5,0.2-0.7,0.9-0.4,1.3l9,17.9c0.2,0.5,0.9,0.7,1.3,0.4l5.4-2.7c0.5-0.2,0.7-0.9,0.4-1.3  l-9-17.9C-6,43.5-6.6,43.3-7.1,43.5z"
     id="path3686"
     style="fill:#f45e64;fill-opacity:1" /></svg>