<?xml version="1.0" encoding="UTF-8" standalone="no"?>
<!-- Created with Inkscape (http://www.inkscape.org/) -->

<svg
   xmlns:dc="http://purl.org/dc/elements/1.1/"
   xmlns:cc="http://creativecommons.org/ns#"
   xmlns:rdf="http://www.w3.org/1999/02/22-rdf-syntax-ns#"
   xmlns:svg="http://www.w3.org/2000/svg"
   xmlns="http://www.w3.org/2000/svg"
   xmlns:sodipodi="http://sodipodi.sourceforge.net/DTD/sodipodi-0.dtd"
   xmlns:inkscape="http://www.inkscape.org/namespaces/inkscape"
   width="425.34006mm"
   height="392.36191mm"
   viewBox="0 0 425.34005 392.36191"
   version="1.1"
   id="svg14632"
   inkscape:version="0.92.0 r15299"
   sodipodi:docname="explore.svg">
  <defs
     id="defs14626" />
  <sodipodi:namedview
     id="base"
     pagecolor="#ffffff"
     bordercolor="#666666"
     borderopacity="1.0"
     inkscape:pageopacity="0.0"
     inkscape:pageshadow="2"
     inkscape:zoom="0.35"
     inkscape:cx="929.09453"
     inkscape:cy="706.09041"
     inkscape:document-units="mm"
     inkscape:current-layer="layer1"
     showgrid="false"
     inkscape:window-width="1920"
     inkscape:window-height="1001"
     inkscape:window-x="-9"
     inkscape:window-y="-9"
     inkscape:window-maximized="1" />
  <metadata
     id="metadata14629">
    <rdf:RDF>
      <cc:Work
         rdf:about="">
        <dc:format>image/svg+xml</dc:format>
        <dc:type
           rdf:resource="http://purl.org/dc/dcmitype/StillImage" />
        <dc:title></dc:title>
      </cc:Work>
    </rdf:RDF>
  </metadata>
  <g
     inkscape:label="Layer 1"
     inkscape:groupmode="layer"
     id="layer1"
     transform="translate(112.33282,38.830559)">
    <path
       inkscape:connector-curvature="0"
       id="path3226"
       d="m 288.01376,148.84172 c 0,103.64916 -84.0314,187.68053 -187.68055,187.68053 -103.6491413,0 -187.672275,-84.03137 -187.672275,-187.68053 0,-103.649145 84.0231337,-187.672279 187.672275,-187.672279 103.64915,0 187.68055,84.023134 187.68055,187.672279"
       style="fill:#112b3e;fill-opacity:1;fill-rule:nonzero;stroke:none;stroke-width:0.35277778" />
    <path
       inkscape:connector-curvature="0"
       id="path3258"
       d="m -95.983497,86.391801 -16.205733,0.03316 -0.1433,-67.173867 16.205735,-0.04272 0.143298,67.183535"
       style="fill:#f39c0c;fill-opacity:1;fill-rule:nonzero;stroke:none;stroke-width:0.35277778" />
    <path
       inkscape:connector-curvature="0"
       id="path3260"
       d="m -107.5411,20.918427 -4.79143,0.0081 v -0.651793 l 4.79143,-0.0081 v 0.651827"
       style="fill:#3a383d;fill-opacity:1;fill-rule:nonzero;stroke:none;stroke-width:0.35277778" />
    <path
       inkscape:connector-curvature="0"
       id="path3262"
       d="m -105.915,22.162781 -6.41753,0.01799 v -0.651793 l 6.40924,-0.0095 0.008,0.643538"
       style="fill:#3a383d;fill-opacity:1;fill-rule:nonzero;stroke:none;stroke-width:0.35277778" />
    <path
       inkscape:connector-curvature="0"
       id="path3264"
       d="m -107.52318,26.667614 -4.79284,0.0081 v -0.651791 l 4.79284,-0.0081 v 0.651827"
       style="fill:#3a383d;fill-opacity:1;fill-rule:nonzero;stroke:none;stroke-width:0.35277778" />
    <path
       inkscape:connector-curvature="0"
       id="path3266"
       d="m -105.90675,27.911965 -6.40927,0.01659 v -0.651828 l 6.40102,-0.0081 0.008,0.643539"
       style="fill:#3a383d;fill-opacity:1;fill-rule:nonzero;stroke:none;stroke-width:0.35277778" />
    <path
       inkscape:connector-curvature="0"
       id="path3268"
       d="m -107.50667,32.416798 -4.80106,0.0081 v -0.651815 l 4.80106,-0.0081 v 0.651828"
       style="fill:#3a383d;fill-opacity:1;fill-rule:nonzero;stroke:none;stroke-width:0.35277778" />
    <path
       inkscape:connector-curvature="0"
       id="path3270"
       d="m -105.89849,33.669404 -6.40924,0.0085 v -0.643535 l 6.40924,-0.01659 v 0.651793"
       style="fill:#3a383d;fill-opacity:1;fill-rule:nonzero;stroke:none;stroke-width:0.35277778" />
    <path
       inkscape:connector-curvature="0"
       id="path3272"
       d="m -107.49838,38.165945 -4.79146,0.0081 v -0.651827 l 4.79146,-0.0095 v 0.653168"
       style="fill:#3a383d;fill-opacity:1;fill-rule:nonzero;stroke:none;stroke-width:0.35277778" />
    <path
       inkscape:connector-curvature="0"
       id="path3274"
       d="m -105.88057,39.418589 -6.40927,0.0081 v -0.643516 l 6.40101,-0.01659 0.008,0.65179"
       style="fill:#3a383d;fill-opacity:1;fill-rule:nonzero;stroke:none;stroke-width:0.35277778" />
    <path
       inkscape:connector-curvature="0"
       id="path3276"
       d="m -107.48183,43.913756 -4.79972,0.01799 v -0.651828 l 4.79143,-0.01799 0.008,0.651827"
       style="fill:#3a383d;fill-opacity:1;fill-rule:nonzero;stroke:none;stroke-width:0.35277778" />
    <path
       inkscape:connector-curvature="0"
       id="path3278"
       d="m -105.87228,45.167775 -6.40927,0.01659 v -0.651828 l 6.40927,-0.01659 v 0.651827"
       style="fill:#3a383d;fill-opacity:1;fill-rule:nonzero;stroke:none;stroke-width:0.35277778" />
    <path
       inkscape:connector-curvature="0"
       id="path3280"
       d="m -107.4722,49.671195 -4.7928,0.0081 v -0.65179 l 4.78317,-0.01659 0.01,0.660083"
       style="fill:#3a383d;fill-opacity:1;fill-rule:nonzero;stroke:none;stroke-width:0.35277778" />
    <path
       inkscape:connector-curvature="0"
       id="path3282"
       d="m -105.85577,50.915584 -6.40923,0.01799 v -0.651793 l 6.40923,-0.01799 v 0.651827"
       style="fill:#3a383d;fill-opacity:1;fill-rule:nonzero;stroke:none;stroke-width:0.35277778" />
    <path
       inkscape:connector-curvature="0"
       id="path3284"
       d="m -107.46395,55.42038 -4.7928,0.0081 v -0.65179 l 4.7928,-0.0081 v 0.651828"
       style="fill:#3a383d;fill-opacity:1;fill-rule:nonzero;stroke:none;stroke-width:0.35277778" />
    <path
       inkscape:connector-curvature="0"
       id="path3286"
       d="m -105.84748,56.664731 -6.40927,0.01799 v -0.653204 l 6.40927,-0.0081 v 0.643535"
       style="fill:#3a383d;fill-opacity:1;fill-rule:nonzero;stroke:none;stroke-width:0.35277778" />
    <path
       inkscape:connector-curvature="0"
       id="path3288"
       d="m -107.4474,61.169564 -4.80109,0.0081 v -0.651828 l 4.80109,-0.0081 v 0.651828"
       style="fill:#3a383d;fill-opacity:1;fill-rule:nonzero;stroke:none;stroke-width:0.35277778" />
    <path
       inkscape:connector-curvature="0"
       id="path3290"
       d="m -105.8296,62.413918 -6.41889,0.01659 v -0.651827 l 6.40926,-0.0081 0.01,0.643535"
       style="fill:#3a383d;fill-opacity:1;fill-rule:nonzero;stroke:none;stroke-width:0.35277778" />
    <path
       inkscape:connector-curvature="0"
       id="path3292"
       d="m -107.43915,66.918714 -4.79142,0.0085 v -0.651861 l 4.79142,-0.0081 v 0.651793"
       style="fill:#3a383d;fill-opacity:1;fill-rule:nonzero;stroke:none;stroke-width:0.35277778" />
    <path
       inkscape:connector-curvature="0"
       id="path3294"
       d="m -105.82131,68.171357 -6.40926,0.0085 v -0.643573 l 6.40926,-0.01659 v 0.651793"
       style="fill:#3a383d;fill-opacity:1;fill-rule:nonzero;stroke:none;stroke-width:0.35277778" />
    <path
       inkscape:connector-curvature="0"
       id="path3296"
       d="m -107.4226,72.666522 -4.79968,0.0095 v -0.653169 l 4.79968,-0.0081 v 0.651828"
       style="fill:#3a383d;fill-opacity:1;fill-rule:nonzero;stroke:none;stroke-width:0.35277778" />
    <path
       inkscape:connector-curvature="0"
       id="path3298"
       d="m -105.81305,73.920541 -6.40098,0.0081 -0.008,-0.643536 6.40923,-0.01659 v 0.651827"
       style="fill:#3a383d;fill-opacity:1;fill-rule:nonzero;stroke:none;stroke-width:0.35277778" />
    <path
       inkscape:connector-curvature="0"
       id="path3300"
       d="m -107.41293,78.415706 -4.79284,0.01659 v -0.651827 l 4.79284,-0.0081 v 0.643538"
       style="fill:#3a383d;fill-opacity:1;fill-rule:nonzero;stroke:none;stroke-width:0.35277778" />
    <path
       inkscape:connector-curvature="0"
       id="path3302"
       d="m -105.79651,79.668349 -6.40926,0.01799 v -0.651793 l 6.40926,-0.01799 v 0.651828"
       style="fill:#3a383d;fill-opacity:1;fill-rule:nonzero;stroke:none;stroke-width:0.35277778" />
    <path
       inkscape:connector-curvature="0"
       id="path3304"
       d="m -107.39642,84.173145 -4.80106,0.0081 v -0.651793 l 4.80106,-0.01659 v 0.660083"
       style="fill:#3a383d;fill-opacity:1;fill-rule:nonzero;stroke:none;stroke-width:0.35277778" />
    <path
       inkscape:connector-curvature="0"
       id="path3306"
       d="m -105.78825,85.417499 -6.40923,0.01799 V 84.78232 l 6.40923,-0.01659 v 0.651793"
       style="fill:#3a383d;fill-opacity:1;fill-rule:nonzero;stroke:none;stroke-width:0.35277778" />
    <path
       inkscape:connector-curvature="0"
       id="path3308"
       d="m -112.18923,86.424855 v -0.989436 0.989436 l 2.72715,-0.0081 -2.72715,0.0081"
       style="fill:#235c82;fill-opacity:1;fill-rule:nonzero;stroke:none;stroke-width:0.35277778" />
    <path
       inkscape:connector-curvature="0"
       id="path3310"
       d="m -112.18923,86.424855 v -0.989436 l 2.72715,-0.0095 v 0.990812 l -2.72715,0.0081"
       style="fill:#d98c17;fill-opacity:1;fill-rule:nonzero;stroke:none;stroke-width:0.35277778" />
    <path
       inkscape:connector-curvature="0"
       id="path3312"
       d="M -112.19748,84.78225 V 84.1814 l 2.72711,-0.0081 v 0.600815 l -2.72711,0.0085"
       style="fill:#d98c17;fill-opacity:1;fill-rule:nonzero;stroke:none;stroke-width:0.35277778" />
    <path
       inkscape:connector-curvature="0"
       id="path3314"
       d="m -112.19748,83.529607 -0.008,-3.843372 2.72577,-0.0081 0.01,3.843337 -2.72711,0.0085"
       style="fill:#d98c17;fill-opacity:1;fill-rule:nonzero;stroke:none;stroke-width:0.35277778" />
    <path
       inkscape:connector-curvature="0"
       id="path3316"
       d="M -112.20577,79.034442 V 78.43225 l 2.72577,-0.0085 v 0.602191 l -2.72577,0.0081"
       style="fill:#d98c17;fill-opacity:1;fill-rule:nonzero;stroke:none;stroke-width:0.35277778" />
    <path
       inkscape:connector-curvature="0"
       id="path3318"
       d="m -112.20577,77.908587 -0.008,-3.979791 h 2.72577 l 0.008,3.843372 -2.72577,0.0081 v 0.128164"
       style="fill:#d98c17;fill-opacity:1;fill-rule:nonzero;stroke:none;stroke-width:0.35277778" />
    <path
       inkscape:connector-curvature="0"
       id="path3320"
       d="m -112.22228,73.285258 v -0.609105 h 2.72573 v 0.60085 l -2.72573,0.0081"
       style="fill:#d98c17;fill-opacity:1;fill-rule:nonzero;stroke:none;stroke-width:0.35277778" />
    <path
       inkscape:connector-curvature="0"
       id="path3322"
       d="m -112.22228,72.022984 -0.008,-3.843338 2.72577,-0.0085 0.008,3.851627 h -2.72574"
       style="fill:#d98c17;fill-opacity:1;fill-rule:nonzero;stroke:none;stroke-width:0.35277778" />
    <path
       inkscape:connector-curvature="0"
       id="path3324"
       d="m -112.23057,67.536074 v -0.609071 l 2.72577,-0.0085 v 0.609106 l -2.72577,0.0081"
       style="fill:#d98c17;fill-opacity:1;fill-rule:nonzero;stroke:none;stroke-width:0.35277778" />
    <path
       inkscape:connector-curvature="0"
       id="path3326"
       d="m -112.23057,66.435018 -0.008,-4.004556 2.72573,-0.0081 0.008,3.853006 h -2.72577 v 0.159843"
       style="fill:#d98c17;fill-opacity:1;fill-rule:nonzero;stroke:none;stroke-width:0.35277778" />
    <path
       inkscape:connector-curvature="0"
       id="path3328"
       d="m -112.24849,61.778635 v -0.600816 l 2.7354,-0.0081 v 0.609071 h -2.7354"
       style="fill:#d98c17;fill-opacity:1;fill-rule:nonzero;stroke:none;stroke-width:0.35277778" />
    <path
       inkscape:connector-curvature="0"
       id="path3330"
       d="m -112.24849,60.86501 -0.008,-4.182356 2.72714,-0.0095 0.0166,3.852968 h -2.7354 v 0.339019"
       style="fill:#d98c17;fill-opacity:1;fill-rule:nonzero;stroke:none;stroke-width:0.35277778" />
    <path
       inkscape:connector-curvature="0"
       id="path3332"
       d="m -112.25675,56.02945 v -0.981146 0.380331 l 2.72715,-0.0081 v 0.600816 l -2.72715,0.0081 m 0,-1.252608 -0.008,-3.843372 2.72574,-0.0081 0.009,3.843337 -2.72715,0.0081 m -0.008,-4.402844 -0.0166,-5.189678 2.72574,-0.0081 0.0166,3.843372 -2.72574,0.0081 v 0.651793 l 2.72574,-0.0081 v 0.602191 l -2.72574,0.0081 v 0.09232 m -0.0166,-5.571418 v -0.870903 l 2.72574,-0.0081 v 0.600851 l -2.72574,0.0081 v 0.270087 m 0,-1.52273 -0.008,-4.106545 v 0.25354 h 2.72577 l 0.008,3.843374 -2.72574,0.0095 m -0.008,-4.496541 -0.018,-5.105611 2.73541,-0.0085 0.008,3.853003 h -2.72578 v 0.651827 h 2.72577 v 0.600816 l -2.72577,0.0081 m -0.018,-5.443257 v -0.914998 l 2.72711,-0.0081 v 0.609071 l -2.72711,0.0085 v 0.305892 m 0,-1.313248 -0.008,-4.258136 v 0.159846 h 2.72715 l 0.008,3.844713 h -2.72711 v 0.253577 m -0.008,-4.750118 -0.0166,-6.350003 2.73402,-0.0081 v 0.600816 l -2.73402,0.0095 v 0.651791 l 2.73402,-0.0081 0.01,3.843337 -2.72714,0.0081 v 0.651791 l 2.72714,-0.0081 v 0.609071 h -2.72714 m -0.0166,-6.722028 v -1.303655 l 2.72573,-0.0081 v 1.023869 l -2.72573,0.0081 v 0.279754"
       style="fill:#d98c17;fill-opacity:1;fill-rule:nonzero;stroke:none;stroke-width:0.35277778" />
    <path
       inkscape:connector-curvature="0"
       id="path3334"
       d="m -112.33253,20.926682 v -0.65179 l 2.72574,-0.0081 0.008,0.651827 -2.73403,0.0081"
       style="fill:#333335;fill-opacity:1;fill-rule:nonzero;stroke:none;stroke-width:0.35277778" />
    <path
       inkscape:connector-curvature="0"
       id="path3336"
       d="m -112.33253,22.180701 v -0.65179 l 2.73403,-0.0095 v 0.653203 l -2.73403,0.0081"
       style="fill:#333335;fill-opacity:1;fill-rule:nonzero;stroke:none;stroke-width:0.35277778" />
    <path
       inkscape:connector-curvature="0"
       id="path3338"
       d="m -112.31602,26.675869 v -0.651793 l 2.72715,-0.0081 v 0.651828 l -2.72715,0.0081"
       style="fill:#333335;fill-opacity:1;fill-rule:nonzero;stroke:none;stroke-width:0.35277778" />
    <path
       inkscape:connector-curvature="0"
       id="path3340"
       d="m -112.31602,27.928512 v -0.651827 h 2.72715 v 0.651827 h -2.72715"
       style="fill:#333335;fill-opacity:1;fill-rule:nonzero;stroke:none;stroke-width:0.35277778" />
    <path
       inkscape:connector-curvature="0"
       id="path3342"
       d="m -112.30773,32.425053 v -0.651827 h 2.72712 v 0.643572 l -2.72712,0.0081"
       style="fill:#333335;fill-opacity:1;fill-rule:nonzero;stroke:none;stroke-width:0.35277778" />
    <path
       inkscape:connector-curvature="0"
       id="path3344"
       d="m -112.30773,33.677697 v -0.643539 l 2.72712,-0.0085 0.008,0.643538 -2.73541,0.0085"
       style="fill:#333335;fill-opacity:1;fill-rule:nonzero;stroke:none;stroke-width:0.35277778" />
    <path
       inkscape:connector-curvature="0"
       id="path3346"
       d="M -112.28984,38.174237 V 37.52241 h 2.72577 v 0.651827 h -2.72577"
       style="fill:#333335;fill-opacity:1;fill-rule:nonzero;stroke:none;stroke-width:0.35277778" />
    <path
       inkscape:connector-curvature="0"
       id="path3348"
       d="m -112.28984,39.426844 v -0.643536 l 2.72577,-0.0081 v 0.651794 h -2.72577"
       style="fill:#333335;fill-opacity:1;fill-rule:nonzero;stroke:none;stroke-width:0.35277778" />
    <path
       inkscape:connector-curvature="0"
       id="path3350"
       d="m -112.28155,43.931677 v -0.651828 l 2.72574,-0.0095 v 0.653169 l -2.72574,0.0081"
       style="fill:#333335;fill-opacity:1;fill-rule:nonzero;stroke:none;stroke-width:0.35277778" />
    <path
       inkscape:connector-curvature="0"
       id="path3352"
       d="m -112.28155,45.18432 v -0.651828 l 2.72574,-0.0081 v 0.651793 l -2.72574,0.0081"
       style="fill:#333335;fill-opacity:1;fill-rule:nonzero;stroke:none;stroke-width:0.35277778" />
    <path
       inkscape:connector-curvature="0"
       id="path3354"
       d="m -112.265,49.67945 v -0.651793 l 2.72573,-0.0081 v 0.651793 l -2.72573,0.0081"
       style="fill:#333335;fill-opacity:1;fill-rule:nonzero;stroke:none;stroke-width:0.35277778" />
    <path
       inkscape:connector-curvature="0"
       id="path3356"
       d="m -112.265,50.93347 v -0.651793 l 2.72573,-0.0081 v 0.651827 l -2.72573,0.0081"
       style="fill:#333335;fill-opacity:1;fill-rule:nonzero;stroke:none;stroke-width:0.35277778" />
    <path
       inkscape:connector-curvature="0"
       id="path3358"
       d="m -112.25675,55.428635 v -0.651793 l 2.72715,-0.0081 v 0.651827 l -2.72715,0.0081"
       style="fill:#333335;fill-opacity:1;fill-rule:nonzero;stroke:none;stroke-width:0.35277778" />
    <path
       inkscape:connector-curvature="0"
       id="path3360"
       d="M -112.25675,56.682654 V 56.02945 l 2.72715,-0.0081 v 0.651827 l -2.72715,0.0095"
       style="fill:#333335;fill-opacity:1;fill-rule:nonzero;stroke:none;stroke-width:0.35277778" />
    <path
       inkscape:connector-curvature="0"
       id="path3362"
       d="m -112.24849,61.177819 v -0.651828 h 2.7354 v 0.643573 l -2.7354,0.0081"
       style="fill:#333335;fill-opacity:1;fill-rule:nonzero;stroke:none;stroke-width:0.35277778" />
    <path
       inkscape:connector-curvature="0"
       id="path3364"
       d="m -112.23883,62.430462 -0.01,-0.651827 h 2.73541 v 0.643538 l -2.72574,0.0081"
       style="fill:#333335;fill-opacity:1;fill-rule:nonzero;stroke:none;stroke-width:0.35277778" />
    <path
       inkscape:connector-curvature="0"
       id="path3366"
       d="m -112.23057,66.927003 v -0.651828 h 2.72577 v 0.643539 l -2.72577,0.0085"
       style="fill:#333335;fill-opacity:1;fill-rule:nonzero;stroke:none;stroke-width:0.35277778" />
    <path
       inkscape:connector-curvature="0"
       id="path3368"
       d="m -112.23057,68.179646 v -0.643572 l 2.72577,-0.0081 v 0.643538 l -2.72577,0.0085"
       style="fill:#333335;fill-opacity:1;fill-rule:nonzero;stroke:none;stroke-width:0.35277778" />
    <path
       inkscape:connector-curvature="0"
       id="path3370"
       d="m -112.22228,72.676153 v -0.653169 h 2.72573 v 0.653169 h -2.72573"
       style="fill:#333335;fill-opacity:1;fill-rule:nonzero;stroke:none;stroke-width:0.35277778" />
    <path
       inkscape:connector-curvature="0"
       id="path3372"
       d="m -112.21403,73.928796 -0.008,-0.643538 2.72574,-0.0081 0.009,0.651793 h -2.72577"
       style="fill:#333335;fill-opacity:1;fill-rule:nonzero;stroke:none;stroke-width:0.35277778" />
    <path
       inkscape:connector-curvature="0"
       id="path3374"
       d="m -112.20577,78.43225 v -0.651827 l 2.72577,-0.0081 v 0.651791 l -2.72577,0.0085"
       style="fill:#333335;fill-opacity:1;fill-rule:nonzero;stroke:none;stroke-width:0.35277778" />
    <path
       inkscape:connector-curvature="0"
       id="path3376"
       d="m -112.20577,79.686235 v -0.651793 l 2.72577,-0.0081 v 0.651828 l -2.72577,0.0081"
       style="fill:#333335;fill-opacity:1;fill-rule:nonzero;stroke:none;stroke-width:0.35277778" />
    <path
       inkscape:connector-curvature="0"
       id="path3378"
       d="m -112.19748,84.1814 v -0.651793 l 2.72711,-0.0085 v 0.651828 l -2.72711,0.0081"
       style="fill:#333335;fill-opacity:1;fill-rule:nonzero;stroke:none;stroke-width:0.35277778" />
    <path
       inkscape:connector-curvature="0"
       id="path3380"
       d="m -112.18923,85.435419 -0.008,-0.653169 2.72712,-0.0085 0.008,0.651827 -2.72715,0.0095"
       style="fill:#333335;fill-opacity:1;fill-rule:nonzero;stroke:none;stroke-width:0.35277778" />
    <path
       inkscape:connector-curvature="0"
       id="path3382"
       d="m 145.81675,246.4964 h 56.22534 v -36.35678 h -56.22534 z m 0,0"
       style="fill:#d1d4d1;fill-opacity:1;fill-rule:nonzero;stroke:none;stroke-width:0.35277778" />
    <path
       inkscape:connector-curvature="0"
       id="path3384"
       d="m 313.00725,209.81026 c 0,4.00459 -3.27699,7.28155 -7.28159,7.28155 H 42.141428 c -4.004593,0 -7.281582,-3.27696 -7.281582,-7.28155 V 16.930381 c 0,-4.004556 3.276989,-7.2898004 7.281582,-7.2898004 H 305.72566 c 4.0046,0 7.28159,3.2852444 7.28159,7.2898004 V 209.81026"
       style="fill:#d1d4d1;fill-opacity:1;fill-rule:nonzero;stroke:none;stroke-width:0.35277778" />
    <path
       inkscape:connector-curvature="0"
       id="path3386"
       d="M 305.72566,9.6405806 H 42.141428 c -4.004593,0 -7.281582,3.2852444 -7.281582,7.2898004 V 181.29453 L 313.00725,180.88799 V 16.930381 c 0,-4.004556 -3.27699,-7.2898004 -7.28159,-7.2898004"
       style="fill:#141723;fill-opacity:1;fill-rule:nonzero;stroke:none;stroke-width:0.35277778" />
    <path
       inkscape:connector-curvature="0"
       id="path3388"
       d="M 303.84603,170.62575 H 44.021062 V 19.208266 H 303.84603 V 170.62575"
       style="fill:#ffffff;fill-opacity:1;fill-rule:nonzero;stroke:none;stroke-width:0.35277778" />
    <path
       inkscape:connector-curvature="0"
       id="path3390"
       d="m 213.30342,256.4279 h -78.74801 v -13.44549 h 78.74801 v 13.44549"
       style="fill:#d1d4d1;fill-opacity:1;fill-rule:nonzero;stroke:none;stroke-width:0.35277778" />
    <path
       inkscape:connector-curvature="0"
       id="path3392"
       d="m 145.81675,226.61682 h 56.22534 v -8.76294 h -56.22534 z m 0,0"
       style="fill:#bababa;fill-opacity:1;fill-rule:nonzero;stroke:none;stroke-width:0.35277778" />
    <path
       inkscape:connector-curvature="0"
       id="path3394"
       d="m 101.85732,68.798382 c 0.008,-0.03457 0.0166,-0.06893 0.0166,-0.110241 l -0.0166,0.110241"
       style="fill:#685c4f;fill-opacity:1;fill-rule:nonzero;stroke:none;stroke-width:0.35277778" />
    <path
       inkscape:connector-curvature="0"
       id="path3396"
       d="m 119.29915,98.397251 -3.19292,-0.609105 3.19292,0.609105"
       style="fill:#947a70;fill-opacity:1;fill-rule:nonzero;stroke:none;stroke-width:0.35277778" />
    <path
       inkscape:connector-curvature="0"
       id="path3398"
       d="M 231.3626,41.163182 H 180.31728 V 28.759479 h 51.04532 v 12.403703"
       style="fill:#112b3e;fill-opacity:1;fill-rule:nonzero;stroke:none;stroke-width:0.35277778" />
    <path
       inkscape:connector-curvature="0"
       id="path3400"
       d="M 293.68574,162.21006 H 180.31728 V 46.175132 H 293.68574 V 162.21006"
       style="fill:#112b3e;fill-opacity:1;fill-rule:nonzero;stroke:none;stroke-width:0.35277778" />
    <path
       inkscape:connector-curvature="0"
       id="path3402"
       d="M 293.68574,41.163182 H 242.64872 V 28.759479 h 51.03702 v 12.403703"
       style="fill:#112b3e;fill-opacity:1;fill-rule:nonzero;stroke:none;stroke-width:0.35277778" />
    <path
       inkscape:connector-curvature="0"
       id="path3404"
       d="M 167.92322,161.72774 H 54.545129 V 28.759479 H 167.92322 V 161.72774"
       style="fill:#fad147;fill-opacity:1;fill-rule:nonzero;stroke:none;stroke-width:0.35277778" />
    <path
       inkscape:connector-curvature="0"
       id="path3406"
       d="m -95.991752,150.8564 -8.492878,0.008 -0.0675,-59.385197 8.501132,-0.0081 0.05927,59.385167"
       style="fill:#141723;fill-opacity:1;fill-rule:nonzero;stroke:none;stroke-width:0.35277778" />
    <path
       inkscape:connector-curvature="0"
       id="path3408"
       d="m -100.43732,155.9703 c -0.27837,-0.0841 -0.48232,-0.34727 -0.48232,-0.65179 0,-0.38036 0.30456,-0.68626 0.68626,-0.69455 0.380369,0 0.694553,0.31419 0.694553,0.69455 0,0.30452 -0.203941,0.56772 -0.483693,0.65179 l 0.008,4.80935 3.640772,-8.92415 -7.721142,0.008 3.65732,8.91589 v -4.80936"
       style="fill:#d1d1d1;fill-opacity:1;fill-rule:nonzero;stroke:none;stroke-width:0.35277778" />
    <path
       inkscape:connector-curvature="0"
       id="path3410"
       d="m -95.983497,151.8555 -8.501133,0.008 v -0.99907 l 8.492878,-0.008 0.0081,0.9991"
       style="fill:#d1d1d1;fill-opacity:1;fill-rule:nonzero;stroke:none;stroke-width:0.35277778" />
    <path
       inkscape:connector-curvature="0"
       id="path3412"
       d="m -101.2407,94.807456 h -3.31971 v 4.368376 h 1.57508 l 0.0166,18.212148 h 1.75289 l -0.0166,-18.212148 5.189677,-0.0081 -0.0081,-4.368377 -5.189677,0.0081"
       style="fill:#333333;fill-opacity:1;fill-rule:nonzero;stroke:none;stroke-width:0.35277778" />
    <path
       inkscape:connector-curvature="0"
       id="path3414"
       d="m -95.991752,150.8564 -0.05101,-51.688822 -0.0081,-4.368377 V 91.47949 h 0.05927 v 59.37691"
       style="fill:#235c82;fill-opacity:1;fill-rule:nonzero;stroke:none;stroke-width:0.35277778" />
    <path
       inkscape:connector-curvature="0"
       id="path3416"
       d="M -95.991752,150.8564 H -100.3009 V 99.175833 l 4.258136,-0.0081 0.05101,51.688817 M -100.3009,94.807619 v -3.327964 h 4.249879 v 3.319709 l -4.249879,0.0081"
       style="fill:#141721;fill-opacity:1;fill-rule:nonzero;stroke:none;stroke-width:0.35277778" />
    <path
       inkscape:connector-curvature="0"
       id="path3418"
       d="m -100.3009,99.175833 v -4.368377 l 4.249881,-0.0081 0.0081,4.368377 -4.258131,0.0081"
       style="fill:#2e2e2e;fill-opacity:1;fill-rule:nonzero;stroke:none;stroke-width:0.35277778" />
    <path
       inkscape:connector-curvature="0"
       id="path3420"
       d="m 18.375775,248.95205 c 0,1.91272 -1.566828,3.47956 -3.479554,3.47956 h -44.721463 c -1.921017,0 -3.487846,-1.56684 -3.487846,-3.47956 v -77.6235 c 0,-1.91272 1.566829,-3.47955 3.487846,-3.47955 h 44.721463 c 1.912726,0 3.479554,1.56683 3.479554,3.47955 v 77.6235"
       style="fill:#141723;fill-opacity:1;fill-rule:nonzero;stroke:none;stroke-width:0.35277778" />
    <path
       inkscape:connector-curvature="0"
       id="path3422"
       d="m -28.343858,174.13974 v 69.12239 h 41.758695 v -69.12239 h -41.758695"
       style="fill:#ffffff;fill-opacity:1;fill-rule:nonzero;stroke:none;stroke-width:0.35277778" />
    <path
       inkscape:connector-curvature="0"
       id="path3424"
       d="M -8.5566233,196.3992 H -26.243736 v -19.05 h 17.6871127 v 19.05"
       style="fill:#f45e64;fill-opacity:1;fill-rule:nonzero;stroke:none;stroke-width:0.35277778" />
    <path
       inkscape:connector-curvature="0"
       id="path3426"
       d="M 10.91643,238.09725 H -6.7623937 V 177.3492 H 10.91643 v 60.74805"
       style="fill:#112b3e;fill-opacity:1;fill-rule:nonzero;stroke:none;stroke-width:0.35277778" />
    <path
       inkscape:connector-curvature="0"
       id="path3428"
       d="M -8.5566233,199.68445 H -26.243736 v -1.64264 h 17.6871127 v 1.64264"
       style="fill:#f03a4c;fill-opacity:1;fill-rule:nonzero;stroke:none;stroke-width:0.35277778" />
    <path
       inkscape:connector-curvature="0"
       id="path3430"
       d="M -8.5566233,204.03628 H -26.243736 v -1.6509 h 17.6871127 v 1.6509"
       style="fill:#f03a4c;fill-opacity:1;fill-rule:nonzero;stroke:none;stroke-width:0.35277778" />
    <path
       inkscape:connector-curvature="0"
       id="path3432"
       d="M -8.5566233,208.38814 H -26.243736 v -1.64264 h 17.6871127 v 1.64264"
       style="fill:#f45e64;fill-opacity:1;fill-rule:nonzero;stroke:none;stroke-width:0.35277778" />
    <path
       inkscape:connector-curvature="0"
       id="path3434"
       d="M -8.5566233,212.73998 H -26.243736 v -1.6509 h 17.6871127 v 1.6509"
       style="fill:#f03a4c;fill-opacity:1;fill-rule:nonzero;stroke:none;stroke-width:0.35277778" />
    <path
       inkscape:connector-curvature="0"
       id="path3436"
       d="M -8.5566233,217.09181 H -26.243736 v -1.64261 h 17.6871127 v 1.64261"
       style="fill:#f03a4c;fill-opacity:1;fill-rule:nonzero;stroke:none;stroke-width:0.35277778" />
    <path
       inkscape:connector-curvature="0"
       id="path3438"
       d="M -8.5566233,220.68986 H -26.243736 v -1.6426 h 17.6871127 v 1.6426"
       style="fill:#f03a4c;fill-opacity:1;fill-rule:nonzero;stroke:none;stroke-width:0.35277778" />
    <path
       inkscape:connector-curvature="0"
       id="path3440"
       d="M -8.5566233,225.04172 H -26.243736 v -1.64263 h 17.6871127 v 1.64263"
       style="fill:#f03a4c;fill-opacity:1;fill-rule:nonzero;stroke:none;stroke-width:0.35277778" />
    <path
       inkscape:connector-curvature="0"
       id="path3442"
       d="M -8.5566233,229.39357 H -26.243736 v -1.65089 h 17.6871127 v 1.65089"
       style="fill:#f03a4c;fill-opacity:1;fill-rule:nonzero;stroke:none;stroke-width:0.35277778" />
    <path
       inkscape:connector-curvature="0"
       id="path3444"
       d="M -8.5566233,233.74544 H -26.243736 v -1.64264 h 17.6871127 v 1.64264"
       style="fill:#f03a4c;fill-opacity:1;fill-rule:nonzero;stroke:none;stroke-width:0.35277778" />
    <path
       inkscape:connector-curvature="0"
       id="path3446"
       d="M -8.5566233,238.09725 H -26.243736 v -1.65089 h 17.6871127 v 1.65089"
       style="fill:#f03a4c;fill-opacity:1;fill-rule:nonzero;stroke:none;stroke-width:0.35277778" />
    <path
       inkscape:connector-curvature="0"
       id="path3448"
       d="M -83.663825,159.76404 H 17.936178 V 17.425118 H -83.663825 Z m 0,0"
       style="fill:#7ab5e6;fill-opacity:1;fill-rule:nonzero;stroke:none;stroke-width:0.35277778" />
    <path
       inkscape:connector-curvature="0"
       id="path3450"
       d="m -42.872518,26.828833 v -0.999067 h -9.15984 v -0.567762 h -0.55947 10.287072 -0.567762 v 1.566829"
       style="fill:#a1cfee;fill-opacity:1;fill-rule:nonzero;stroke:none;stroke-width:0.35277778" />
    <path
       inkscape:connector-curvature="0"
       id="path3452"
       d="m -52.032358,34.990945 h -9.720652 9.161182 v -9.161179 h -9.161182 v -0.567762 h -0.566383 10.287035 v 9.728941"
       style="fill:#a1cfee;fill-opacity:1;fill-rule:nonzero;stroke:none;stroke-width:0.35277778" />
    <path
       inkscape:connector-curvature="0"
       id="path3454"
       d="M -72.040081,35.549076 V 25.262004 h 10.287071 v 9.728941 h -10.287071 v 0.558131 m 9.720688,-0.558131 v -9.161179 h -9.161216 v 9.161179 h 9.161216"
       style="fill:#a1cfee;fill-opacity:1;fill-rule:nonzero;stroke:none;stroke-width:0.35277778" />
    <path
       inkscape:connector-curvature="0"
       id="path3456"
       d="m -42.872518,26.828833 v -1.566829 h 0.72898 l -0.72898,1.566829 m 5.191054,-0.999067 h -0.177763 l 0.09232,-0.186055 0.08544,0.186055 m 4.537887,-0.02611 -0.254918,-0.541584 h 0.534673 -0.279755 v 0.541584"
       style="fill:#a1cfee;fill-opacity:1;fill-rule:nonzero;stroke:none;stroke-width:0.35277778" />
    <path
       inkscape:connector-curvature="0"
       id="path3458"
       d="m -32.863822,26.405782 -0.279755,-0.602191 v -0.541587 h 0.279755 v 1.143778"
       style="fill:#a1cfee;fill-opacity:1;fill-rule:nonzero;stroke:none;stroke-width:0.35277778" />
    <path
       inkscape:connector-curvature="0"
       id="path3460"
       d="m -46.93634,35.549076 h -5.096018 v -0.558131 h -0.55947 5.918658 l -0.26317,0.558131"
       style="fill:#a1cfee;fill-opacity:1;fill-rule:nonzero;stroke:none;stroke-width:0.35277778" />
    <path
       inkscape:connector-curvature="0"
       id="path3462"
       d="m -52.032358,44.710258 h -9.720652 9.161182 v -9.161182 h -9.161182 v -0.558131 h -0.566383 10.287035 v 9.719313"
       style="fill:#a1cfee;fill-opacity:1;fill-rule:nonzero;stroke:none;stroke-width:0.35277778" />
    <path
       inkscape:connector-curvature="0"
       id="path3464"
       d="M -72.040081,45.278017 V 34.990945 h 10.287071 v 9.719313 h -10.287071 v 0.567759 m 9.720688,-0.567759 v -9.161182 h -9.161216 v 9.161182 h 9.161216"
       style="fill:#a1cfee;fill-opacity:1;fill-rule:nonzero;stroke:none;stroke-width:0.35277778" />
    <path
       inkscape:connector-curvature="0"
       id="path3466"
       d="m -33.143577,44.710258 h -9.728941 v -8.127685 l 0.745525,-1.591628 h 8.711954 l 0.271462,0.558131 h -9.161179 v 9.161182 h 9.161179 v -9.161182 9.161182"
       style="fill:#a1cfee;fill-opacity:1;fill-rule:nonzero;stroke:none;stroke-width:0.35277778" />
    <path
       inkscape:connector-curvature="0"
       id="path3468"
       d="m -32.863822,44.710258 h -0.279755 v -9.161182 l 0.279755,0.609071 v 8.552111"
       style="fill:#a1cfee;fill-opacity:1;fill-rule:nonzero;stroke:none;stroke-width:0.35277778" />
    <path
       inkscape:connector-curvature="0"
       id="path3470"
       d="m -42.872518,52.735952 v -7.457935 h -4.055567 l 0.263207,-0.567759 h 4.360122 -0.567762 v 8.025694 m -8.60171,-7.457935 h -0.55813 v -0.567759 h -0.55947 1.379432 l -0.261832,0.567759"
       style="fill:#a1cfee;fill-opacity:1;fill-rule:nonzero;stroke:none;stroke-width:0.35277778" />
    <path
       inkscape:connector-curvature="0"
       id="path3472"
       d="m -52.032358,52.735952 h -0.55947 V 52.05107 l 0.55947,0.261831 v 0.423051 m -0.55947,-5.054635 v -2.4033 h -9.161182 v -0.567759 h -0.566383 10.287035 v 1.761135 l -0.55947,1.209924"
       style="fill:#a1cfee;fill-opacity:1;fill-rule:nonzero;stroke:none;stroke-width:0.35277778" />
    <path
       inkscape:connector-curvature="0"
       id="path3474"
       d="M -72.040081,54.997327 V 44.710258 h 10.287071 v 8.025694 h -0.566383 v -7.457935 h -9.161216 v 9.151551 h 7.4676 -8.027072 v 0.567759"
       style="fill:#a1cfee;fill-opacity:1;fill-rule:nonzero;stroke:none;stroke-width:0.35277778" />
    <path
       inkscape:connector-curvature="0"
       id="path3476"
       d="m -33.143577,52.735952 v -7.457935 h -9.161179 v 7.457935 h -0.567762 v -8.025694 h 10.008696 -0.279755 v 8.025694"
       style="fill:#a1cfee;fill-opacity:1;fill-rule:nonzero;stroke:none;stroke-width:0.35277778" />
    <path
       inkscape:connector-curvature="0"
       id="path3478"
       d="m -33.143577,52.735952 h 0.282506 v -8.028446 h -0.282506 z m 0,0"
       style="fill:#a1cfee;fill-opacity:1;fill-rule:nonzero;stroke:none;stroke-width:0.35277778" />
    <path
       inkscape:connector-curvature="0"
       id="path3480"
       d="m -52.032358,64.158509 h -8.02707 7.4676 v -7.4676 h 0.55947 v 7.4676"
       style="fill:#a1cfee;fill-opacity:1;fill-rule:nonzero;stroke:none;stroke-width:0.35277778" />
    <path
       inkscape:connector-curvature="0"
       id="path3482"
       d="M -72.040081,64.724894 V 54.429568 h 8.027072 v 0.567759 h -7.4676 v 9.161182 h 7.4676 -8.027072 v 0.566385"
       style="fill:#a1cfee;fill-opacity:1;fill-rule:nonzero;stroke:none;stroke-width:0.35277778" />
    <path
       inkscape:connector-curvature="0"
       id="path3484"
       d="m -33.143577,64.158509 h -9.728941 v -7.4676 h 0.567762 v 7.4676 h 9.161179 v -7.4676 7.4676"
       style="fill:#a1cfee;fill-opacity:1;fill-rule:nonzero;stroke:none;stroke-width:0.35277778" />
    <path
       inkscape:connector-curvature="0"
       id="path3486"
       d="m -33.143577,64.158509 h 0.282506 v -7.468976 h -0.282506 z m 0,0"
       style="fill:#a1cfee;fill-opacity:1;fill-rule:nonzero;stroke:none;stroke-width:0.35277778" />
    <path
       inkscape:connector-curvature="0"
       id="path3488"
       d="m -42.872518,73.886074 h -9.15984 9.15984 v -9.16118 h -9.15984 v -0.566385 h -0.55947 10.287072 -0.567762 v 9.727565"
       style="fill:#a1cfee;fill-opacity:1;fill-rule:nonzero;stroke:none;stroke-width:0.35277778" />
    <path
       inkscape:connector-curvature="0"
       id="path3490"
       d="m -52.032358,73.886074 h -8.02707 7.4676 v -9.16118 h -7.4676 v -0.566385 h 8.02707 v 9.727565"
       style="fill:#a1cfee;fill-opacity:1;fill-rule:nonzero;stroke:none;stroke-width:0.35277778" />
    <path
       inkscape:connector-curvature="0"
       id="path3492"
       d="M -72.040081,74.44558 V 64.158509 h 8.027072 v 0.566385 h -7.4676 v 9.16118 h 7.4676 -8.027072 v 0.559506"
       style="fill:#a1cfee;fill-opacity:1;fill-rule:nonzero;stroke:none;stroke-width:0.35277778" />
    <path
       inkscape:connector-curvature="0"
       id="path3494"
       d="m -33.143577,73.886074 h -9.728941 v -9.727565 h 10.008696 -0.279755 v 9.727565 m -9.161179,-9.16118 v 9.16118 h 9.161179 v -9.16118 h -9.161179"
       style="fill:#a1cfee;fill-opacity:1;fill-rule:nonzero;stroke:none;stroke-width:0.35277778" />
    <path
       inkscape:connector-curvature="0"
       id="path3496"
       d="m -33.143577,73.886074 h 0.282506 v -9.722062 h -0.282506 z m 0,0"
       style="fill:#a1cfee;fill-opacity:1;fill-rule:nonzero;stroke:none;stroke-width:0.35277778" />
    <path
       inkscape:connector-curvature="0"
       id="path3498"
       d="m -42.872518,83.605384 h -9.15984 9.15984 V 74.44558 h -9.15984 v -0.559506 h -0.55947 10.287072 -0.567762 v 9.71931"
       style="fill:#a1cfee;fill-opacity:1;fill-rule:nonzero;stroke:none;stroke-width:0.35277778" />
    <path
       inkscape:connector-curvature="0"
       id="path3500"
       d="m -52.032358,83.605384 h -8.02707 7.4676 V 74.44558 h -7.4676 v -0.559506 h 8.02707 v 9.71931"
       style="fill:#a1cfee;fill-opacity:1;fill-rule:nonzero;stroke:none;stroke-width:0.35277778" />
    <path
       inkscape:connector-curvature="0"
       id="path3502"
       d="M -72.040081,84.173145 V 73.886074 h 8.027072 v 0.559506 h -7.4676 v 9.159804 h 7.4676 -8.027072 v 0.567761"
       style="fill:#a1cfee;fill-opacity:1;fill-rule:nonzero;stroke:none;stroke-width:0.35277778" />
    <path
       inkscape:connector-curvature="0"
       id="path3504"
       d="m -33.143577,83.605384 h -9.728941 v -9.71931 h 10.008696 -0.279755 v 9.71931 m -9.161179,-9.159804 v 9.159804 h 9.161179 V 74.44558 h -9.161179"
       style="fill:#a1cfee;fill-opacity:1;fill-rule:nonzero;stroke:none;stroke-width:0.35277778" />
    <path
       inkscape:connector-curvature="0"
       id="path3506"
       d="m -33.143577,83.605384 h 0.282506 v -9.722062 h -0.282506 z m 0,0"
       style="fill:#a1cfee;fill-opacity:1;fill-rule:nonzero;stroke:none;stroke-width:0.35277778" />
    <path
       inkscape:connector-curvature="0"
       id="path3508"
       d="m -42.872518,93.334325 h -9.15984 9.15984 v -9.16118 h -9.15984 v -0.567761 h -0.55947 10.287072 -0.567762 v 9.728941"
       style="fill:#a1cfee;fill-opacity:1;fill-rule:nonzero;stroke:none;stroke-width:0.35277778" />
    <path
       inkscape:connector-curvature="0"
       id="path3510"
       d="m -52.032358,93.334325 h -8.02707 7.4676 v -9.16118 h -7.4676 v -0.567761 h 8.02707 v 9.728941"
       style="fill:#a1cfee;fill-opacity:1;fill-rule:nonzero;stroke:none;stroke-width:0.35277778" />
    <path
       inkscape:connector-curvature="0"
       id="path3512"
       d="M -72.040081,93.892455 V 83.605384 h 8.027072 v 0.567761 h -7.4676 v 9.16118 h 7.4676 -8.027072 v 0.55813"
       style="fill:#a1cfee;fill-opacity:1;fill-rule:nonzero;stroke:none;stroke-width:0.35277778" />
    <path
       inkscape:connector-curvature="0"
       id="path3514"
       d="m -33.143577,93.334325 h -9.728941 v -9.728941 h 10.008696 -0.279755 v 9.728941 m -9.161179,-9.16118 v 9.16118 h 9.161179 v -9.16118 h -9.161179"
       style="fill:#a1cfee;fill-opacity:1;fill-rule:nonzero;stroke:none;stroke-width:0.35277778" />
    <path
       inkscape:connector-curvature="0"
       id="path3516"
       d="m -33.143577,93.334325 h 0.282506 v -9.72619 h -0.282506 z m 0,0"
       style="fill:#a1cfee;fill-opacity:1;fill-rule:nonzero;stroke:none;stroke-width:0.35277778" />
    <path
       inkscape:connector-curvature="0"
       id="path3518"
       d="m -42.872518,103.62139 h -9.15984 v -0.3128 h 9.15984 v 0.3128 m 0,-0.87231 v -8.856625 h -9.15984 v -0.55813 h -0.55947 10.287072 -0.567762 v 9.414755"
       style="fill:#a1cfee;fill-opacity:1;fill-rule:nonzero;stroke:none;stroke-width:0.35277778" />
    <path
       inkscape:connector-curvature="0"
       id="path3520"
       d="m -52.591828,103.62139 h -7.4676 v -0.3128 h 7.4676 v 0.3128 m 0.55947,-0.87231 h -0.55947 v -8.856625 h -7.4676 v -0.55813 h 8.02707 v 9.414755"
       style="fill:#a1cfee;fill-opacity:1;fill-rule:nonzero;stroke:none;stroke-width:0.35277778" />
    <path
       inkscape:connector-curvature="0"
       id="path3522"
       d="m -64.013009,103.62139 h -7.4676 v -0.3128 h 7.4676 v 0.3128 m -8.027072,0 V 93.334325 h 8.027072 v 0.55813 h -7.4676 v 8.856625 h -0.559472 v 0.87231"
       style="fill:#a1cfee;fill-opacity:1;fill-rule:nonzero;stroke:none;stroke-width:0.35277778" />
    <path
       inkscape:connector-curvature="0"
       id="path3524"
       d="m -33.143577,103.62139 h -9.161179 v -0.3128 h 9.161179 v 0.3128 m 0,-0.87231 v -8.856625 h -9.161179 v 8.856625 h -0.567762 v -9.414755 h 10.008696 -0.279755 v 9.414755"
       style="fill:#a1cfee;fill-opacity:1;fill-rule:nonzero;stroke:none;stroke-width:0.35277778" />
    <path
       inkscape:connector-curvature="0"
       id="path3526"
       d="m -33.143577,102.74908 h 0.282506 v -9.418883 h -0.282506 z m 0,0"
       style="fill:#a1cfee;fill-opacity:1;fill-rule:nonzero;stroke:none;stroke-width:0.35277778" />
    <path
       inkscape:connector-curvature="0"
       id="path3528"
       d="m -42.872518,112.46839 h -9.15984 9.15984 v -9.1598 h -9.15984 v -0.55951 h -0.55947 10.287072 -0.567762 v 9.71931"
       style="fill:#a1cfee;fill-opacity:1;fill-rule:nonzero;stroke:none;stroke-width:0.35277778" />
    <path
       inkscape:connector-curvature="0"
       id="path3530"
       d="m -52.032358,112.46839 h -8.02707 7.4676 v -9.1598 h -7.4676 v -0.55951 h 8.02707 v 9.71931"
       style="fill:#a1cfee;fill-opacity:1;fill-rule:nonzero;stroke:none;stroke-width:0.35277778" />
    <path
       inkscape:connector-curvature="0"
       id="path3532"
       d="m -72.040081,113.03615 v -10.28707 h 8.027072 v 0.55951 h -7.4676 v 9.1598 h 7.4676 -8.027072 v 0.56776"
       style="fill:#a1cfee;fill-opacity:1;fill-rule:nonzero;stroke:none;stroke-width:0.35277778" />
    <path
       inkscape:connector-curvature="0"
       id="path3534"
       d="m -33.143577,112.46839 h -9.728941 v -9.71931 h 10.008696 -0.279755 v 9.71931 m -9.161179,-8.847 v 8.847 h 9.161179 v -9.1598 h -9.161179 v 0.3128"
       style="fill:#a1cfee;fill-opacity:1;fill-rule:nonzero;stroke:none;stroke-width:0.35277778" />
    <path
       inkscape:connector-curvature="0"
       id="path3536"
       d="m -33.143577,112.46839 h 0.282506 v -9.72206 h -0.282506 z m 0,0"
       style="fill:#a1cfee;fill-opacity:1;fill-rule:nonzero;stroke:none;stroke-width:0.35277778" />
    <path
       inkscape:connector-curvature="0"
       id="path3538"
       d="m -42.872518,120.50375 v -7.4676 h -9.15984 v -0.56776 h -0.55947 10.287072 -0.567762 v 8.03536"
       style="fill:#a1cfee;fill-opacity:1;fill-rule:nonzero;stroke:none;stroke-width:0.35277778" />
    <path
       inkscape:connector-curvature="0"
       id="path3540"
       d="m -52.032358,120.50375 h -0.55947 v -7.4676 h -7.4676 v -0.56776 h 8.02707 v 8.03536"
       style="fill:#a1cfee;fill-opacity:1;fill-rule:nonzero;stroke:none;stroke-width:0.35277778" />
    <path
       inkscape:connector-curvature="0"
       id="path3542"
       d="m -72.040081,122.75546 v -10.28707 h 8.027072 v 0.56776 h -7.4676 v 9.16118 h 7.4676 -8.027072 v 0.55813"
       style="fill:#a1cfee;fill-opacity:1;fill-rule:nonzero;stroke:none;stroke-width:0.35277778" />
    <path
       inkscape:connector-curvature="0"
       id="path3544"
       d="m -33.143577,120.50375 v -7.4676 h -9.161179 v 7.4676 h -0.567762 v -8.03536 h 10.008696 -0.279755 v 8.03536"
       style="fill:#a1cfee;fill-opacity:1;fill-rule:nonzero;stroke:none;stroke-width:0.35277778" />
    <path
       inkscape:connector-curvature="0"
       id="path3546"
       d="m -33.143577,120.50375 h 0.282506 v -8.02844 h -0.282506 z m 0,0"
       style="fill:#a1cfee;fill-opacity:1;fill-rule:nonzero;stroke:none;stroke-width:0.35277778" />
    <path
       inkscape:connector-curvature="0"
       id="path3548"
       d="m -52.032358,131.91664 h -9.720652 9.161182 v -7.46756 h 0.55947 v 7.46756"
       style="fill:#a1cfee;fill-opacity:1;fill-rule:nonzero;stroke:none;stroke-width:0.35277778" />
    <path
       inkscape:connector-curvature="0"
       id="path3550"
       d="m -72.040081,132.4844 v -10.28707 h 8.027072 v 0.55813 h -7.4676 v 9.16118 h 9.161216 v -7.46756 h 0.566383 v 7.46756 h -10.287071 v 0.56776"
       style="fill:#a1cfee;fill-opacity:1;fill-rule:nonzero;stroke:none;stroke-width:0.35277778" />
    <path
       inkscape:connector-curvature="0"
       id="path3552"
       d="m -33.143577,131.91664 h -9.728941 v -7.46756 h 0.567762 v 7.46756 h 9.161179 v -7.46756 7.46756"
       style="fill:#a1cfee;fill-opacity:1;fill-rule:nonzero;stroke:none;stroke-width:0.35277778" />
    <path
       inkscape:connector-curvature="0"
       id="path3554"
       d="m -33.143577,131.91664 h 0.282506 v -7.46481 h -0.282506 z m 0,0"
       style="fill:#a1cfee;fill-opacity:1;fill-rule:nonzero;stroke:none;stroke-width:0.35277778" />
    <path
       inkscape:connector-curvature="0"
       id="path3556"
       d="m -42.872518,141.64562 h -9.15984 9.15984 v -9.16122 h -9.15984 v -0.56776 h -0.55947 10.287072 -0.567762 v 9.72898"
       style="fill:#a1cfee;fill-opacity:1;fill-rule:nonzero;stroke:none;stroke-width:0.35277778" />
    <path
       inkscape:connector-curvature="0"
       id="path3558"
       d="m -52.032358,141.64562 h -9.720652 9.161182 v -9.16122 h -9.161182 v -0.56776 h -0.566383 10.287035 v 9.72898"
       style="fill:#a1cfee;fill-opacity:1;fill-rule:nonzero;stroke:none;stroke-width:0.35277778" />
    <path
       inkscape:connector-curvature="0"
       id="path3560"
       d="m -72.040081,142.21197 v -10.29533 h 10.287071 v 9.72898 h -10.287071 v 0.56635 m 9.720688,-0.56635 v -9.16122 h -9.161216 v 9.16122 h 9.161216"
       style="fill:#a1cfee;fill-opacity:1;fill-rule:nonzero;stroke:none;stroke-width:0.35277778" />
    <path
       inkscape:connector-curvature="0"
       id="path3562"
       d="m -33.143577,141.64562 h -9.728941 v -9.72898 h 10.008696 -0.279755 v 9.72898 m -9.161179,-9.16122 v 9.16122 h 9.161179 v -9.16122 h -9.161179"
       style="fill:#a1cfee;fill-opacity:1;fill-rule:nonzero;stroke:none;stroke-width:0.35277778" />
    <path
       inkscape:connector-curvature="0"
       id="path3564"
       d="m -33.143577,141.64562 h 0.282506 v -9.72622 h -0.282506 z m 0,0"
       style="fill:#a1cfee;fill-opacity:1;fill-rule:nonzero;stroke:none;stroke-width:0.35277778" />
    <path
       inkscape:connector-curvature="0"
       id="path3566"
       d="m -42.872518,151.93266 h -9.15984 v -0.56777 h 9.15984 v -9.15292 h -9.15984 v -0.56635 h -0.55947 10.287072 -0.567762 v 10.28704"
       style="fill:#a1cfee;fill-opacity:1;fill-rule:nonzero;stroke:none;stroke-width:0.35277778" />
    <path
       inkscape:connector-curvature="0"
       id="path3568"
       d="m -52.032358,151.93266 h -9.720652 v -0.56777 h 9.161182 v -9.15292 h -9.161182 v -0.56635 h -0.566383 10.287035 v 10.28704"
       style="fill:#a1cfee;fill-opacity:1;fill-rule:nonzero;stroke:none;stroke-width:0.35277778" />
    <path
       inkscape:connector-curvature="0"
       id="path3570"
       d="m -61.75301,151.93266 h -10.287071 v -10.28704 h 10.287071 v 10.28704 m -0.566383,-0.56777 v -9.15292 h -9.161216 v 9.15292 h 9.161216"
       style="fill:#a1cfee;fill-opacity:1;fill-rule:nonzero;stroke:none;stroke-width:0.35277778" />
    <path
       inkscape:connector-curvature="0"
       id="path3572"
       d="m -33.143577,151.93266 h -9.728941 v -10.28704 h 10.008696 -0.279755 v 10.28704 m -9.161179,-9.72069 v 9.15292 h 9.161179 v -9.15292 h -9.161179"
       style="fill:#a1cfee;fill-opacity:1;fill-rule:nonzero;stroke:none;stroke-width:0.35277778" />
    <path
       inkscape:connector-curvature="0"
       id="path3574"
       d="m -33.143577,151.93266 h 0.282506 v -10.28704 h -0.282506 z m 0,0"
       style="fill:#a1cfee;fill-opacity:1;fill-rule:nonzero;stroke:none;stroke-width:0.35277778" />
    <path
       inkscape:connector-curvature="0"
       id="path3576"
       d="m 17.936178,159.92392 h -50.8 v -0.15988 h 50.8 V 17.583584 159.92392"
       style="fill:#2e738c;fill-opacity:1;fill-rule:nonzero;stroke:none;stroke-width:0.35277778" />
    <path
       inkscape:connector-curvature="0"
       id="path3578"
       d="m 17.936178,159.76404 h -50.8 v -7.83138 H 6.3110577 V 42.23806 L 17.588904,17.583584 h 0.347274 V 159.76404 M 5.7515517,151.36489 h -9.159807 v -9.15292 h 9.159807 v 9.15292 m -9.7275654,0 H -13.13723 v -9.15292 h 9.1612163 v 9.15292 m -9.7289413,0 h -9.151551 v -9.15292 h 9.151551 v 9.15292 m -9.719312,0 h -9.161214 v -9.15292 h 9.161214 v 9.15292 m 29.1758187,-9.71927 h -9.159807 v -9.16122 h 9.159807 v 9.16122 m -9.7275654,0 H -13.13723 v -9.16122 h 9.1612163 v 9.16122 m -9.7289413,0 h -9.151551 v -9.16122 h 9.151551 v 9.16122 m -9.719312,0 h -9.161214 v -9.16122 h 9.161214 v 9.16122 m 29.1758187,-9.72898 h -9.159807 v -7.46756 h 1.692207 v -1.69362 h 7.4676 v 9.16118 m -9.7275654,0 H -13.13723 v -7.46756 h 9.1612163 v 7.46756 m -9.7289413,0 h -9.151551 v -7.46756 h 9.151551 v 7.46756 m -9.719312,0 h -9.161214 v -7.46756 h 9.161214 v 7.46756 m 29.1758187,-9.71931 h -7.4676 v -9.16118 h 7.4676 v 9.16118 m 0,-9.72894 h -7.4676 v -8.847 h 7.4676 v 8.847 m 0,-9.71931 h -7.4676 v -8.856625 h 7.4676 v 8.856625 m 0,-9.414755 h -7.4676 v -9.16118 h 7.4676 v 9.16118 m 0,-9.728941 h -7.4676 V 74.44558 h 7.4676 v 9.159804 m 0,-9.71931 h -7.4676 v -9.16118 h 7.4676 v 9.16118 m 0,-9.727565 h -7.4676 V 59.780501 L 0.46817369,54.997327 H 5.7515517 v 9.161182 m 0,-9.728941 H 0.73134669 L 4.9219947,45.278017 h 0.829557 v 9.151551 m 0,-9.71931 h -0.566386 l 0.566386,-1.244354 v 1.244354"
       style="fill:#68a1cf;fill-opacity:1;fill-rule:nonzero;stroke:none;stroke-width:0.35277778" />
    <path
       inkscape:connector-curvature="0"
       id="path3580"
       d="m 6.3110577,44.710258 h -1.125892 0.566386 v -1.244354 l 0.559506,-1.227844 v 2.472198"
       style="fill:#8cb5d7;fill-opacity:1;fill-rule:nonzero;stroke:none;stroke-width:0.35277778" />
    <path
       inkscape:connector-curvature="0"
       id="path3582"
       d="M 6.3110577,54.429568 H 0.73134669 5.7515517 v -9.151551 h -0.829557 l 0.263171,-0.567759 h 1.125892 v 9.71931"
       style="fill:#8cb5d7;fill-opacity:1;fill-rule:nonzero;stroke:none;stroke-width:0.35277778" />
    <path
       inkscape:connector-curvature="0"
       id="path3584"
       d="m 6.3110577,64.158509 h -8.027106 7.4676 V 54.997327 H 0.46817369 l 0.263173,-0.567759 H 6.3110577 v 9.728941"
       style="fill:#8cb5d7;fill-opacity:1;fill-rule:nonzero;stroke:none;stroke-width:0.35277778" />
    <path
       inkscape:connector-curvature="0"
       id="path3586"
       d="m 6.3110577,73.886074 h -8.027106 7.4676 v -9.16118 h -7.4676 v -0.566385 h 8.027106 v 9.727565"
       style="fill:#8cb5d7;fill-opacity:1;fill-rule:nonzero;stroke:none;stroke-width:0.35277778" />
    <path
       inkscape:connector-curvature="0"
       id="path3588"
       d="m 6.3110577,83.605384 h -8.027106 7.4676 V 74.44558 h -7.4676 v -0.559506 h 8.027106 v 9.71931"
       style="fill:#8cb5d7;fill-opacity:1;fill-rule:nonzero;stroke:none;stroke-width:0.35277778" />
    <path
       inkscape:connector-curvature="0"
       id="path3590"
       d="m 6.3110577,93.334325 h -8.027106 7.4676 v -9.16118 h -7.4676 v -0.567761 h 8.027106 v 9.728941"
       style="fill:#8cb5d7;fill-opacity:1;fill-rule:nonzero;stroke:none;stroke-width:0.35277778" />
    <path
       inkscape:connector-curvature="0"
       id="path3592"
       d="m 5.7515517,103.62139 h -7.4676 v -0.3128 h 7.4676 v 0.3128 m 0.559506,-0.87231 h -0.559506 v -8.856625 h -7.4676 v -0.55813 h 8.027106 v 9.414755"
       style="fill:#8cb5d7;fill-opacity:1;fill-rule:nonzero;stroke:none;stroke-width:0.35277778" />
    <path
       inkscape:connector-curvature="0"
       id="path3594"
       d="m 6.3110577,112.46839 h -8.027106 7.4676 v -9.1598 h -7.4676 v -0.55951 h 8.027106 v 9.71931"
       style="fill:#8cb5d7;fill-opacity:1;fill-rule:nonzero;stroke:none;stroke-width:0.35277778" />
    <path
       inkscape:connector-curvature="0"
       id="path3596"
       d="m 6.3110577,122.19733 h -8.027106 7.4676 v -9.16118 h -7.4676 v -0.56776 h 8.027106 v 9.72894"
       style="fill:#8cb5d7;fill-opacity:1;fill-rule:nonzero;stroke:none;stroke-width:0.35277778" />
    <path
       inkscape:connector-curvature="0"
       id="path3598"
       d="m -23.424267,131.91664 h -9.439555 v -7.46756 h 0.278341 v 7.46756 h 9.161214 v -7.46756 7.46756"
       style="fill:#8cb5d7;fill-opacity:1;fill-rule:nonzero;stroke:none;stroke-width:0.35277778" />
    <path
       inkscape:connector-curvature="0"
       id="path3600"
       d="m -13.704955,131.91664 h -9.719312 v -7.46756 h 0.567761 v 7.46756 h 9.151551 v -7.46756 7.46756"
       style="fill:#8cb5d7;fill-opacity:1;fill-rule:nonzero;stroke:none;stroke-width:0.35277778" />
    <path
       inkscape:connector-curvature="0"
       id="path3602"
       d="m -3.9760137,131.91664 h -9.7289413 v -7.46756 h 0.567725 v 7.46756 h 9.1612163 v -7.46756 7.46756"
       style="fill:#8cb5d7;fill-opacity:1;fill-rule:nonzero;stroke:none;stroke-width:0.35277778" />
    <path
       inkscape:connector-curvature="0"
       id="path3604"
       d="M 6.3110577,131.91664 H -3.9760137 v -7.46756 h 0.5677584 v 7.46756 h 9.159807 v -9.16118 h -7.4676 v -0.55813 h 8.027106 v 9.71931"
       style="fill:#8cb5d7;fill-opacity:1;fill-rule:nonzero;stroke:none;stroke-width:0.35277778" />
    <path
       inkscape:connector-curvature="0"
       id="path3606"
       d="m -23.424267,141.64562 h -9.439555 v -9.72898 h 10.007316 -0.567761 v 9.72898 m -9.161214,-9.16122 v 9.16122 h 9.161214 v -9.16122 h -9.161214"
       style="fill:#8cb5d7;fill-opacity:1;fill-rule:nonzero;stroke:none;stroke-width:0.35277778" />
    <path
       inkscape:connector-curvature="0"
       id="path3608"
       d="m -13.704955,141.64562 h -9.719312 v -9.72898 h 10.287037 -0.567725 v 9.72898 m -9.151551,-9.16122 v 9.16122 h 9.151551 v -9.16122 h -9.151551"
       style="fill:#8cb5d7;fill-opacity:1;fill-rule:nonzero;stroke:none;stroke-width:0.35277778" />
    <path
       inkscape:connector-curvature="0"
       id="path3610"
       d="m -3.9760137,141.64562 h -9.7289413 v -9.72898 h 10.2966997 -0.5677584 v 9.72898 M -13.13723,132.4844 v 9.16122 h 9.1612163 V 132.4844 H -13.13723"
       style="fill:#8cb5d7;fill-opacity:1;fill-rule:nonzero;stroke:none;stroke-width:0.35277778" />
    <path
       inkscape:connector-curvature="0"
       id="path3612"
       d="M 6.3110577,141.64562 H -3.9760137 v -9.72898 H 6.3110577 v 9.72898 m -9.719313,-9.16122 v 9.16122 h 9.159807 v -9.16122 h -9.159807"
       style="fill:#8cb5d7;fill-opacity:1;fill-rule:nonzero;stroke:none;stroke-width:0.35277778" />
    <path
       inkscape:connector-curvature="0"
       id="path3614"
       d="m -23.424267,151.93266 h -9.439555 v -10.28704 h 10.007316 -0.567761 v 10.28704 m -9.161214,-9.72069 v 9.15292 h 9.161214 v -9.15292 h -9.161214"
       style="fill:#8cb5d7;fill-opacity:1;fill-rule:nonzero;stroke:none;stroke-width:0.35277778" />
    <path
       inkscape:connector-curvature="0"
       id="path3616"
       d="m -13.704955,151.93266 h -9.719312 v -10.28704 h 10.287037 -0.567725 v 10.28704 m -9.151551,-9.72069 v 9.15292 h 9.151551 v -9.15292 h -9.151551"
       style="fill:#8cb5d7;fill-opacity:1;fill-rule:nonzero;stroke:none;stroke-width:0.35277778" />
    <path
       inkscape:connector-curvature="0"
       id="path3618"
       d="m -3.9760137,151.93266 h -9.7289413 v -10.28704 h 10.2966997 -0.5677584 v 10.28704 m -9.1612163,-9.72069 v 9.15292 h 9.1612163 v -9.15292 H -13.13723"
       style="fill:#8cb5d7;fill-opacity:1;fill-rule:nonzero;stroke:none;stroke-width:0.35277778" />
    <path
       inkscape:connector-curvature="0"
       id="path3620"
       d="M 6.3110577,151.93266 H -3.9760137 V 141.64562 H 6.3110577 v 10.28704 m -9.719313,-9.72069 v 9.15292 h 9.159807 v -9.15292 h -9.159807"
       style="fill:#8cb5d7;fill-opacity:1;fill-rule:nonzero;stroke:none;stroke-width:0.35277778" />
    <path
       inkscape:connector-curvature="0"
       id="path3622"
       d="M -5.6696302,120.50375 H -13.13723 v -7.4676 h 7.4675998 v 7.4676 m -8.0353248,0 h -9.151551 v -7.4676 h 9.151551 v 7.4676 m -9.719312,0 h -9.161214 v -7.4676 h 9.161214 v 7.4676 m 17.7546368,-8.03536 H -13.13723 v -8.847 h 7.4675998 v 8.847 m -8.0353248,0 h -9.151551 v -8.847 h 9.151551 v 8.847 m -9.719312,0 h -9.161214 v -8.847 h 9.161214 v 8.847 m 17.7546368,-9.71931 H -13.13723 v -8.856625 h 7.4675998 v 8.856625 m -8.0353248,0 h -9.151551 v -8.856625 h 9.151551 v 8.856625 m -9.719312,0 h -9.161214 v -8.856625 h 9.161214 v 8.856625 M -5.6696302,93.334325 H -13.13723 v -9.16118 h 7.4675998 v 9.16118 m -8.0353248,0 h -9.151551 v -9.16118 h 9.151551 v 9.16118 m -9.719312,0 h -9.161214 v -9.16118 h 9.161214 v 9.16118 M -5.6696302,83.605384 H -13.13723 v -4.621917 l 4.4276432,-4.537887 h 3.0399566 v 9.159804 m -8.0353248,0 h -9.151551 V 74.44558 h 7.373866 l -0.643535,7.475855 0.0081,-0.0081 -0.0081,0.0081 v 0.135044 l 2.42122,-2.488743 v 4.037648 m -9.719312,0 h -9.161214 V 74.44558 h 9.161214 v 9.159804 m 17.7546368,-9.71931 h -2.4969972 l 2.4969972,-5.46114 v 5.46114 m -9.7620318,0 h -7.424844 v -9.16118 h 9.151551 v 2.760203 l -1.473131,3.225977 1.40561,0.635283 -1.395979,-0.635283 -0.263207,3.175 m -7.992605,0 h -9.161214 v -9.16118 h 9.161214 v 9.16118 M -13.13723,66.249 v -1.524106 h 0.702805 L -13.13723,66.249 m 0.956381,-2.090491 h -0.956381 v -7.4676 h 4.3780417 l -3.4216607,7.4676 m -1.524106,0 h -9.151551 v -7.4676 h 9.151551 v 7.4676 m -9.719312,0 h -9.161214 v -7.4676 h 9.161214 v 7.4676"
       style="fill:#68a1cf;fill-opacity:1;fill-rule:nonzero;stroke:none;stroke-width:0.35277778" />
    <path
       inkscape:connector-curvature="0"
       id="path3624"
       d="m -23.424267,64.158509 h -9.439555 v -7.4676 h 0.278341 v 7.4676 h 9.161214 v -7.4676 7.4676"
       style="fill:#8cb5d7;fill-opacity:1;fill-rule:nonzero;stroke:none;stroke-width:0.35277778" />
    <path
       inkscape:connector-curvature="0"
       id="path3626"
       d="m -13.704955,64.158509 h -9.719312 v -7.4676 h 0.567761 v 7.4676 h 9.151551 v -7.4676 7.4676"
       style="fill:#8cb5d7;fill-opacity:1;fill-rule:nonzero;stroke:none;stroke-width:0.35277778" />
    <path
       inkscape:connector-curvature="0"
       id="path3628"
       d="m -12.180849,64.158509 h -1.524106 v -7.4676 h 0.567725 v 7.4676 h 0.956381"
       style="fill:#8cb5d7;fill-opacity:1;fill-rule:nonzero;stroke:none;stroke-width:0.35277778" />
    <path
       inkscape:connector-curvature="0"
       id="path3630"
       d="m -23.424267,73.886074 h -9.439555 v -9.727565 h 10.007316 -0.567761 v 9.727565 m -9.161214,-9.16118 v 9.16118 h 9.161214 v -9.16118 h -9.161214"
       style="fill:#8cb5d7;fill-opacity:1;fill-rule:nonzero;stroke:none;stroke-width:0.35277778" />
    <path
       inkscape:connector-curvature="0"
       id="path3632"
       d="m -15.431662,73.886074 h -7.992605 v -9.727565 h 10.287037 -0.567725 v 3.326588 -2.760203 h -9.151551 v 9.16118 h 7.424844"
       style="fill:#8cb5d7;fill-opacity:1;fill-rule:nonzero;stroke:none;stroke-width:0.35277778" />
    <path
       inkscape:connector-curvature="0"
       id="path3634"
       d="m -13.704955,67.485097 v -3.326588 h 1.524106 l -0.253576,0.566385 H -13.13723 V 66.249 l -0.567725,1.236097"
       style="fill:#8cb5d7;fill-opacity:1;fill-rule:nonzero;stroke:none;stroke-width:0.35277778" />
    <path
       inkscape:connector-curvature="0"
       id="path3636"
       d="m -23.424267,83.605384 h -9.439555 v -9.71931 h 10.007316 -0.567761 v 9.71931 m -9.161214,-9.159804 v 9.159804 h 9.161214 V 74.44558 h -9.161214"
       style="fill:#8cb5d7;fill-opacity:1;fill-rule:nonzero;stroke:none;stroke-width:0.35277778" />
    <path
       inkscape:connector-curvature="0"
       id="path3638"
       d="m -13.704955,83.605384 h -9.719312 v -9.71931 h 7.992605 l -0.05098,0.559506 h -7.373867 v 9.159804 h 9.151552 v -4.037648 4.037648"
       style="fill:#8cb5d7;fill-opacity:1;fill-rule:nonzero;stroke:none;stroke-width:0.35277778" />
    <path
       inkscape:connector-curvature="0"
       id="path3640"
       d="m -5.6696302,83.605384 h -8.0353248 v -4.037648 l 0.567725,-0.584268 v 4.621916 h 7.4675998 m 0,-9.159804 h -3.0399566 l 0.5332941,-0.542962 0.00953,-0.01659 h 2.4969923 v 0.559505"
       style="fill:#8cb5d7;fill-opacity:1;fill-rule:nonzero;stroke:none;stroke-width:0.35277778" />
    <path
       inkscape:connector-curvature="0"
       id="path3642"
       d="m -23.424267,93.334325 h -9.439555 v -9.728941 h 10.007316 -0.567761 v 9.728941 m -9.161214,-9.16118 v 9.16118 h 9.161214 v -9.16118 h -9.161214"
       style="fill:#8cb5d7;fill-opacity:1;fill-rule:nonzero;stroke:none;stroke-width:0.35277778" />
    <path
       inkscape:connector-curvature="0"
       id="path3644"
       d="m -13.704955,93.334325 h -9.719312 v -9.728941 h 10.287037 -0.567725 v 9.728941 m -9.151551,-9.16118 v 9.16118 h 9.151551 v -9.16118 h -9.151551"
       style="fill:#8cb5d7;fill-opacity:1;fill-rule:nonzero;stroke:none;stroke-width:0.35277778" />
    <path
       inkscape:connector-curvature="0"
       id="path3646"
       d="m -5.6696302,93.334325 h -8.0353248 v -9.728941 h 8.0353248 v 0.567761 H -13.13723 v 9.16118 h 7.4675998"
       style="fill:#8cb5d7;fill-opacity:1;fill-rule:nonzero;stroke:none;stroke-width:0.35277778" />
    <path
       inkscape:connector-curvature="0"
       id="path3648"
       d="m -23.424267,103.62139 h -9.161214 v -0.3128 h 9.161214 v 0.3128 m 0,-0.87231 v -8.856625 h -9.161214 v 8.856625 h -0.278341 v -9.414755 h 10.007316 -0.567761 v 9.414755"
       style="fill:#8cb5d7;fill-opacity:1;fill-rule:nonzero;stroke:none;stroke-width:0.35277778" />
    <path
       inkscape:connector-curvature="0"
       id="path3650"
       d="m -13.704955,103.62139 h -9.151551 v -0.3128 h 9.151551 v 0.3128 m 0,-0.87231 v -8.856625 h -9.151551 v 8.856625 h -0.567761 v -9.414755 h 10.287037 -0.567725 v 9.414755"
       style="fill:#8cb5d7;fill-opacity:1;fill-rule:nonzero;stroke:none;stroke-width:0.35277778" />
    <path
       inkscape:connector-curvature="0"
       id="path3652"
       d="M -5.6696302,103.62139 H -13.13723 v -0.3128 h 7.4675998 v 0.3128 m -7.4675998,-0.87231 h -0.567725 v -9.414755 h 8.0353248 v 0.55813 H -13.13723 v 8.856625"
       style="fill:#8cb5d7;fill-opacity:1;fill-rule:nonzero;stroke:none;stroke-width:0.35277778" />
    <path
       inkscape:connector-curvature="0"
       id="path3654"
       d="m -23.424267,112.46839 h -9.439555 v -9.71931 h 10.007316 -0.567761 v 9.71931 m -9.161214,-8.847 v 8.847 h 9.161214 v -9.1598 h -9.161214 v 0.3128"
       style="fill:#8cb5d7;fill-opacity:1;fill-rule:nonzero;stroke:none;stroke-width:0.35277778" />
    <path
       inkscape:connector-curvature="0"
       id="path3656"
       d="m -13.704955,112.46839 h -9.719312 v -9.71931 h 10.287037 -0.567725 v 9.71931 m -9.151551,-8.847 v 8.847 h 9.151551 v -9.1598 h -9.151551 v 0.3128"
       style="fill:#8cb5d7;fill-opacity:1;fill-rule:nonzero;stroke:none;stroke-width:0.35277778" />
    <path
       inkscape:connector-curvature="0"
       id="path3658"
       d="m -5.6696302,112.46839 h -8.0353248 v -9.71931 h 8.0353248 v 0.55951 H -13.13723 v 9.1598 h 7.4675998"
       style="fill:#8cb5d7;fill-opacity:1;fill-rule:nonzero;stroke:none;stroke-width:0.35277778" />
    <path
       inkscape:connector-curvature="0"
       id="path3660"
       d="m -23.424267,120.50375 v -7.4676 h -9.161214 v 7.4676 h -0.278341 v -8.03536 h 10.007316 -0.567761 v 8.03536"
       style="fill:#8cb5d7;fill-opacity:1;fill-rule:nonzero;stroke:none;stroke-width:0.35277778" />
    <path
       inkscape:connector-curvature="0"
       id="path3662"
       d="m -13.704955,120.50375 v -7.4676 h -9.151551 v 7.4676 h -0.567761 v -8.03536 h 10.287037 -0.567725 v 8.03536"
       style="fill:#8cb5d7;fill-opacity:1;fill-rule:nonzero;stroke:none;stroke-width:0.35277778" />
    <path
       inkscape:connector-curvature="0"
       id="path3664"
       d="m -13.13723,120.50375 h -0.567725 v -8.03536 h 8.0353248 v 0.56776 H -13.13723 v 7.4676"
       style="fill:#8cb5d7;fill-opacity:1;fill-rule:nonzero;stroke:none;stroke-width:0.35277778" />
    <path
       inkscape:connector-curvature="0"
       id="path3666"
       d="M -6.9567037,52.735952 H -13.13723 v -7.457935 h 9.1612163 v 0.956347 l -2.98069,6.501588 m -6.7482513,0 h -9.151551 v -0.727605 l 1.583338,-0.737235 -1.583338,-3.412032 v -2.581063 h 9.151551 v 7.457935 m -9.719312,0 h -0.999067 l 0.999067,-0.465773 v 0.465773 m 0,-6.078538 -0.643535,-1.379397 h 0.643535 v 1.379397 m 20.1427657,-1.947156 h -0.126754 v -9.161182 h 4.31740199 l -4.19064799,9.161182 m -0.6945124,0 H -13.13723 v -9.161182 h 9.1612163 v 9.161182 m -9.7289413,0 h -9.151551 v -9.161182 h 9.151551 v 9.161182 m -9.719312,0 h -0.905367 l -4.267801,-9.161182 h 5.173168 v 9.161182 M 1.1709417,34.990945 h -4.579197 v -9.161179 h 8.771221 l -4.192024,9.161179 m -5.1469554,0 H -13.13723 v -9.161179 h 9.1612163 v 9.161179 m -9.7289413,0 h -9.151551 v -9.161179 h 9.151551 v 9.161179 m -9.719312,0 h -5.443254 l -3.71796,-7.976057 v -1.185122 h 9.161214 v 9.161179 M 5.6165077,25.262004 H -32.863822 v -7.67842 H 9.1387817 l -3.522274,7.67842"
       style="fill:#68a1cf;fill-opacity:1;fill-rule:nonzero;stroke:none;stroke-width:0.35277778" />
    <path
       inkscape:connector-curvature="0"
       id="path3668"
       d="m -23.424267,34.990945 h -5.443254 5.443254 v -9.161179 h -9.161214 v 1.185122 l -0.278341,-0.609106 v -1.143778 h 10.007316 -0.567761 v 9.728941"
       style="fill:#8cb5d7;fill-opacity:1;fill-rule:nonzero;stroke:none;stroke-width:0.35277778" />
    <path
       inkscape:connector-curvature="0"
       id="path3670"
       d="m -13.704955,34.990945 h -9.719312 v -9.728941 h 10.287037 -0.567725 v 9.728941 m -9.151551,-9.161179 v 9.161179 h 9.151551 v -9.161179 h -9.151551"
       style="fill:#8cb5d7;fill-opacity:1;fill-rule:nonzero;stroke:none;stroke-width:0.35277778" />
    <path
       inkscape:connector-curvature="0"
       id="path3672"
       d="m -3.9760137,34.990945 h -9.7289413 v -9.728941 h 10.2966997 -0.5677584 v 9.728941 M -13.13723,25.829766 v 9.161179 h 9.1612163 V 25.829766 H -13.13723"
       style="fill:#8cb5d7;fill-opacity:1;fill-rule:nonzero;stroke:none;stroke-width:0.35277778" />
    <path
       inkscape:connector-curvature="0"
       id="path3674"
       d="m 1.1709417,34.990945 h -5.1469554 v -9.728941 h 9.5925214 l -0.253542,0.567762 h -8.771221 v 9.161179 h 4.579197"
       style="fill:#8cb5d7;fill-opacity:1;fill-rule:nonzero;stroke:none;stroke-width:0.35277778" />
    <path
       inkscape:connector-curvature="0"
       id="path3676"
       d="m -23.424267,44.710258 h -0.905367 0.905367 v -9.161182 h -5.173168 l -0.270086,-0.558131 h 6.011015 -0.567761 v 9.719313"
       style="fill:#8cb5d7;fill-opacity:1;fill-rule:nonzero;stroke:none;stroke-width:0.35277778" />
    <path
       inkscape:connector-curvature="0"
       id="path3678"
       d="m -13.704955,44.710258 h -9.719312 v -9.719313 h 10.287037 -0.567725 v 9.719313 m -9.151551,-9.161182 v 9.161182 h 9.151551 v -9.161182 h -9.151551"
       style="fill:#8cb5d7;fill-opacity:1;fill-rule:nonzero;stroke:none;stroke-width:0.35277778" />
    <path
       inkscape:connector-curvature="0"
       id="path3680"
       d="m -3.9760137,44.710258 h -9.7289413 v -9.719313 h 10.2966997 -0.5677584 v 9.719313 M -13.13723,35.549076 v 9.161182 h 9.1612163 V 35.549076 H -13.13723"
       style="fill:#8cb5d7;fill-opacity:1;fill-rule:nonzero;stroke:none;stroke-width:0.35277778" />
    <path
       inkscape:connector-curvature="0"
       id="path3682"
       d="M -3.2815013,44.710258 H -3.9760137 V 34.990945 H 1.1709417 L 0.90914669,35.549076 H -3.4082553 v 9.161182 h 0.126754"
       style="fill:#8cb5d7;fill-opacity:1;fill-rule:nonzero;stroke:none;stroke-width:0.35277778" />
    <path
       inkscape:connector-curvature="0"
       id="path3684"
       d="m -23.424267,46.657414 v -1.379397 h -0.643535 l -0.261832,-0.567759 h 1.473128 -0.567761 v 1.947156"
       style="fill:#8cb5d7;fill-opacity:1;fill-rule:nonzero;stroke:none;stroke-width:0.35277778" />
    <path
       inkscape:connector-curvature="0"
       id="path3686"
       d="m -13.704955,52.735952 v -7.457935 h -9.151551 v 2.581063 l -0.567761,-1.201666 v -1.947156 h 10.287037 -0.567725 v 8.025694 m -9.151551,0 h -0.567761 v -0.465773 l 0.567761,-0.261832 v 0.727605"
       style="fill:#8cb5d7;fill-opacity:1;fill-rule:nonzero;stroke:none;stroke-width:0.35277778" />
    <path
       inkscape:connector-curvature="0"
       id="path3688"
       d="m -13.13723,52.735952 h -0.567725 v -8.025694 h 10.2966997 -0.5677584 v 1.524106 -0.956347 H -13.13723 v 7.457935"
       style="fill:#8cb5d7;fill-opacity:1;fill-rule:nonzero;stroke:none;stroke-width:0.35277778" />
    <path
       inkscape:connector-curvature="0"
       id="path3690"
       d="m -3.9760137,46.234364 v -1.524106 h 0.6945124 l -0.6945124,1.524106"
       style="fill:#8cb5d7;fill-opacity:1;fill-rule:nonzero;stroke:none;stroke-width:0.35277778" />
    <path
       inkscape:connector-curvature="0"
       id="path3692"
       d="m -25.134428,52.735952 h -7.451053 v -7.457935 h 3.971536 l 3.479517,7.457935 m -3.742724,-8.025694 h -3.708329 v -7.949885 l 3.708329,7.949885"
       style="fill:#68a1cf;fill-opacity:1;fill-rule:nonzero;stroke:none;stroke-width:0.35277778" />
    <path
       inkscape:connector-curvature="0"
       id="path3694"
       d="m -28.877152,44.710258 h -3.98667 v -8.552111 l 0.278341,0.602226 v 7.949885 h 3.708329"
       style="fill:#8cb5d7;fill-opacity:1;fill-rule:nonzero;stroke:none;stroke-width:0.35277778" />
    <path
       inkscape:connector-curvature="0"
       id="path3696"
       d="m -32.585481,52.735952 h -0.278341 v -8.025694 h 3.98667 l 0.263207,0.567759 h -3.971536 v 7.457935"
       style="fill:#8cb5d7;fill-opacity:1;fill-rule:nonzero;stroke:none;stroke-width:0.35277778" />
    <path
       inkscape:connector-curvature="0"
       id="path3698"
       d="m 4.3128877,128.85189 -2.625162,-1.51582 v 0.95635 H -65.900936 v 1.12723 H 1.6877257 v 0.95634 l 2.625162,-1.5241"
       style="fill:#ffffff;fill-opacity:1;fill-rule:nonzero;stroke:none;stroke-width:0.35277778" />
    <path
       inkscape:connector-curvature="0"
       id="path3700"
       d="m -69.161343,52.735952 -1.515851,2.63345 h 0.95772 v 67.581748 h 1.125855 V 55.369402 h 0.948092 l -1.515816,-2.63345"
       style="fill:#ffffff;fill-opacity:1;fill-rule:nonzero;stroke:none;stroke-width:0.35277778" />
    <path
       inkscape:connector-curvature="0"
       id="path3702"
       d="M -60.059428,120.50375 H -5.6696302 V 56.690909 H -60.059428 v 63.812841 m 58.3433797,3.94533 H -64.013009 V 52.735952 h 62.2969607 v 71.713128"
       style="fill:#ffffff;fill-opacity:1;fill-rule:nonzero;stroke:none;stroke-width:0.35277778" />
    <path
       inkscape:connector-curvature="0"
       id="path3704"
       d="m -50.59366,79.304529 h 10.109271 l 3.124023,-9.609066 -8.178657,-5.951749 -8.17866,5.951749 z m 12.123986,2.778125 h -14.138701 l -4.369752,-13.45378 11.439104,-8.315079 11.439102,8.315079 -4.369753,13.45378"
       style="fill:#ffffff;fill-opacity:1;fill-rule:nonzero;stroke:none;stroke-width:0.35277778" />
    <path
       inkscape:connector-curvature="0"
       id="path3706"
       d="m 19.603582,13.180741 c 0.406543,-0.888823 0.01659,-1.938902 -0.864024,-2.345407 L 14.947198,9.1072522 C 14.06663,8.7007464 13.016587,9.0906628 12.618336,9.9795646 l -0.457518,0.9742684 c -0.396875,0.888822 -0.0081,1.938901 0.872279,2.345406 l 3.793736,1.726706 c 0.88057,0.406506 1.930648,0.01659 2.327523,-0.872313 l 0.449226,-0.972891"
       style="fill:#e8e8e6;fill-opacity:1;fill-rule:nonzero;stroke:none;stroke-width:0.35277778" />
    <path
       inkscape:connector-curvature="0"
       id="path3708"
       d="m -8.1762927,73.902618 -7.9498823,8.153861 0.95772,-11.345405 6.9921623,3.191544"
       style="fill:#e6a13d;fill-opacity:1;fill-rule:nonzero;stroke:none;stroke-width:0.35277778" />
    <path
       inkscape:connector-curvature="0"
       id="path3710"
       d="m 12.356504,10.539035 6.993538,3.199802 -27.5263347,60.163781 -7.0017933,-3.191544 27.53459,-60.172039"
       style="fill:#336bbd;fill-opacity:1;fill-rule:nonzero;stroke:none;stroke-width:0.35277778" />
    <path
       inkscape:connector-curvature="0"
       id="path3712"
       d="m -16.126175,81.921435 0.643535,-7.475855 -0.63528,7.467566 -0.0081,0.0081 m 0.694512,-8.035362 0.263211,-3.175 -0.263211,3.175"
       style="fill:#5785ab;fill-opacity:1;fill-rule:nonzero;stroke:none;stroke-width:0.35277778" />
    <path
       inkscape:connector-curvature="0"
       id="path3714"
       d="m -15.48264,74.44558 0.05098,-0.559506 -0.05098,0.559506"
       style="fill:#7094b0;fill-opacity:1;fill-rule:nonzero;stroke:none;stroke-width:0.35277778" />
    <path
       inkscape:connector-curvature="0"
       id="path3716"
       d="m -13.704955,71.379446 -1.4635,-0.668372 1.395979,0.635283 0.06752,0.03316"
       style="fill:#5785ab;fill-opacity:1;fill-rule:nonzero;stroke:none;stroke-width:0.35277778" />
    <path
       inkscape:connector-curvature="0"
       id="path3718"
       d="m -13.374225,71.532412 -0.33073,-0.152966 0.33073,0.152966"
       style="fill:#7094b0;fill-opacity:1;fill-rule:nonzero;stroke:none;stroke-width:0.35277778" />
    <path
       inkscape:connector-curvature="0"
       id="path3720"
       d="m -16.11792,81.913146 0.63528,-7.467566 0.05098,-0.559506 0.263208,-3.175 1.4635,0.668372 0.330729,0.152966 -2.743695,10.380734"
       style="fill:#bd8538;fill-opacity:1;fill-rule:nonzero;stroke:none;stroke-width:0.35277778" />
    <path
       inkscape:connector-curvature="0"
       id="path3722"
       d="m -13.374225,71.532412 -0.33073,-0.152966 -0.06752,-0.03316 0.398251,0.186055"
       style="fill:#2b599e;fill-opacity:1;fill-rule:nonzero;stroke:none;stroke-width:0.35277778" />
    <path
       inkscape:connector-curvature="0"
       id="path3724"
       d="m -16.126175,82.056479 v -0.135044 l 0.0081,-0.0081 -0.0081,0.143335 m 6.1474348,-8.975184 -3.1584898,-1.438663 3.1584898,1.438663"
       style="fill:#476887;fill-opacity:1;fill-rule:nonzero;stroke:none;stroke-width:0.35277778" />
    <path
       inkscape:connector-curvature="0"
       id="path3726"
       d="m -13.13723,71.642653 -0.236995,-0.110241 0.236995,0.110241"
       style="fill:#59758a;fill-opacity:1;fill-rule:nonzero;stroke:none;stroke-width:0.35277778" />
    <path
       inkscape:connector-curvature="0"
       id="path3728"
       d="m -16.126175,82.056479 0.0081,-0.143333 2.743695,-10.380734 0.236997,0.110241 3.1584905,1.438664 -6.0619935,8.881465 -0.08544,0.0937"
       style="fill:#916833;fill-opacity:1;fill-rule:nonzero;stroke:none;stroke-width:0.35277778" />
    <path
       inkscape:connector-curvature="0"
       id="path3730"
       d="m -9.9787402,73.081317 -3.1584898,-1.438664 -0.236995,-0.110241 3.4037398,1.548905 h -0.00812"
       style="fill:#234a7d;fill-opacity:1;fill-rule:nonzero;stroke:none;stroke-width:0.35277778" />
    <path
       inkscape:connector-curvature="0"
       id="path3732"
       d="m -8.2355249,73.886074 -1.7432153,-0.804757 1.7432153,0.804757"
       style="fill:#3f5973;fill-opacity:1;fill-rule:nonzero;stroke:none;stroke-width:0.35277778" />
    <path
       inkscape:connector-curvature="0"
       id="path3734"
       d="m -16.040733,81.962782 6.0619928,-8.881465 1.7432153,0.804757 0.059232,0.01659 -7.8644411,8.060161"
       style="fill:#7d5930;fill-opacity:1;fill-rule:nonzero;stroke:none;stroke-width:0.35277778" />
    <path
       inkscape:connector-curvature="0"
       id="path3736"
       d="m -8.1762927,73.902618 -0.059232,-0.01659 -1.7432153,-0.804757 h 0.00812 l 1.7941925,0.821301"
       style="fill:#214268;fill-opacity:1;fill-rule:nonzero;stroke:none;stroke-width:0.35277778" />
    <path
       inkscape:connector-curvature="0"
       id="path3738"
       d="m 16.622892,12.494483 -2.472195,-1.13411 2.472195,1.13411"
       style="fill:#949191;fill-opacity:1;fill-rule:nonzero;stroke:none;stroke-width:0.35277778" />
    <path
       inkscape:connector-curvature="0"
       id="path3740"
       d="m -9.9704852,73.081317 -3.4037398,-1.548905 27.524922,-60.172039 2.472195,1.13411 0.931545,0.42305 -27.5249222,60.163784"
       style="fill:#234a7d;fill-opacity:1;fill-rule:nonzero;stroke:none;stroke-width:0.35277778" />
    <path
       inkscape:connector-curvature="0"
       id="path3742"
       d="M -8.1762927,73.902618 -9.9704852,73.081317 17.554437,12.917533 19.350042,13.738837 6.3110577,42.23806 l -0.559506,1.227844 -0.566386,1.244354 -0.263171,0.567759 -4.19064801,9.151551 -0.263173,0.567759 -2.18422199,4.783174 -3.9535819,8.644433 -2.5066625,5.477684"
       style="fill:#214268;fill-opacity:1;fill-rule:nonzero;stroke:none;stroke-width:0.35277778" />
    <path
       inkscape:connector-curvature="0"
       id="path3744"
       d="m 14.150697,11.360373 -1.794193,-0.821338 1.794193,0.821338"
       style="fill:#bdbaba;fill-opacity:1;fill-rule:nonzero;stroke:none;stroke-width:0.35277778" />
    <path
       inkscape:connector-curvature="0"
       id="path3746"
       d="m -13.374225,71.532412 -1.803861,-0.821338 27.53459,-60.172039 1.794193,0.821338 -27.524922,60.172039"
       style="fill:#2b599e;fill-opacity:1;fill-rule:nonzero;stroke:none;stroke-width:0.35277778" />
    <path
       inkscape:connector-curvature="0"
       id="path3748"
       d="M -13.374225,71.532412 14.150697,11.360373 -13.374225,71.532412"
       style="fill:#213f68;fill-opacity:1;fill-rule:nonzero;stroke:none;stroke-width:0.35277778" />
    <path
       inkscape:connector-curvature="0"
       id="path3750"
       d="m -15.913945,79.567736 -0.21223,2.488743 1.736336,-1.785938 z m 0,0"
       style="fill:#ffffff;fill-opacity:1;fill-rule:nonzero;stroke:none;stroke-width:0.35277778" />
    <path
       inkscape:connector-curvature="0"
       id="path3752"
       d="m -27.048492,35.549076 h -21.445046 v -1.794227 h 21.445046 v 1.794227"
       style="fill:#f3f3f3;fill-opacity:1;fill-rule:nonzero;stroke:none;stroke-width:0.35277778" />
    <path
       inkscape:connector-curvature="0"
       id="path3754"
       d="m -22.48443,54.311069 0.08541,0.177766 0.574638,0.474027 0.0081,-0.753782 -0.07581,-0.177763 -0.592527,0.279752"
       style="fill:#1e1c1c;fill-opacity:1;fill-rule:nonzero;stroke:none;stroke-width:0.35277778" />
    <path
       inkscape:connector-curvature="0"
       id="path3756"
       d="m -21.900161,54.040948 -0.584269,0.270121 -1.31191,-2.811216 0.584306,-0.270087 1.311873,2.811182"
       style="fill:#d1d1d1;fill-opacity:1;fill-rule:nonzero;stroke:none;stroke-width:0.35277778" />
    <path
       inkscape:connector-curvature="0"
       id="path3758"
       d="m -21.824385,51.983548 -2.276509,1.066588 -0.177765,-0.381706 2.276511,-1.058333 0.177763,0.373451"
       style="fill:#d1d1d1;fill-opacity:1;fill-rule:nonzero;stroke:none;stroke-width:0.35277778" />
    <path
       inkscape:connector-curvature="0"
       id="path3760"
       d="m -22.433456,52.888915 -0.584305,0.271463 -0.635246,-0.322438 1.372518,-0.643538 -0.152967,0.694513"
       style="fill:#d1d1d1;fill-opacity:1;fill-rule:nonzero;stroke:none;stroke-width:0.35277778" />
    <path
       inkscape:connector-curvature="0"
       id="path3762"
       d="m -21.273168,51.271112 -3.734471,1.744591 -15.019232,-32.215772 3.733093,-1.734963 15.02061,32.206144"
       style="fill:#1e5728;fill-opacity:1;fill-rule:nonzero;stroke:none;stroke-width:0.35277778" />
    <path
       inkscape:connector-curvature="0"
       id="path3764"
       d="m -50.534428,53.015703 -3.733096,-1.744591 15.019234,-32.206144 3.733128,1.734963 -15.019266,32.215772"
       style="fill:#8c8f91;fill-opacity:1;fill-rule:nonzero;stroke:none;stroke-width:0.35277778" />
    <path
       inkscape:connector-curvature="0"
       id="path3766"
       d="m -50.534428,53.015703 -3.733096,-1.744591 15.019234,-32.206144 3.733128,1.734963 -15.019266,32.215772"
       style="fill:#1e5728;fill-opacity:1;fill-rule:nonzero;stroke:none;stroke-width:0.35277778" />
    <path
       inkscape:connector-curvature="0"
       id="path3768"
       d="m -52.13431,52.261924 -0.533294,-0.245322 -1.066626,2.286178 0.01659,0.660082 0.516749,-0.414798 1.066623,-2.28614"
       style="fill:#1e1c1c;fill-opacity:1;fill-rule:nonzero;stroke:none;stroke-width:0.35277778" />
    <path
       inkscape:connector-curvature="0"
       id="path3770"
       d="m -36.191789,15.990581 h -3.158455 V 8.3286707 h 3.158455 v 7.6619103"
       style="fill:#e8e8e6;fill-opacity:1;fill-rule:nonzero;stroke:none;stroke-width:0.35277778" />
    <path
       inkscape:connector-curvature="0"
       id="path3772"
       d="m -35.938246,29.571114 -1.743218,-3.741348 1.743218,3.741348"
       style="fill:#68a1cf;fill-opacity:1;fill-rule:nonzero;stroke:none;stroke-width:0.35277778" />
    <path
       inkscape:connector-curvature="0"
       id="path3774"
       d="m -37.681464,25.829766 -0.08544,-0.186055 0.08544,0.186055"
       style="fill:#8cb5d7;fill-opacity:1;fill-rule:nonzero;stroke:none;stroke-width:0.35277778" />
    <path
       inkscape:connector-curvature="0"
       id="path3776"
       d="m -35.938246,29.571114 -1.743218,-3.741348 -0.08544,-0.186055 2.251744,-4.84378 -2.251744,-1.050078 1.473128,-0.684885 3.894352,8.339881 c -0.930172,1.032155 -2.149758,1.802482 -3.53882,2.166265"
       style="fill:#1e4f26;fill-opacity:1;fill-rule:nonzero;stroke:none;stroke-width:0.35277778" />
    <path
       inkscape:connector-curvature="0"
       id="path3778"
       d="m -37.766906,25.643711 -2.259965,-4.84378 2.259965,-1.050078 2.251744,1.050078 -2.251744,4.84378"
       style="fill:#1e4f26;fill-opacity:1;fill-rule:nonzero;stroke:none;stroke-width:0.35277778" />
    <path
       inkscape:connector-curvature="0"
       id="path3780"
       d="m -30.561138,21.426922 c 0,3.979794 -3.225977,7.204392 -7.205768,7.204392 -3.988012,0 -7.214023,-3.224598 -7.214023,-7.204392 0,-3.988046 3.226011,-7.214023 7.214023,-7.214023 3.979791,0 7.205768,3.225977 7.205768,7.214023"
       style="fill:#1e5728;fill-opacity:1;fill-rule:nonzero;stroke:none;stroke-width:0.35277778" />
    <path
       inkscape:connector-curvature="0"
       id="path3782"
       d="m -32.424228,21.426922 c 0,2.94626 -2.396418,5.342644 -5.342678,5.342644 -2.954515,0 -5.350899,-2.396384 -5.350899,-5.342644 0,-2.954515 2.396384,-5.350933 5.350899,-5.350933 2.94626,0 5.342678,2.396418 5.342678,5.350933"
       style="fill:#e8e8e6;fill-opacity:1;fill-rule:nonzero;stroke:none;stroke-width:0.35277778" />
    <path
       inkscape:connector-curvature="0"
       id="path3784"
       d="m -42.499066,21.951961 c 0,-2.954515 2.395008,-5.350933 5.350896,-5.350933 1.176867,0 2.260002,0.38033 3.14057,1.023903 -0.964637,-0.956382 -2.294433,-1.548942 -3.759306,-1.548942 -2.954515,0 -5.350899,2.396418 -5.350899,5.350933 0,1.777682 0.872278,3.352766 2.202111,4.325657 -0.974301,-0.972891 -1.583372,-2.310977 -1.583372,-3.800618"
       style="fill:#8c8f91;fill-opacity:1;fill-rule:nonzero;stroke:none;stroke-width:0.35277778" />
    <path
       inkscape:connector-curvature="0"
       id="path3786"
       d="m -35.362233,3.9258268 c 0,-0.7110598 -0.576013,-1.2870736 -1.287073,-1.2870736 h -2.243455 c -0.702805,0 -1.287074,0.5760138 -1.287074,1.2870736 v 6.0371938 c 0,0.7028024 0.584269,1.2871084 1.287074,1.2871084 h 2.243455 c 0.71106,0 1.287073,-0.584306 1.287073,-1.2871084 V 3.9258268"
       style="fill:#1e5728;fill-opacity:1;fill-rule:nonzero;stroke:none;stroke-width:0.35277778" />
    <path
       inkscape:connector-curvature="0"
       id="path3788"
       d="m -37.14817,34.651961 c 0,1.295366 -0.279718,2.361954 -0.618736,2.361954 -0.347239,0 -0.625615,-1.066588 -0.625615,-2.361954 0,-1.303618 0.278376,-2.361951 0.625615,-2.361951 0.339018,0 0.618736,1.058333 0.618736,2.361951"
       style="fill:#1e1c1c;fill-opacity:1;fill-rule:nonzero;stroke:none;stroke-width:0.35277778" />
    <path
       inkscape:connector-curvature="0"
       id="path3790"
       d="m -36.598329,21.426922 c 0,0.643538 -0.525005,1.168577 -1.168577,1.168577 -0.651793,0 -1.176832,-0.525039 -1.176832,-1.168577 0,-0.651793 0.525039,-1.176832 1.176832,-1.176832 0.643572,0 1.168577,0.525039 1.168577,1.176832"
       style="fill:#1e1c1c;fill-opacity:1;fill-rule:nonzero;stroke:none;stroke-width:0.35277778" />
    <path
       inkscape:connector-curvature="0"
       id="path3792"
       d="m -36.99658,175.57152 h -20.903461 v -10.17817 h 20.903461 v 10.17817"
       style="fill:#fdf8eb;fill-opacity:1;fill-rule:nonzero;stroke:none;stroke-width:0.35277778" />
    <path
       inkscape:connector-curvature="0"
       id="path3794"
       d="M -39.849105,175.87607 H -55.055771 V 165.0888 h 15.206666 v 10.78727"
       style="fill:#2b7394;fill-opacity:1;fill-rule:nonzero;stroke:none;stroke-width:0.35277778" />
    <path
       inkscape:connector-curvature="0"
       id="path3796"
       d="m -54.293699,171.68409 v -2.40331 h 1.777648 v 0.40513 h -1.295331 v 0.53471 h 1.203007 v 0.40513 h -1.203007 v 0.65321 h 1.338051 v 0.40513 h -1.820368"
       style="fill:#70cfd1;fill-opacity:1;fill-rule:nonzero;stroke:none;stroke-width:0.35277778" />
    <path
       inkscape:connector-curvature="0"
       id="path3798"
       d="m -51.576217,170.2964 h 0.355529 c 0.228777,0 0.381741,-0.008 0.440973,-0.0261 0.05101,-0.0247 0.101989,-0.0593 0.126788,-0.10061 0.04272,-0.051 0.05098,-0.11024 0.05098,-0.18602 0,-0.0772 -0.01659,-0.14471 -0.05923,-0.19568 -0.04272,-0.051 -0.110244,-0.0841 -0.186055,-0.0923 -0.03457,-0.01 -0.152963,-0.01 -0.347273,-0.01 h -0.381707 z m -0.482317,1.38769 v -2.40331 h 1.015611 c 0.254953,0 0.440974,0.0247 0.559507,0.0675 0.118499,0.0413 0.21082,0.1185 0.279717,0.22874 0.06752,0.10886 0.100614,0.23703 0.100614,0.38036 0,0.17777 -0.05098,0.32244 -0.159846,0.44923 -0.101986,0.11024 -0.263207,0.18602 -0.474062,0.21911 0.108866,0.0593 0.19431,0.12817 0.261832,0.20394 0.06752,0.0675 0.161218,0.20257 0.279752,0.39 l 0.288009,0.4644 h -0.576016 l -0.355531,-0.51538 c -0.118534,-0.19568 -0.203976,-0.31422 -0.253577,-0.3652 -0.04272,-0.0413 -0.0937,-0.0758 -0.144709,-0.0923 -0.05098,-0.0166 -0.135043,-0.0346 -0.236995,-0.0346 h -0.101989 v 1.00736 h -0.482317"
       style="fill:#70cfd1;fill-opacity:1;fill-rule:nonzero;stroke:none;stroke-width:0.35277778" />
    <path
       inkscape:connector-curvature="0"
       id="path3800"
       d="m -48.375039,170.73599 -0.330729,-0.89711 -0.321064,0.89711 z m 0.888857,0.9481 h -0.525039 l -0.21223,-0.54159 h -0.956344 l -0.19431,0.54159 h -0.51675 l 0.931545,-2.40331 h 0.51675 l 0.956378,2.40331"
       style="fill:#70cfd1;fill-opacity:1;fill-rule:nonzero;stroke:none;stroke-width:0.35277778" />
    <path
       inkscape:connector-curvature="0"
       id="path3802"
       d="m -47.351138,170.9055 0.474027,-0.051 c 0.02612,0.16126 0.08544,0.27975 0.169511,0.34728 0.08544,0.0772 0.203941,0.11024 0.355528,0.11024 0.152967,0 0.271463,-0.0247 0.347277,-0.0923 0.07578,-0.0689 0.118496,-0.14471 0.118496,-0.22878 0,-0.0592 -0.01659,-0.11024 -0.05097,-0.14467 -0.03316,-0.0427 -0.09232,-0.0841 -0.16951,-0.11025 -0.05927,-0.0166 -0.186021,-0.0593 -0.388586,-0.10061 -0.263208,-0.0689 -0.44097,-0.14467 -0.551214,-0.237 -0.143333,-0.13645 -0.21911,-0.29629 -0.21911,-0.49198 0,-0.1185 0.04131,-0.237 0.108866,-0.33898 0.0689,-0.10887 0.169476,-0.19431 0.29764,-0.24529 0.126788,-0.0593 0.286631,-0.0841 0.464397,-0.0841 0.305927,0 0.53467,0.0675 0.686257,0.19431 0.152964,0.13504 0.228778,0.3128 0.237033,0.53329 l -0.48232,0.018 c -0.01659,-0.11853 -0.06752,-0.20394 -0.135043,-0.26321 -0.0689,-0.0593 -0.169508,-0.0758 -0.305927,-0.0758 -0.143299,0 -0.253543,0.0247 -0.329354,0.0841 -0.05098,0.0346 -0.07578,0.0854 -0.07578,0.14471 0,0.0592 0.02468,0.11024 0.07578,0.15158 0.05098,0.051 0.202565,0.10196 0.439595,0.16123 0.228743,0.051 0.406543,0.11024 0.525039,0.1695 0.110244,0.0592 0.195686,0.1433 0.263208,0.24529 0.05927,0.10195 0.09232,0.22874 0.09232,0.38171 0,0.14333 -0.04135,0.27008 -0.110244,0.38862 -0.07578,0.11849 -0.18602,0.21219 -0.329353,0.27146 -0.136419,0.0593 -0.314185,0.0841 -0.51675,0.0841 -0.304551,0 -0.541583,-0.0675 -0.694547,-0.21086 -0.16951,-0.13642 -0.261831,-0.34724 -0.296264,-0.61044"
       style="fill:#70cfd1;fill-opacity:1;fill-rule:nonzero;stroke:none;stroke-width:0.35277778" />
    <path
       inkscape:connector-curvature="0"
       id="path3804"
       d="m -44.997474,171.68409 v -2.40331 h 1.777683 v 0.40513 h -1.295366 v 0.53471 h 1.203042 v 0.40513 h -1.203042 v 0.65321 h 1.338085 v 0.40513 h -1.820402"
       style="fill:#70cfd1;fill-opacity:1;fill-rule:nonzero;stroke:none;stroke-width:0.35277778" />
    <path
       inkscape:connector-curvature="0"
       id="path3806"
       d="m -42.279957,170.2964 h 0.355529 c 0.237032,0 0.381706,-0.008 0.440973,-0.0261 0.05927,-0.0247 0.101952,-0.0593 0.135043,-0.10061 0.03457,-0.051 0.05098,-0.11024 0.05098,-0.18602 0,-0.0772 -0.02468,-0.14471 -0.06752,-0.19568 -0.04272,-0.051 -0.101955,-0.0841 -0.186021,-0.0923 -0.03457,-0.01 -0.152963,-0.01 -0.347273,-0.01 h -0.381707 z m -0.482317,1.38769 v -2.40331 h 1.015611 c 0.263208,0 0.440973,0.0247 0.55947,0.0675 0.118533,0.0413 0.212233,0.1185 0.279754,0.22874 0.06752,0.10886 0.100611,0.23703 0.100611,0.38036 0,0.17777 -0.04964,0.32244 -0.151588,0.44923 -0.110244,0.11024 -0.271497,0.18602 -0.474062,0.21911 0.101986,0.0593 0.186055,0.12817 0.253577,0.20394 0.07578,0.0675 0.161218,0.20257 0.279717,0.39 l 0.288007,0.4644 h -0.576016 l -0.34724,-0.51538 c -0.126788,-0.19568 -0.21223,-0.31422 -0.253576,-0.3652 -0.05098,-0.0413 -0.101986,-0.0758 -0.144709,-0.0923 -0.05923,-0.0166 -0.135043,-0.0346 -0.245287,-0.0346 h -0.101952 v 1.00736 h -0.482317"
       style="fill:#70cfd1;fill-opacity:1;fill-rule:nonzero;stroke:none;stroke-width:0.35277778" />
    <path
       inkscape:connector-curvature="0"
       id="path3808"
       d="M 121.34692,353.53136 H 26.435901 V 232.58511 h 94.911019 v 120.94625"
       style="fill:#214757;fill-opacity:1;fill-rule:nonzero;stroke:none;stroke-width:0.35277778" />
    <path
       inkscape:connector-curvature="0"
       id="path3810"
       d="M 116.79249,347.72434 H 30.991709 V 238.39353 h 85.800781 v 109.33081"
       style="fill:#ffffff;fill-opacity:1;fill-rule:nonzero;stroke:none;stroke-width:0.35277778" />
    <path
       inkscape:connector-curvature="0"
       id="path3812"
       d="M 94.829315,243.27869 H 52.953501 v -10.69358 h 41.875814 v 10.69358"
       style="fill:#141e33;fill-opacity:1;fill-rule:nonzero;stroke:none;stroke-width:0.35277778" />
    <path
       inkscape:connector-curvature="0"
       id="path3814"
       d="M 89.766435,230.25759 H 58.008138 v 2.32752 h 31.758297 v -2.32752"
       style="fill:#141e33;fill-opacity:1;fill-rule:nonzero;stroke:none;stroke-width:0.35277778" />
    <path
       inkscape:connector-curvature="0"
       id="path3816"
       d="m 78.361759,230.25759 c 0,2.47222 -2.006423,4.47035 -4.470329,4.47035 -2.472232,0 -4.470365,-1.99813 -4.470365,-4.47035 0,-2.47221 1.998133,-4.47034 4.470365,-4.47034 2.463906,0 4.470329,1.99813 4.470329,4.47034"
       style="fill:#141e33;fill-opacity:1;fill-rule:nonzero;stroke:none;stroke-width:0.35277778" />
    <path
       inkscape:connector-curvature="0"
       id="path3818"
       d="M 109.81549,271.83713 H 37.967327 v -24.89287 h 71.848163 v 24.89287"
       style="fill:#e8e8e8;fill-opacity:1;fill-rule:nonzero;stroke:none;stroke-width:0.35277778" />
    <path
       inkscape:connector-curvature="0"
       id="path3820"
       d="M 109.81549,279.97307 H 37.967327 v -4.29255 h 71.848163 v 4.29255"
       style="fill:#bababd;fill-opacity:1;fill-rule:nonzero;stroke:none;stroke-width:0.35277778" />
    <path
       inkscape:connector-curvature="0"
       id="path3822"
       d="M 109.81549,289.91288 H 37.967327 v -4.2926 h 71.848163 v 4.2926"
       style="fill:#bababd;fill-opacity:1;fill-rule:nonzero;stroke:none;stroke-width:0.35277778" />
    <path
       inkscape:connector-curvature="0"
       id="path3824"
       d="M 68.092645,298.45673 H 37.967327 v -4.2926 h 30.125318 v 4.2926"
       style="fill:#bababd;fill-opacity:1;fill-rule:nonzero;stroke:none;stroke-width:0.35277778" />
    <path
       inkscape:connector-curvature="0"
       id="path3826"
       d="M 68.092645,305.28075 H 37.967327 v -4.30223 h 30.125318 v 4.30223"
       style="fill:#bababd;fill-opacity:1;fill-rule:nonzero;stroke:none;stroke-width:0.35277778" />
    <path
       inkscape:connector-curvature="0"
       id="path3828"
       d="M 109.81549,312.73044 H 37.967327 v -4.2926 h 71.848163 v 4.2926"
       style="fill:#bababd;fill-opacity:1;fill-rule:nonzero;stroke:none;stroke-width:0.35277778" />
    <path
       inkscape:connector-curvature="0"
       id="path3830"
       d="M 109.81549,322.00186 H 37.967327 v -4.30085 h 71.848163 v 4.30085"
       style="fill:#bababd;fill-opacity:1;fill-rule:nonzero;stroke:none;stroke-width:0.35277778" />
    <path
       inkscape:connector-curvature="0"
       id="path3832"
       d="M 109.81549,331.03627 H 37.967327 v -4.2926 h 71.848163 v 4.2926"
       style="fill:#bababd;fill-opacity:1;fill-rule:nonzero;stroke:none;stroke-width:0.35277778" />
    <path
       inkscape:connector-curvature="0"
       id="path3834"
       d="M 88.005295,339.16396 H 37.967327 v -4.2926 h 50.037968 v 4.2926"
       style="fill:#bababd;fill-opacity:1;fill-rule:nonzero;stroke:none;stroke-width:0.35277778" />
    <path
       inkscape:connector-curvature="0"
       id="path3836"
       d="m 72.223989,294.16413 h 37.591501 v 11.11662 H 72.223989 v -11.11662"
       style="fill:#f45e64;fill-opacity:1;fill-rule:nonzero;stroke:none;stroke-width:0.35277778" />
  </g>
</svg>
