<?xml version="1.0" encoding="UTF-8" standalone="no"?>
<!-- Created with Inkscape (http://www.inkscape.org/) -->

<svg
   xmlns:dc="http://purl.org/dc/elements/1.1/"
   xmlns:cc="http://creativecommons.org/ns#"
   xmlns:rdf="http://www.w3.org/1999/02/22-rdf-syntax-ns#"
   xmlns:svg="http://www.w3.org/2000/svg"
   xmlns="http://www.w3.org/2000/svg"
   xmlns:sodipodi="http://sodipodi.sourceforge.net/DTD/sodipodi-0.dtd"
   xmlns:inkscape="http://www.inkscape.org/namespaces/inkscape"
   width="388.84937mm"
   height="413.50381mm"
   viewBox="0 0 388.84937 413.50381"
   version="1.1"
   id="svg16585"
   inkscape:version="0.92.0 r15299"
   sodipodi:docname="research.svg">
  <defs
     id="defs16579">
    <clipPath
       id="clip9">
      <path
         inkscape:connector-curvature="0"
         d="m 6029,2697 h 53 v 58 h -53 z m 0,0"
         id="path26" />
    </clipPath>
    <clipPath
       id="clip10">
      <path
         inkscape:connector-curvature="0"
         d="m 6076.6797,2754.8945 -46.7031,-46.7031 7.3203,-7.3437 43.0312,43.0312 c 1.0078,1.0078 1.5117,2.3516 1.5117,3.6719 0,1.3203 -0.5039,2.664 -1.5117,3.6719 l -3.6484,3.6718 m -39.3828,-54.0468 -2.9297,-2.9258 2.9297,2.9258"
         id="path29" />
    </clipPath>
  </defs>
  <sodipodi:namedview
     id="base"
     pagecolor="#ffffff"
     bordercolor="#666666"
     borderopacity="1.0"
     inkscape:pageopacity="0.0"
     inkscape:pageshadow="2"
     inkscape:zoom="0.35"
     inkscape:cx="706.80986"
     inkscape:cy="716.94918"
     inkscape:document-units="mm"
     inkscape:current-layer="layer1"
     showgrid="false"
     inkscape:window-width="1920"
     inkscape:window-height="1001"
     inkscape:window-x="-9"
     inkscape:window-y="-9"
     inkscape:window-maximized="1" />
  <metadata
     id="metadata16582">
    <rdf:RDF>
      <cc:Work
         rdf:about="">
        <dc:format>image/svg+xml</dc:format>
        <dc:type
           rdf:resource="http://purl.org/dc/dcmitype/StillImage" />
        <dc:title></dc:title>
      </cc:Work>
    </rdf:RDF>
  </metadata>
  <g
     inkscape:label="Layer 1"
     inkscape:groupmode="layer"
     id="layer1"
     transform="translate(128.65684,189.45428)">
    <path
       inkscape:connector-curvature="0"
       id="path5102"
       d="m 253.44425,36.377239 c 0,103.649161 -84.03137,187.672281 -187.680525,187.672281 -103.649145,0 -187.672275,-84.02312 -187.672275,-187.672281 0,-103.65741 84.02313,-187.680539 187.672275,-187.680539 103.649155,0 187.680525,84.023129 187.680525,187.680539"
       style="fill:#f45e64;fill-opacity:1;fill-rule:nonzero;stroke:none;stroke-width:0.35277778" />
    <path
       inkscape:connector-curvature="0"
       id="path5132"
       d="m -79.338186,-87.125291 c -5.21589,0 -9.449226,-4.233338 -9.449226,-9.449228 0,-5.215851 4.233336,-9.449191 9.449226,-9.449191 5.215853,0 9.449186,4.23334 9.449186,9.449191 0,5.21589 -4.233333,9.449228 -9.449186,9.449228 z m 0,-21.099149 c -6.434069,0 -11.641669,5.22414 -11.641669,11.649921 0,6.434066 5.2076,11.649958 11.641669,11.649958 6.435442,0 11.641667,-5.215892 11.641667,-11.649958 0,-6.425781 -5.206225,-11.649921 -11.641667,-11.649921"
       style="fill:#111c21;fill-opacity:1;fill-rule:nonzero;stroke:none;stroke-width:0.35277778" />
    <path
       inkscape:connector-curvature="0"
       id="path5134"
       d="m -77.534328,-82.791391 h -3.598087 v -11.065646 h 3.598087 v 11.065646"
       style="fill:#111c21;fill-opacity:1;fill-rule:nonzero;stroke:none;stroke-width:0.35277778" />
    <path
       inkscape:connector-curvature="0"
       id="path5136"
       d="m -47.723229,-56.713381 c 0,17.45838 -14.156584,31.61358 -31.614957,31.61358 -17.458375,0 -31.614964,-14.1552 -31.614964,-31.61358 0,-17.45837 14.156589,-31.61496 31.614964,-31.61496 17.458373,0 31.614957,14.15659 31.614957,31.61496"
       style="fill:#112638;fill-opacity:1;fill-rule:nonzero;stroke:none;stroke-width:0.35277778" />
    <path
       inkscape:connector-curvature="0"
       id="path5138"
       d="m -59.822413,-77.093181 c 4.021103,4.87688 6.434066,11.12489 6.434066,17.94066 0,15.57874 -12.631103,28.21122 -28.209841,28.21122 -7.577807,0 -14.452846,-2.98069 -19.515772,-7.83968 5.173167,6.28248 13.004553,10.28707 21.775774,10.28707 15.578701,0 28.219472,-12.64073 28.219472,-28.21947 0,-8.00915 -3.344511,-15.23972 -8.703699,-20.3798"
       style="fill:#e17017;fill-opacity:1;fill-rule:nonzero;stroke:none;stroke-width:0.35277778" />
    <path
       inkscape:connector-curvature="0"
       id="path5140"
       d="m -53.388347,-59.152521 c 0,-6.81577 -2.412963,-13.06378 -6.434066,-17.94066 -5.071182,-4.85069 -11.946221,-7.83138 -19.515773,-7.83138 -15.578738,0 -28.211214,12.63248 -28.211214,28.21118 0,6.81577 2.41296,13.06382 6.43544,17.9324 5.062926,4.85899 11.937965,7.83968 19.515772,7.83968 15.578738,0 28.209841,-12.63248 28.209841,-28.21122"
       style="fill:#f8a62b;fill-opacity:1;fill-rule:nonzero;stroke:none;stroke-width:0.35277778" />
    <path
       inkscape:connector-curvature="0"
       id="path5142"
       d="m -75.985423,-102.13765 h -6.697274 v 8.280613 h 6.697274 v -8.280613"
       style="fill:#112638;fill-opacity:1;fill-rule:nonzero;stroke:none;stroke-width:0.35277778" />
    <path
       inkscape:connector-curvature="0"
       id="path5144"
       d="m -77.068556,-56.891141 c 0,1.25264 -1.016987,2.26825 -2.26963,2.26825 -1.252643,0 -2.260002,-1.01561 -2.260002,-2.26825 0,-1.24436 1.007359,-2.26138 2.260002,-2.26138 1.252643,0 2.26963,1.01702 2.26963,2.26138"
       style="fill:#172e35;fill-opacity:1;fill-rule:nonzero;stroke:none;stroke-width:0.35277778" />
    <path
       inkscape:connector-curvature="0"
       id="path5146"
       d="m -80.404811,-76.398661 v -6.39273 h 2.133213 v 6.39273 h -2.133213"
       style="fill:#172e35;fill-opacity:1;fill-rule:nonzero;stroke:none;stroke-width:0.35277778" />
    <path
       inkscape:connector-curvature="0"
       id="path5148"
       d="m -80.404811,-30.898581 v -6.39272 h 2.133213 v 6.39272 h -2.133213"
       style="fill:#172e35;fill-opacity:1;fill-rule:nonzero;stroke:none;stroke-width:0.35277778" />
    <path
       inkscape:connector-curvature="0"
       id="path5150"
       d="m -86.153961,-50.829151 0.813049,0.81305 20.929637,-20.92139 -0.821304,-0.8213 -20.921382,20.92964"
       style="fill:#f03a4c;fill-opacity:1;fill-rule:nonzero;stroke:none;stroke-width:0.35277778" />
    <path
       inkscape:connector-curvature="0"
       id="path5152"
       d="m -77.670782,-56.891141 c 0,0.92191 -0.744114,1.66744 -1.667404,1.66744 -0.92329,0 -1.667441,-0.74553 -1.667441,-1.66744 0,-0.915 0.744151,-1.65915 1.667441,-1.65915 0.92329,0 1.667404,0.74415 1.667404,1.65915"
       style="fill:#f3f5f5;fill-opacity:1;fill-rule:nonzero;stroke:none;stroke-width:0.35277778" />
    <path
       inkscape:connector-curvature="0"
       id="path5154"
       d="m -98.896681,-55.824551 h -6.399599 v -2.13318 h 6.399599 v 2.13318"
       style="fill:#172e35;fill-opacity:1;fill-rule:nonzero;stroke:none;stroke-width:0.35277778" />
    <path
       inkscape:connector-curvature="0"
       id="path5156"
       d="m -53.041071,-55.646791 h -6.401012 v -2.13318 h 6.401012 v 2.13318"
       style="fill:#172e35;fill-opacity:1;fill-rule:nonzero;stroke:none;stroke-width:0.35277778" />
    <path
       inkscape:connector-curvature="0"
       id="path5158"
       d="m 42.514825,149.88213 c 0,1.68394 -1.18646,3.05511 -2.63341,3.05511 h -68.30936 c -1.440034,0 -2.625156,-1.37117 -2.625156,-3.05511 V 94.738539 c 0,-1.67706 1.185122,-3.04821 2.625156,-3.04821 h 68.30936 c 1.44695,0 2.63341,1.37115 2.63341,3.04821 v 55.143591"
       style="fill:#112638;fill-opacity:1;fill-rule:nonzero;stroke:none;stroke-width:0.35277778" />
    <path
       inkscape:connector-curvature="0"
       id="path5160"
       d="M 39.881415,152.93724 H 5.7349846 V 91.690329 H 39.881415 c 1.44695,0 2.63341,1.37115 2.63341,3.04821 v 55.143591 c 0,1.68394 -1.18646,3.05511 -2.63341,3.05511"
       style="fill:#112333;fill-opacity:1;fill-rule:nonzero;stroke:none;stroke-width:0.35277778" />
    <path
       inkscape:connector-curvature="0"
       id="path5162"
       d="M 5.7349846,95.635659 H -27.725135 v 53.347971 h 66.912 V 95.635659 H 5.7349846"
       style="fill:#ffffff;fill-opacity:1;fill-rule:nonzero;stroke:none;stroke-width:0.35277778" />
    <path
       inkscape:connector-curvature="0"
       id="path5164"
       d="M 3.8553546,102.01871 H -10.258505 v -1.09138 H 3.8553546 v 1.09138"
       style="fill:#bababa;fill-opacity:1;fill-rule:nonzero;stroke:none;stroke-width:0.35277778" />
    <path
       inkscape:connector-curvature="0"
       id="path5166"
       d="M 3.8553546,106.70131 H -10.258505 v -1.08313 H 3.8553546 v 1.08313"
       style="fill:#bababa;fill-opacity:1;fill-rule:nonzero;stroke:none;stroke-width:0.35277778" />
    <path
       inkscape:connector-curvature="0"
       id="path5168"
       d="M 3.8553546,111.38388 H -25.939195 v -1.08453 H 3.8553546 v 1.08453"
       style="fill:#bababa;fill-opacity:1;fill-rule:nonzero;stroke:none;stroke-width:0.35277778" />
    <path
       inkscape:connector-curvature="0"
       id="path5170"
       d="M 3.8553546,116.06504 H -25.939195 v -1.08312 H 3.8553546 v 1.08312"
       style="fill:#bababa;fill-opacity:1;fill-rule:nonzero;stroke:none;stroke-width:0.35277778" />
    <path
       inkscape:connector-curvature="0"
       id="path5172"
       d="M 3.8553546,120.74764 H -25.939195 v -1.08313 H 3.8553546 v 1.08313"
       style="fill:#bababa;fill-opacity:1;fill-rule:nonzero;stroke:none;stroke-width:0.35277778" />
    <path
       inkscape:connector-curvature="0"
       id="path5174"
       d="M 3.8553546,125.43846 H -25.939195 v -1.09275 H 3.8553546 v 1.09275"
       style="fill:#bababa;fill-opacity:1;fill-rule:nonzero;stroke:none;stroke-width:0.35277778" />
    <path
       inkscape:connector-curvature="0"
       id="path5176"
       d="M 3.8553546,130.11968 H -25.939195 v -1.08312 H 3.8553546 v 1.08312"
       style="fill:#bababa;fill-opacity:1;fill-rule:nonzero;stroke:none;stroke-width:0.35277778" />
    <path
       inkscape:connector-curvature="0"
       id="path5178"
       d="M 3.8553546,134.80225 H -25.939195 V 133.7191 H 3.8553546 v 1.08315"
       style="fill:#bababa;fill-opacity:1;fill-rule:nonzero;stroke:none;stroke-width:0.35277778" />
    <path
       inkscape:connector-curvature="0"
       id="path5180"
       d="M 3.8553546,139.48485 H -25.939195 v -1.08456 H 3.8553546 v 1.08456"
       style="fill:#bababa;fill-opacity:1;fill-rule:nonzero;stroke:none;stroke-width:0.35277778" />
    <path
       inkscape:connector-curvature="0"
       id="path5182"
       d="M 3.8553546,144.16602 H -25.939195 v -1.08313 H 3.8553546 v 1.08313"
       style="fill:#bababa;fill-opacity:1;fill-rule:nonzero;stroke:none;stroke-width:0.35277778" />
    <path
       inkscape:connector-curvature="0"
       id="path5184"
       d="m -11.825335,108.53823 h -14.11386 v -7.6109 h 14.11386 v 7.6109"
       style="fill:#bababa;fill-opacity:1;fill-rule:nonzero;stroke:none;stroke-width:0.35277778" />
    <path
       inkscape:connector-curvature="0"
       id="path5186"
       d="m 37.358235,102.01871 h -14.12215 v -1.09138 h 14.12215 v 1.09138"
       style="fill:#bababa;fill-opacity:1;fill-rule:nonzero;stroke:none;stroke-width:0.35277778" />
    <path
       inkscape:connector-curvature="0"
       id="path5188"
       d="m 37.358235,106.70131 h -14.12215 v -1.08313 h 14.12215 v 1.08313"
       style="fill:#bababa;fill-opacity:1;fill-rule:nonzero;stroke:none;stroke-width:0.35277778" />
    <path
       inkscape:connector-curvature="0"
       id="path5190"
       d="M 37.358235,111.38388 H 7.5553946 v -1.09281 H 37.358235 v 1.09281"
       style="fill:#bababa;fill-opacity:1;fill-rule:nonzero;stroke:none;stroke-width:0.35277778" />
    <path
       inkscape:connector-curvature="0"
       id="path5192"
       d="M 37.358235,116.06504 H 7.5553946 v -1.08312 H 37.358235 v 1.08312"
       style="fill:#bababa;fill-opacity:1;fill-rule:nonzero;stroke:none;stroke-width:0.35277778" />
    <path
       inkscape:connector-curvature="0"
       id="path5194"
       d="M 37.358235,120.74764 H 7.5553946 v -1.08313 H 37.358235 v 1.08313"
       style="fill:#bababa;fill-opacity:1;fill-rule:nonzero;stroke:none;stroke-width:0.35277778" />
    <path
       inkscape:connector-curvature="0"
       id="path5196"
       d="M 37.358235,125.43021 H 7.5553946 v -1.0845 H 37.358235 v 1.0845"
       style="fill:#bababa;fill-opacity:1;fill-rule:nonzero;stroke:none;stroke-width:0.35277778" />
    <path
       inkscape:connector-curvature="0"
       id="path5198"
       d="M 37.358235,130.11968 H 7.5553946 v -1.09143 H 37.358235 v 1.09143"
       style="fill:#bababa;fill-opacity:1;fill-rule:nonzero;stroke:none;stroke-width:0.35277778" />
    <path
       inkscape:connector-curvature="0"
       id="path5200"
       d="M 37.358235,134.80225 H 7.5553946 V 133.7191 H 37.358235 v 1.08315"
       style="fill:#bababa;fill-opacity:1;fill-rule:nonzero;stroke:none;stroke-width:0.35277778" />
    <path
       inkscape:connector-curvature="0"
       id="path5202"
       d="M 37.358235,139.48485 H 7.5553946 v -1.08456 H 37.358235 v 1.08456"
       style="fill:#bababa;fill-opacity:1;fill-rule:nonzero;stroke:none;stroke-width:0.35277778" />
    <path
       inkscape:connector-curvature="0"
       id="path5204"
       d="M 37.358235,144.16602 H 7.5553946 v -1.08313 H 37.358235 v 1.08313"
       style="fill:#bababa;fill-opacity:1;fill-rule:nonzero;stroke:none;stroke-width:0.35277778" />
    <path
       inkscape:connector-curvature="0"
       id="path5206"
       d="M 21.677515,108.52997 H 7.5553946 v -7.60264 H 21.677515 v 7.60264"
       style="fill:#bababa;fill-opacity:1;fill-rule:nonzero;stroke:none;stroke-width:0.35277778" />
    <path
       inkscape:connector-curvature="0"
       id="path5208"
       d="M 22.456125,85.779929 5.7349846,95.635659 V 148.98363 L 22.456125,143.08289 V 85.779929"
       style="fill:#d1d1d1;fill-opacity:1;fill-rule:nonzero;stroke:none;stroke-width:0.35277778" />
    <path
       inkscape:connector-curvature="0"
       id="path5210"
       d="m 144.92651,180.28577 h 68.71176 V 85.440899 h -68.71176 z m 0,0"
       style="fill:#ffffff;fill-opacity:1;fill-rule:nonzero;stroke:none;stroke-width:0.35277778" />
    <path
       inkscape:connector-curvature="0"
       id="path5212"
       d="m 209.04524,93.476269 h -35.17855 v -2.25171 h 35.17855 v 2.25171"
       style="fill:#e8e8e6;fill-opacity:1;fill-rule:nonzero;stroke:none;stroke-width:0.35277778" />
    <path
       inkscape:connector-curvature="0"
       id="path5214"
       d="m 209.04524,102.48448 h -35.17855 v -2.25996 h 35.17855 v 2.25996"
       style="fill:#e8e8e6;fill-opacity:1;fill-rule:nonzero;stroke:none;stroke-width:0.35277778" />
    <path
       inkscape:connector-curvature="0"
       id="path5216"
       d="m 181.3839,111.48447 h -31.86854 v -2.25174 h 31.86854 v 2.25174"
       style="fill:#e8e8e6;fill-opacity:1;fill-rule:nonzero;stroke:none;stroke-width:0.35277778" />
    <path
       inkscape:connector-curvature="0"
       id="path5218"
       d="m 177.62459,120.48581 h -28.10923 v -2.25309 h 28.10923 v 2.25309"
       style="fill:#e8e8e6;fill-opacity:1;fill-rule:nonzero;stroke:none;stroke-width:0.35277778" />
    <path
       inkscape:connector-curvature="0"
       id="path5220"
       d="m 178.07385,129.49402 h -28.55849 v -2.26134 h 28.55849 v 2.26134"
       style="fill:#e8e8e6;fill-opacity:1;fill-rule:nonzero;stroke:none;stroke-width:0.35277778" />
    <path
       inkscape:connector-curvature="0"
       id="path5222"
       d="m 184.49963,138.49404 h -34.98427 v -2.25177 h 34.98427 v 2.25177"
       style="fill:#e8e8e6;fill-opacity:1;fill-rule:nonzero;stroke:none;stroke-width:0.35277778" />
    <path
       inkscape:connector-curvature="0"
       id="path5224"
       d="m 209.04524,147.494 h -59.52988 v -2.25171 h 59.52988 v 2.25171"
       style="fill:#e8e8e6;fill-opacity:1;fill-rule:nonzero;stroke:none;stroke-width:0.35277778" />
    <path
       inkscape:connector-curvature="0"
       id="path5226"
       d="m 209.04524,156.50221 h -59.52988 v -2.25996 h 59.52988 v 2.25996"
       style="fill:#e8e8e6;fill-opacity:1;fill-rule:nonzero;stroke:none;stroke-width:0.35277778" />
    <path
       inkscape:connector-curvature="0"
       id="path5228"
       d="m 209.04524,165.5022 h -59.52988 v -2.25174 h 59.52988 v 2.25174"
       style="fill:#e8e8e6;fill-opacity:1;fill-rule:nonzero;stroke:none;stroke-width:0.35277778" />
    <path
       inkscape:connector-curvature="0"
       id="path5230"
       d="m 209.04524,174.51042 h -59.52988 v -2.25997 h 59.52988 v 2.25997"
       style="fill:#e8e8e6;fill-opacity:1;fill-rule:nonzero;stroke:none;stroke-width:0.35277778" />
    <path
       inkscape:connector-curvature="0"
       id="path5232"
       d="M 172.35909,104.60115 H 149.51536 V 91.224559 h 22.84373 v 13.376591"
       style="fill:#f45e64;fill-opacity:1;fill-rule:nonzero;stroke:none;stroke-width:0.35277778" />
    <path
       inkscape:connector-curvature="0"
       id="path5234"
       d="m 212.26297,122.74577 c 0,9.4823 -7.6798,17.16212 -17.16209,17.16212 -9.47402,0 -17.1621,-7.67982 -17.1621,-17.16212 0,-9.47399 7.68808,-17.16206 17.1621,-17.16206 9.48229,0 17.16209,7.68807 17.16209,17.16206"
       style="fill:#bababa;fill-opacity:1;fill-rule:nonzero;stroke:none;stroke-width:0.35277778" />
    <path
       inkscape:connector-curvature="0"
       id="path5236"
       d="m 217.64695,141.61802 -3.67382,3.67385 -6.90123,-6.89983 3.67522,-3.67387 6.89983,6.89985"
       style="fill:#23617d;fill-opacity:1;fill-rule:nonzero;stroke:none;stroke-width:0.35277778" />
    <path
       inkscape:connector-curvature="0"
       id="path5238"
       d="m 235.21557,157.68733 c 0.71104,0.71105 0.71104,1.87963 0,2.59073 l -2.58244,2.58243 c -0.71106,0.71107 -1.87965,0.71107 -2.59069,0 L 213.8284,146.64786 c -0.71104,-0.71244 -0.71104,-1.87965 0,-2.59207 l 2.58244,-2.58106 c 0.7111,-0.71247 1.87968,-0.71247 2.59075,0 l 16.21398,16.2126"
       style="fill:#2b6e99;fill-opacity:1;fill-rule:nonzero;stroke:none;stroke-width:0.35277778" />
    <path
       inkscape:connector-curvature="0"
       id="path5240"
       d="m 206.52207,134.16696 c -6.30727,6.30865 -16.53509,6.30865 -22.8341,0 -6.30867,-6.30727 -6.30867,-16.5268 0,-22.83407 6.29901,-6.30727 16.52683,-6.30727 22.8341,0 6.30727,6.30727 6.30727,16.5268 0,22.83407 z m -25.85752,-25.85749 c -7.96642,7.97608 -7.96642,20.90484 0,28.87266 7.9761,7.9747 20.90483,7.9747 28.87956,0 7.9678,-7.96782 7.9678,-20.89658 0,-28.87266 -7.97473,-7.9747 -20.90346,-7.9747 -28.87956,0"
       style="fill:#2b6e99;fill-opacity:1;fill-rule:nonzero;stroke:none;stroke-width:0.35277778" />
    <path
       inkscape:connector-curvature="0"
       id="path5242"
       d="m 220.0351,142.50687 -5.17316,5.17313 -2.32888,-2.32886 5.17316,-5.17316 2.32888,2.32889"
       style="fill:#f8b014;fill-opacity:1;fill-rule:nonzero;stroke:none;stroke-width:0.35277778" />
    <g
       transform="matrix(0.3527778,0,0,0.3527778,-1909.7892,-810.29222)"
       style="clip-rule:nonzero"
       id="g5248"
       clip-path="url(#clip9)">
      <g
         style="clip-rule:nonzero"
         id="g5246"
         clip-path="url(#clip10)">
        <path
           inkscape:connector-curvature="0"
           id="path5244"
           d="m 6029.9766,2754.8945 h 51.8789 v -56.9687 h -51.8789 z m 0,0"
           style="fill:#266187;fill-opacity:1;fill-rule:nonzero;stroke:none" />
      </g>
    </g>
    <path
       inkscape:connector-curvature="0"
       id="path5250"
       d="m 217.45267,145.09756 -2.33715,-2.33714 1.29532,-1.28569 1.29538,-1.29675 1.28706,1.29675 h 0.008 l 1.03354,1.03214 -2.58243,2.59069"
       style="fill:#de9e11;fill-opacity:1;fill-rule:nonzero;stroke:none;stroke-width:0.35277778" />
    <path
       inkscape:connector-curvature="0"
       id="path5252"
       d="m 193.05999,113.69485 c 0,1.56681 -1.2609,2.82771 -2.82771,2.82771 -1.56684,0 -2.83602,-1.2609 -2.83602,-2.82771 0,-1.56683 1.26918,-2.83601 2.83602,-2.83601 1.56681,0 2.82771,1.26918 2.82771,2.83601"
       style="fill:#ffffff;fill-opacity:1;fill-rule:nonzero;stroke:none;stroke-width:0.35277778" />
    <path
       inkscape:connector-curvature="0"
       id="path5254"
       d="m -53.159604,61.328009 h 5.436375 v -77.92392 h -5.436375 z m 0,0"
       style="fill:#14171e;fill-opacity:1;fill-rule:nonzero;stroke:none;stroke-width:0.35277778" />
    <path
       inkscape:connector-curvature="0"
       id="path5256"
       d="m -50.440746,61.328009 h 2.716141 v -77.92392 h -2.716141 z m 0,0"
       style="fill:#14171e;fill-opacity:1;fill-rule:nonzero;stroke:none;stroke-width:0.35277778" />
    <path
       inkscape:connector-curvature="0"
       id="path5258"
       d="m -47.723229,61.328009 -2.717517,6.84195 -2.718858,-6.84195 h 5.436375"
       style="fill:#eb9714;fill-opacity:1;fill-rule:nonzero;stroke:none;stroke-width:0.35277778" />
    <path
       inkscape:connector-curvature="0"
       id="path5260"
       d="m -50.440746,68.169959 0.81167,-2.04915 h -1.624682 l 0.813012,2.04915"
       style="fill:#1e1c1c;fill-opacity:1;fill-rule:nonzero;stroke:none;stroke-width:0.35277778" />
    <path
       inkscape:connector-curvature="0"
       id="path5262"
       d="m -49.629076,66.120809 h -0.81167 v -4.7928 h 2.717517 l -1.905847,4.7928"
       style="fill:#d48a17;fill-opacity:1;fill-rule:nonzero;stroke:none;stroke-width:0.35277778" />
    <path
       inkscape:connector-curvature="0"
       id="path5264"
       d="m -50.440746,68.169959 v -2.04915 h 0.81167 l -0.81167,2.04915"
       style="fill:#1e1c1c;fill-opacity:1;fill-rule:nonzero;stroke:none;stroke-width:0.35277778" />
    <path
       inkscape:connector-curvature="0"
       id="path5266"
       d="m -63.734648,-16.598701 h -61.907002 c -0.83097,0 -1.58337,0.33902 -2.13459,0.88886 -0.4065,0.40651 -0.7028,0.93155 -0.8213,1.52411 -0.0413,0.19431 -0.0593,0.39825 -0.0593,0.6091 v 86.39472 c 0,1.65915 1.3546,3.01378 3.01516,3.01378 h 61.907002 c 1.660525,0 3.023412,-1.35463 3.023412,-3.01378 v -86.39472 c 0,-1.66744 -1.362887,-3.02207 -3.023412,-3.02207"
       style="fill:#213f78;fill-opacity:1;fill-rule:nonzero;stroke:none;stroke-width:0.35277778" />
    <path
       inkscape:connector-curvature="0"
       id="path5268"
       d="m -113.39917,13.339189 h 1.18513 c 0.30455,0 0.57601,-0.11024 0.78683,-0.33899 0.21223,-0.21911 0.32248,-0.49057 0.32248,-0.79512 v -6.81577 c 0,-0.30456 -0.11025,-0.57602 -0.33073,-0.79651 -0.22049,-0.21911 -0.47403,-0.32935 -0.77858,-0.32935 h -1.18513 z m 4.20716,-1.17683 c 0,0.86402 -0.30455,1.59988 -0.90537,2.20211 -0.60081,0.61736 -1.32983,0.91362 -2.18419,0.91362 h -3.08267 V 2.257029 h 3.08267 c 0.85436,0 1.59163,0.30451 2.19245,0.91362 0.59256,0.61048 0.89711,1.33809 0.89711,2.19386 v 6.79785"
       style="fill:#ffffff;fill-opacity:1;fill-rule:nonzero;stroke:none;stroke-width:0.35277778" />
    <path
       inkscape:connector-curvature="0"
       id="path5270"
       d="M -107.47222,15.278089 V 2.257029 h 5.59622 v 1.97196 h -3.63251 v 3.5567 h 2.64996 v 1.97199 h -2.64996 v 3.54845 h 3.63251 v 1.97196 h -5.59622"
       style="fill:#ffffff;fill-opacity:1;fill-rule:nonzero;stroke:none;stroke-width:0.35277778" />
    <path
       inkscape:connector-curvature="0"
       id="path5272"
       d="m -94.036356,12.043859 c 0.0085,0.90674 -0.220486,1.68533 -0.71106,2.32061 -0.312806,0.43959 -0.762069,0.74415 -1.34634,0.93017 -0.312809,0.0937 -0.676627,0.14471 -1.091425,0.14471 -0.7717,0 -1.405573,-0.18606 -1.914065,-0.56776 -0.423087,-0.31281 -0.753816,-0.7359 -0.999104,-1.27745 -0.24528,-0.53467 -0.38996,-1.15203 -0.43131,-1.84658 l 1.870009,-0.13504 c 0.08541,0.76207 0.279717,1.31187 0.602192,1.65089 0.237032,0.26184 0.498829,0.38033 0.813048,0.36379 0.423051,-0.008 0.770324,-0.22049 1.023866,-0.63525 0.135044,-0.19431 0.202565,-0.48232 0.202565,-0.85439 0,-0.54159 -0.253542,-1.08451 -0.735859,-1.61784 -0.389996,-0.36379 -0.974267,-0.91363 -1.752883,-1.65086 -0.65179,-0.63528 -1.109308,-1.19341 -1.379395,-1.69362 -0.288013,-0.55813 -0.440973,-1.1672 -0.440973,-1.82865 0,-1.18513 0.406506,-2.08224 1.203008,-2.69269 0.482317,-0.37207 1.09968,-0.55813 1.82866,-0.55813 0.693171,0 1.295363,0.16126 1.794227,0.47407 0.389961,0.23703 0.694512,0.57601 0.9398,1.01561 0.237032,0.43272 0.38174,0.93983 0.432718,1.50756 l -1.879637,0.33902 c -0.05927,-0.52504 -0.212231,-0.94809 -0.457518,-1.24439 -0.186018,-0.2122 -0.44097,-0.32244 -0.778579,-0.32244 -0.365196,0 -0.635283,0.16122 -0.821338,0.48228 -0.152929,0.25495 -0.236995,0.57605 -0.236995,0.94809 0,0.60223 0.261832,1.20305 0.778579,1.82041 0.19431,0.23703 0.482319,0.51675 0.872315,0.82959 0.44785,0.38171 0.752404,0.65317 0.897078,0.80476 0.490609,0.48231 0.864023,0.95638 1.125855,1.43178 0.126788,0.21911 0.220485,0.42305 0.296299,0.60911 0.19431,0.46577 0.288007,0.88882 0.296262,1.25264"
       style="fill:#ffffff;fill-opacity:1;fill-rule:nonzero;stroke:none;stroke-width:0.35277778" />
    <path
       inkscape:connector-curvature="0"
       id="path5274"
       d="m -90.446561,15.278089 h -1.963701 V 2.265279 h 1.963701 v 13.01281"
       style="fill:#ffffff;fill-opacity:1;fill-rule:nonzero;stroke:none;stroke-width:0.35277778" />
    <path
       inkscape:connector-curvature="0"
       id="path5276"
       d="m -85.594489,15.447599 c -0.864023,0 -1.601295,-0.30455 -2.210366,-0.91366 -0.600816,-0.61044 -0.905367,-1.33805 -0.905367,-2.19382 v -7.10378 c 0,-0.86265 0.304551,-1.59992 0.913622,-2.20899 0.610483,-0.60085 1.346343,-0.90678 2.202111,-0.90678 0.862647,0 1.599917,0.30593 2.200733,0.91504 0.609108,0.6091 0.906745,1.33808 0.906745,2.20073 v 1.49102 h -2.0326 v -1.53236 c 0,-0.31419 -0.110244,-0.57602 -0.339019,-0.79651 -0.21082,-0.22877 -0.482282,-0.33902 -0.795126,-0.33902 -0.305895,0 -0.576016,0.11025 -0.796501,0.33902 -0.220488,0.22049 -0.329354,0.48232 -0.329354,0.79651 v 7.12858 c 0,0.31281 0.108866,0.57601 0.329354,0.79512 0.220485,0.21223 0.490606,0.32248 0.796501,0.32248 0.312844,0 0.584306,-0.11025 0.795126,-0.32248 0.228775,-0.21911 0.339019,-0.48231 0.339019,-0.79512 v -2.55764 h -1.092801 v -1.97196 h 3.125401 v 4.54614 c 0,0.87232 -0.305929,1.59992 -0.915,2.21037 -0.609106,0.60081 -1.338086,0.89711 -2.192478,0.89711"
       style="fill:#ffffff;fill-opacity:1;fill-rule:nonzero;stroke:none;stroke-width:0.35277778" />
    <path
       inkscape:connector-curvature="0"
       id="path5278"
       d="m -78.576152,2.257029 2.607276,8.75467 v -8.75467 h 1.965076 v 13.02106 h -2.116666 l -2.700973,-8.33988 v 8.33988 h -1.965076 V 2.257029 h 2.210363"
       style="fill:#ffffff;fill-opacity:1;fill-rule:nonzero;stroke:none;stroke-width:0.35277778" />
    <path
       inkscape:connector-curvature="0"
       id="path5280"
       d="m -120.50295,75.831869 h -5.1387 c -1.66056,0 -3.01516,-1.35463 -3.01516,-3.01378 v -86.39472 c 0,-0.21085 0.018,-0.41479 0.0593,-0.6091 0.1185,-0.59256 0.4148,-1.1176 0.8213,-1.52411 0.55122,-0.54984 1.30362,-0.88886 2.13459,-0.88886 h 5.1387 v 92.43057"
       style="fill:#1e3868;fill-opacity:1;fill-rule:nonzero;stroke:none;stroke-width:0.35277778" />
    <path
       inkscape:connector-curvature="0"
       id="path5282"
       d="m -113.88148,89.437239 -3.31142,-4.44418 -3.31005,4.44418 v -13.60537 h 6.62147 v 13.60537"
       style="fill:#ffffff;fill-opacity:1;fill-rule:nonzero;stroke:none;stroke-width:0.35277778" />
    <path
       inkscape:connector-curvature="0"
       id="path5284"
       d="M 66.000765,102.13724 H 115.18154 V 70.337599 H 66.000765 Z m 0,0"
       style="fill:#e8e8e8;fill-opacity:1;fill-rule:nonzero;stroke:none;stroke-width:0.35277778" />
    <path
       inkscape:connector-curvature="0"
       id="path5286"
       d="m 212.23678,70.049599 c 0,3.49609 -2.86219,6.36655 -6.36654,6.36655 H -24.685185 c -3.49747,0 -6.367916,-2.87046 -6.367916,-6.36655 V -98.666386 c 0,-3.496064 2.870446,-6.366514 6.367916,-6.366514 H 205.87024 c 3.50435,0 6.36654,2.87045 6.36654,6.366514 V 70.049599"
       style="fill:#ffffff;fill-opacity:1;fill-rule:nonzero;stroke:none;stroke-width:0.35277778" />
    <path
       inkscape:connector-curvature="0"
       id="path5288"
       d="M 205.87024,-105.0329 H -24.685185 c -3.49747,0 -6.367916,2.87045 -6.367916,6.366514 V 45.107109 l 243.289881,-0.3569 V -98.666386 c 0,-3.496064 -2.86219,-6.366514 -6.36654,-6.366514"
       style="fill:#141723;fill-opacity:1;fill-rule:nonzero;stroke:none;stroke-width:0.35277778" />
    <path
       inkscape:connector-curvature="0"
       id="path5290"
       d="M 204.22763,35.776419 H -23.034325 V -96.668219 H 204.22763 V 35.776419"
       style="fill:#ffffff;fill-opacity:1;fill-rule:nonzero;stroke:none;stroke-width:0.35277778" />
    <path
       inkscape:connector-curvature="0"
       id="path5292"
       d="M 125.03865,110.83264 H 56.154665 v -8.6954 h 68.883985 v 8.6954"
       style="fill:#ffffff;fill-opacity:1;fill-rule:nonzero;stroke:none;stroke-width:0.35277778" />
    <path
       inkscape:connector-curvature="0"
       id="path5294"
       d="m 66.000765,84.747769 h 49.180775 v -7.66604 H 66.000765 Z m 0,0"
       style="fill:#cfcfcf;fill-opacity:1;fill-rule:nonzero;stroke:none;stroke-width:0.35277778" />
    <path
       inkscape:connector-curvature="0"
       id="path5296"
       d="m 42.547915,13.110449 h 16.78175 v -64.87115 h -16.78175 v 64.87115"
       style="fill:#f45e64;fill-opacity:1;fill-rule:nonzero;stroke:none;stroke-width:0.35277778" />
    <path
       inkscape:connector-curvature="0"
       id="path5298"
       d="m 69.733855,-4.516061 v 17.62651 h 16.77349 v -59.29976 h -16.77349 v 41.67325"
       style="fill:#4f63b8;fill-opacity:1;fill-rule:nonzero;stroke:none;stroke-width:0.35277778" />
    <path
       inkscape:connector-curvature="0"
       id="path5300"
       d="m 96.099865,-30.085541 v 43.19599 h 16.780365 v -80.00891 H 96.099865 v 36.81292"
       style="fill:#78ca2b;fill-opacity:1;fill-rule:nonzero;stroke:none;stroke-width:0.35277778" />
    <path
       inkscape:connector-curvature="0"
       id="path5302"
       d="m 121.85539,-54.512641 v 67.62309 h 16.78039 v -67.62309 h -16.78039"
       style="fill:#78d1f5;fill-opacity:1;fill-rule:nonzero;stroke:none;stroke-width:0.35277778" />
    <path
       inkscape:connector-curvature="0"
       id="path5304"
       d="M 148.23793,-0.06361095 121.85539,-7.682771 v -56.43894 h 26.38254 v 64.05810005"
       style="fill:#78d1f5;fill-opacity:1;fill-rule:nonzero;stroke:none;stroke-width:0.35277778" />
    <path
       inkscape:connector-curvature="0"
       id="path5306"
       d="m 195.65899,-11.746591 -9.4823,9.48228 17.80567,17.80561 9.48227,-9.48366 -17.80564,-17.80423"
       style="fill:#23617d;fill-opacity:1;fill-rule:nonzero;stroke:none;stroke-width:0.35277778" />
    <path
       inkscape:connector-curvature="0"
       id="path5308"
       d="m 258.82,47.544879 c 1.83002,1.83691 1.83002,4.8424 0,6.68073 l -6.67935,6.67106 c -1.82867,1.83695 -4.83415,1.83695 -6.67247,0 l -41.86756,-41.86756 c -1.83693,-1.82866 -1.83693,-4.83415 0,-6.67107 l 6.67247,-6.67247 c 1.8369,-1.83692 4.84243,-1.83692 6.67935,0 L 258.82,47.544879"
       style="fill:#2b6e99;fill-opacity:1;fill-rule:nonzero;stroke:none;stroke-width:0.35277778" />
    <path
       inkscape:connector-curvature="0"
       id="path5310"
       d="m 184.7463,-13.170121 c -16.27325,16.27325 -42.67232,16.27325 -58.94558,0 -16.28154,-16.28151 -16.28154,-42.67094 0,-58.95249 16.27326,-16.27325 42.67233,-16.27325 58.94558,0 16.28016,16.28155 16.28016,42.67098 0,58.95249 z m -66.73424,-66.74253 c -20.582395,20.58236 -20.582395,53.95021 0,74.53257 20.58236,20.58239 53.94878,20.58239 74.5312,0 20.58236,-20.58236 20.58236,-53.95021 0,-74.53257 -20.58242,-20.582399 -53.94884,-20.582399 -74.5312,0"
       style="fill:#2b6e99;fill-opacity:1;fill-rule:nonzero;stroke:none;stroke-width:0.35277778" />
    <path
       inkscape:connector-curvature="0"
       id="path5312"
       d="m 219.62857,8.361739 -13.34354,13.35179 -6.01927,-6.02064 13.35182,-13.35183 6.01099,6.02068"
       style="fill:#f8b014;fill-opacity:1;fill-rule:nonzero;stroke:none;stroke-width:0.35277778" />
    <path
       inkscape:connector-curvature="0"
       id="path5314"
       d="m 260.1925,50.881099 c 0,-1.2113 -0.45751,-2.41293 -1.3725,-3.33622 l -5.4598,-5.45292 v -0.008 l 5.4598,5.46118 c 0.91499,0.92329 1.3725,2.12492 1.3725,3.33622"
       style="fill:#cf3d3f;fill-opacity:1;fill-rule:nonzero;stroke:none;stroke-width:0.35277778" />
    <path
       inkscape:connector-curvature="0"
       id="path5316"
       d="m 253.3602,42.091959 -33.73163,-33.73022 -0.17777,-0.1778 33.9094,33.89976 v 0.008"
       style="fill:#d9595c;fill-opacity:1;fill-rule:nonzero;stroke:none;stroke-width:0.35277778" />
    <path
       inkscape:connector-curvature="0"
       id="path5318"
       d="m 206.94511,9.021789 v -0.008 l 3.02342,-3.03167 -0.35552,0.36378 -2.6679,2.67614"
       style="fill:#21576e;fill-opacity:1;fill-rule:nonzero;stroke:none;stroke-width:0.35277778" />
    <path
       inkscape:connector-curvature="0"
       id="path5320"
       d="m 255.47686,57.560449 -42.52074,-42.52765 6.67245,-6.67106 33.73163,33.73022 5.4598,5.45292 c 0.91499,0.92329 1.3725,2.12492 1.3725,3.33622 0,0.94809 -0.27974,1.89618 -0.83783,2.70093 -0.15298,0.22878 -0.33898,0.4396 -0.53467,0.64358 l -3.34314,3.33484 m -48.53175,-48.53866 2.6679,-2.67614 -2.6679,2.67614"
       style="fill:#266187;fill-opacity:1;fill-rule:nonzero;stroke:none;stroke-width:0.35277778" />
    <path
       inkscape:connector-curvature="0"
       id="path5322"
       d="m 212.95612,15.032799 -6.01101,-6.01101 2.6679,-2.67614 0.35552,-0.36378 0.30456,-0.2963 3.34449,-3.34451 3.33486,3.34451 2.67613,2.67617 -6.67245,6.67106"
       style="fill:#de9e11;fill-opacity:1;fill-rule:nonzero;stroke:none;stroke-width:0.35277778" />
    <path
       inkscape:connector-curvature="0"
       id="path5324"
       d="m 116.43694,202.20486 c 0,1.9141 -1.56683,3.48091 -3.47955,3.48091 H 68.235925 c -1.92236,0 -3.48781,-1.56681 -3.48781,-3.48091 v -77.62214 c 0,-1.91272 1.56545,-3.47953 3.48781,-3.47953 h 44.721465 c 1.91272,0 3.47955,1.56681 3.47955,3.47953 v 77.62214"
       style="fill:#112638;fill-opacity:1;fill-rule:nonzero;stroke:none;stroke-width:0.35277778" />
    <path
       inkscape:connector-curvature="0"
       id="path5326"
       d="m 69.717315,127.39392 v 69.12239 H 111.47463 V 127.39392 H 69.717315"
       style="fill:#f8a62b;fill-opacity:1;fill-rule:nonzero;stroke:none;stroke-width:0.35277778" />
    <path
       inkscape:connector-curvature="0"
       id="path5328"
       d="m 104.57478,161.95512 c 0,7.40833 -6.002715,13.41932 -13.411055,13.41932 -7.40833,0 -13.41934,-6.01099 -13.41934,-13.41932 0,-7.40834 6.01101,-13.4111 13.41934,-13.4111 7.40834,0 13.411055,6.00276 13.411055,13.4111"
       style="fill:#63bfee;fill-opacity:1;fill-rule:nonzero;stroke:none;stroke-width:0.35277778" />
    <path
       inkscape:connector-curvature="0"
       id="path5330"
       d="m 104.211,158.8311 -0.22048,-0.0772 h -1.05834 l -0.77032,-0.62563 -1.63435,1.20168 -1.354625,-1.20168 -2.31098,0.42307 -1.48139,0.16949 -0.24666,2.79331 0.6022,2.65959 h 2.4543 l 1.37252,-0.20394 0.592555,1.0845 0.61736,1.25265 -1.099675,0.92329 0.931545,2.10701 -0.15296,0.83095 0.8213,0.60081 c 2.05743,-2.35365 3.30178,-5.43634 3.30178,-8.8139 0,-1.07487 -0.12678,-2.11667 -0.36378,-3.12402"
       style="fill:#fdf8d1;fill-opacity:1;fill-rule:nonzero;stroke:none;stroke-width:0.35277778" />
    <path
       inkscape:connector-curvature="0"
       id="path5332"
       d="m 79.513775,160.70247 0.87231,0.20257 0.87094,0.56777 1.16858,0.36377 0.60219,0.15161 0.57464,0.24664 -0.30456,0.60913 -0.93983,1.50754 1.03353,1.23611 1.48142,0.93019 v 0.83924 l 0.9646,1.47309 c 0,0 -0.10058,0.93983 0,1.23613 0.10199,0.30451 0.66975,1.87963 0.66975,1.87963 l 0.56635,0.7276 1.38081,0.1695 -0.87232,-1.40558 c 0,0 1.27057,-1.93892 1.37118,-2.00644 0.0937,-0.0593 -0.40654,-0.83783 -0.30455,-0.93157 0.10195,-0.10194 0.90674,-0.9729 0.90674,-0.9729 l 0.87091,-1.10104 0.36519,-1.44004 -1.10105,-1.74321 c 0,0 -1.2361,-0.87233 -1.2361,-0.96602 0,-0.10057 -0.80479,-0.9729 -0.80479,-0.9729 l -2.24342,-0.0675 -1.27057,-0.39825 -0.46439,0.8296 -1.07626,-0.53332 0.0346,-0.88059 h -0.83784 l -0.47544,-0.7276 0.71247,-0.53467 1.43866,0.73728 0.89708,-0.56776 0.9743,-2.27651 0.87228,-1.10106 h 1.56545 l 0.23703,-0.53329 1.03353,-0.50853 0.4396,0.2963 0.46577,-0.69455 -0.90537,-1.26916 -0.7028,-0.23704 -0.25357,0.2453 -0.84748,0.79512 -1.97196,-0.47402 -0.2715,0.9398 -0.86402,-1.09964 1.13552,-0.40656 1.26915,0.33899 0.50024,-0.50848 1.60817,-0.22876 -1.30361,-1.37943 h -1.5076 l -0.60082,0.97293 -0.60081,-0.77031 -1.45659,-0.0937 c -2.81947,2.09187 -4.79146,5.25862 -5.30821,8.89939 l 1.07488,0.186 0.56772,0.44926"
       style="fill:#fdf8d1;fill-opacity:1;fill-rule:nonzero;stroke:none;stroke-width:0.35277778" />
    <path
       inkscape:connector-curvature="0"
       id="path5334"
       d="m 99.240405,153.64006 v 0.60219 l -1.76939,0.49882 0.16121,1.27055 -0.99906,-0.61047 -0.97427,0.77999 0.63528,0.9398 0.96598,0.13507 1.64264,-1.30365 0.47403,0.60086 c 0,0 -0.30593,0.70279 0,0.93155 0.29629,0.23701 1.565445,0.60082 1.565445,0.60082 v -1.13411 l -0.87228,-0.77034 0.57602,-0.46577 1.03353,0.87228 -0.33073,0.60081 1.9389,0.89713 c 0,0 0.2122,-0.2453 0.52504,-0.60908 -0.97293,-2.75195 -2.82776,-5.0891 -5.215885,-6.68903 l -0.55809,2.11666 1.20163,0.73592"
       style="fill:#fdf8d1;fill-opacity:1;fill-rule:nonzero;stroke:none;stroke-width:0.35277778" />
    <path
       inkscape:connector-curvature="0"
       id="path5336"
       d="m -70.109485,101.31727 c -2.218618,0 -5.841505,0 -8.060126,0 h -27.761959 c -2.21865,0 -4.03076,1.81079 -4.03076,4.0294 v 84.15819 c 0,2.21863 1.81211,4.03076 4.03076,4.03076 h 27.761959 c 2.218621,0 5.841508,0 8.060126,0 h 27.761991 c 2.218619,0 4.030731,-1.81213 4.030731,-4.03076 v -84.15819 c 0,-2.21861 -1.812112,-4.0294 -4.030731,-4.0294 h -27.761991"
       style="fill:#bababd;fill-opacity:1;fill-rule:nonzero;stroke:none;stroke-width:0.35277778" />
    <path
       inkscape:connector-curvature="0"
       id="path5338"
       d="m -72.403917,98.996669 c -2.218619,0 -5.84976,0 -8.060124,0 H -108.226 c -2.22691,0 -4.03906,1.812131 -4.03906,4.030761 v 84.16645 c 0,2.21038 1.81215,4.02251 4.03906,4.02251 h 27.761959 c 2.210364,0 5.841505,0 8.060124,0 h 27.761956 c 2.218653,0 4.030769,-1.81213 4.030769,-4.02251 v -84.16645 c 0,-2.21863 -1.812116,-4.030761 -4.030769,-4.030761 h -27.761956"
       style="fill:#ffffff;fill-opacity:1;fill-rule:nonzero;stroke:none;stroke-width:0.35277778" />
    <path
       inkscape:connector-curvature="0"
       id="path5340"
       d="M -44.387008,125.59004 H -108.4892 v -22.20706 h 64.102192 v 22.20706"
       style="fill:#e8e8e8;fill-opacity:1;fill-rule:nonzero;stroke:none;stroke-width:0.35277778" />
    <path
       inkscape:connector-curvature="0"
       id="path5342"
       d="m -96.365219,105.37286 3.624228,12.16533 v -12.16533 h 2.725772 v 18.1102 h -2.928337 l -3.751016,-11.60034 v 11.60034 h -2.735403 v -18.1102 h 3.064756"
       style="fill:#f45e64;fill-opacity:1;fill-rule:nonzero;stroke:none;stroke-width:0.35277778" />
    <path
       inkscape:connector-curvature="0"
       id="path5344"
       d="m -87.567823,123.48306 v -18.1102 h 7.763865 v 2.7423 h -5.038127 v 4.93615 h 3.683494 v 2.74365 h -3.683494 v 4.9444 h 5.038127 v 2.7437 h -7.763865"
       style="fill:#f45e64;fill-opacity:1;fill-rule:nonzero;stroke:none;stroke-width:0.35277778" />
    <path
       inkscape:connector-curvature="0"
       id="path5346"
       d="m -66.705708,105.38114 h 2.862191 l -2.82776,18.10192 h -2.60036 l -1.557163,-9.95773 -1.456584,9.95773 h -2.607273 l -3.031667,-18.10192 h 2.862191 l 1.42212,9.69447 1.320165,-9.69447 h 2.862191 l 1.422117,9.68484 1.329832,-9.68484"
       style="fill:#f45e64;fill-opacity:1;fill-rule:nonzero;stroke:none;stroke-width:0.35277778" />
    <path
       inkscape:connector-curvature="0"
       id="path5348"
       d="m -53.447614,118.97821 c 0.01799,1.26095 -0.304551,2.33717 -0.972889,3.23427 -0.449228,0.60912 -1.07488,1.03216 -1.879637,1.28712 -0.431339,0.12676 -0.939834,0.19428 -1.524106,0.19428 -1.066622,0 -1.94719,-0.26183 -2.649995,-0.78684 -0.592526,-0.44099 -1.058333,-1.02529 -1.397317,-1.76943 -0.338985,-0.74549 -0.541584,-1.60126 -0.592561,-2.5659 l 2.598983,-0.18601 c 0.110244,1.05003 0.389996,1.81211 0.829593,2.29442 0.33073,0.35554 0.702805,0.52501 1.127231,0.50712 0.600816,-0.0246 1.074878,-0.31284 1.430409,-0.87918 0.186018,-0.27977 0.279718,-0.68628 0.279718,-1.20306 0,-0.75377 -0.347239,-1.49791 -1.033534,-2.24346 -0.533294,-0.50847 -1.338051,-1.27881 -2.421184,-2.29441 -0.906745,-0.88059 -1.540653,-1.6674 -1.922394,-2.36196 -0.406505,-0.77997 -0.600815,-1.62605 -0.600815,-2.53971 0,-1.65227 0.549841,-2.89663 1.659149,-3.74277 0.678005,-0.51676 1.524143,-0.77033 2.539754,-0.77033 0.974267,0 1.803823,0.2205 2.498373,0.65182 0.541583,0.33899 0.972889,0.80476 1.303618,1.41388 0.338984,0.6091 0.533294,1.30361 0.600816,2.09048 l -2.607239,0.48371 c -0.08544,-0.74554 -0.296262,-1.32154 -0.643538,-1.73636 -0.245285,-0.30453 -0.609105,-0.44783 -1.083133,-0.44783 -0.50024,0 -0.880567,0.2191 -1.13552,0.66834 -0.21082,0.34726 -0.321064,0.79512 -0.321064,1.32016 0,0.82958 0.355529,1.67706 1.066588,2.53146 0.271463,0.32244 0.676627,0.71244 1.219552,1.15202 0.633908,0.53329 1.050079,0.90538 1.252644,1.1176 0.676629,0.67797 1.193376,1.33805 1.557197,1.98988 0.177766,0.31281 0.314185,0.59256 0.424426,0.85439 0.253577,0.64355 0.396875,1.21957 0.396875,1.7363"
       style="fill:#f45e64;fill-opacity:1;fill-rule:nonzero;stroke:none;stroke-width:0.35277778" />
    <path
       inkscape:connector-curvature="0"
       id="path5350"
       d="M -44.387008,132.8468 H -108.4892 V 129.02 h 64.102192 v 3.8268"
       style="fill:#bababd;fill-opacity:1;fill-rule:nonzero;stroke:none;stroke-width:0.35277778" />
    <path
       inkscape:connector-curvature="0"
       id="path5352"
       d="M -44.387008,141.72 H -108.4892 v -3.83646 h 64.102192 V 141.72"
       style="fill:#bababd;fill-opacity:1;fill-rule:nonzero;stroke:none;stroke-width:0.35277778" />
    <path
       inkscape:connector-curvature="0"
       id="path5354"
       d="M -81.616074,149.33915 H -108.4892 v -3.82678 h 26.873126 v 3.82678"
       style="fill:#bababd;fill-opacity:1;fill-rule:nonzero;stroke:none;stroke-width:0.35277778" />
    <path
       inkscape:connector-curvature="0"
       id="path5356"
       d="M -81.616074,155.42737 H -108.4892 v -3.83508 h 26.873126 v 3.83508"
       style="fill:#bababd;fill-opacity:1;fill-rule:nonzero;stroke:none;stroke-width:0.35277778" />
    <path
       inkscape:connector-curvature="0"
       id="path5358"
       d="M -44.387008,162.07362 H -108.4892 v -3.82682 h 64.102192 v 3.82682"
       style="fill:#bababd;fill-opacity:1;fill-rule:nonzero;stroke:none;stroke-width:0.35277778" />
    <path
       inkscape:connector-curvature="0"
       id="path5360"
       d="M -44.387008,170.34598 H -108.4892 v -3.83646 h 64.102192 v 3.83646"
       style="fill:#bababd;fill-opacity:1;fill-rule:nonzero;stroke:none;stroke-width:0.35277778" />
    <path
       inkscape:connector-curvature="0"
       id="path5362"
       d="M -44.387008,178.40614 H -108.4892 v -3.82683 h 64.102192 v 3.82683"
       style="fill:#bababd;fill-opacity:1;fill-rule:nonzero;stroke:none;stroke-width:0.35277778" />
    <path
       inkscape:connector-curvature="0"
       id="path5364"
       d="M -63.843517,185.66152 H -108.4892 v -3.82683 h 44.645683 v 3.82683"
       style="fill:#bababd;fill-opacity:1;fill-rule:nonzero;stroke:none;stroke-width:0.35277778" />
    <path
       inkscape:connector-curvature="0"
       id="path5366"
       d="m -77.924324,145.51237 h 33.537316 v 9.915 h -33.537316 v -9.915"
       style="fill:#f45e64;fill-opacity:0.94117647;fill-rule:nonzero;stroke:none;stroke-width:0.35277778" />
    <path
       inkscape:connector-curvature="0"
       id="path5368"
       d="m 29.102395,-133.3957 c 0,-11.1676 9.0606,-20.22683 20.22683,-20.22683 11.16764,0 20.22687,9.05923 20.22687,20.22683 0,11.16626 -9.05923,20.22687 -20.22687,20.22687 -11.16623,0 -20.22683,-9.06061 -20.22683,-20.22687"
       style="fill:#f8e33d;fill-opacity:1;fill-rule:nonzero;stroke:none;stroke-width:0.35277778" />
    <path
       inkscape:connector-curvature="0"
       id="path5370"
       d="m 37.611785,-169.97297 h 23.43629 v 20.0491 h -23.43629 v -20.0491"
       style="fill:#141717;fill-opacity:1;fill-rule:nonzero;stroke:none;stroke-width:0.35277778" />
    <path
       inkscape:connector-curvature="0"
       id="path5372"
       d="m 42.514825,-172.81724 h 13.63984 v 2.84427 h -13.63984 v -2.84427"
       style="fill:#141717;fill-opacity:1;fill-rule:nonzero;stroke:none;stroke-width:0.35277778" />
    <path
       inkscape:connector-curvature="0"
       id="path5374"
       d="m 44.521245,-175.66977 h 9.61736 v 2.85253 h -9.61736 v -2.85253"
       style="fill:#141717;fill-opacity:1;fill-rule:nonzero;stroke:none;stroke-width:0.35277778" />
    <path
       inkscape:connector-curvature="0"
       id="path5376"
       d="m 48.458325,-189.45428 h 1.74321 v 13.78451 h -1.74321 v -13.78451"
       style="fill:#141717;fill-opacity:1;fill-rule:nonzero;stroke:none;stroke-width:0.35277778" />
    <path
       inkscape:connector-curvature="0"
       id="path5378"
       d="m 48.458325,-138.18025 h 1.74321 v -11.74362 h -1.74321 v 11.74362"
       style="fill:#ffffff;fill-opacity:1;fill-rule:nonzero;stroke:none;stroke-width:0.35277778" />
    <path
       inkscape:connector-curvature="0"
       id="path5380"
       d="m 46.035725,-139.23029 v 1.19475 h 6.58703 v -1.19475 h -6.58703"
       style="fill:#ffffff;fill-opacity:1;fill-rule:nonzero;stroke:none;stroke-width:0.35277778" />
  </g>
</svg>
