<?xml version="1.0" standalone="no"?>
<!DOCTYPE svg PUBLIC "-//W3C//DTD SVG 20010904//EN"
 "http://www.w3.org/TR/2001/REC-SVG-20010904/DTD/svg10.dtd">
<svg version="1.0" xmlns="http://www.w3.org/2000/svg"
 width="400.000000pt" height="400.000000pt" viewBox="0 0 400.000000 400.000000"
 preserveAspectRatio="xMidYMid meet">
<metadata>
Created by potrace 1.11, written by Peter Selinger 2001-2013
</metadata>
<g transform="translate(0.000000,400.000000) scale(0.100000,-0.100000)"
fill="#000000" stroke="none">
<path d="M17 3982 c-15 -16 -17 -55 -17 -336 l0 -317 68 3 67 3 3 263 2 262
1460 0 1459 0 3 -380 c3 -348 4 -381 21 -397 16 -17 49 -18 397 -21 l380 -3 2
-597 3 -597 68 -3 67 -3 0 653 0 653 -418 417 -417 418 -1566 0 c-1504 0
-1567 -1 -1582 -18z m3473 -497 l285 -285 -288 0 -287 0 0 285 c0 157 1 285 3
285 1 0 130 -128 287 -285z"/>
<path d="M340 3600 l0 -60 395 0 395 0 0 60 0 60 -395 0 -395 0 0 -60z"/>
<path d="M1270 3600 l0 -60 130 0 130 0 0 60 0 60 -130 0 -130 0 0 -60z"/>
<path d="M870 3335 l0 -65 330 0 330 0 0 65 0 65 -330 0 -330 0 0 -65z"/>
<path d="M26 3119 l-26 -20 0 -1550 0 -1549 70 0 70 0 0 100 0 100 165 0 166
0 -3 68 -3 67 -162 3 -163 2 0 230 0 230 165 0 166 0 -3 68 -3 67 -162 3 -163
2 0 265 0 265 165 0 165 0 0 65 0 65 -165 0 -165 0 0 265 0 265 165 0 165 0 0
70 0 70 -165 0 -165 0 0 200 0 200 165 0 165 0 0 65 0 65 -165 0 -165 0 0 100
0 100 260 0 260 0 0 -1500 0 -1500 70 0 70 0 0 1549 0 1550 -26 20 c-26 20
-38 21 -374 21 -336 0 -348 -1 -374 -21z"/>
<path d="M2340 2805 l0 -65 660 0 660 0 0 65 0 65 -660 0 -660 0 0 -65z"/>
<path d="M1940 2465 l0 -65 595 0 595 0 0 65 0 65 -595 0 -595 0 0 -65z"/>
<path d="M3270 2465 l0 -65 195 0 195 0 0 65 0 65 -195 0 -195 0 0 -65z"/>
<path d="M1940 2135 l0 -65 860 0 860 0 0 65 0 65 -860 0 -860 0 0 -65z"/>
<path d="M1940 1865 l0 -65 195 0 195 0 0 65 0 65 -195 0 -195 0 0 -65z"/>
<path d="M2824 1849 c-15 -17 -20 -39 -22 -118 -2 -53 -5 -102 -8 -110 -3 -9
-31 11 -83 63 -53 51 -86 76 -102 76 -17 0 -68 -45 -186 -162 -135 -135 -163
-168 -163 -191 0 -22 16 -46 70 -101 39 -40 70 -78 70 -84 0 -9 -34 -12 -115
-12 -165 0 -155 17 -155 -269 l0 -230 26 -20 c23 -18 41 -21 130 -21 73 0 104
-4 104 -12 0 -6 -31 -44 -70 -84 -53 -54 -70 -79 -70 -100 0 -22 29 -57 153
-182 83 -84 162 -158 175 -163 32 -12 54 1 133 78 38 37 72 62 78 59 7 -5 11
-49 11 -120 0 -97 3 -115 18 -129 16 -15 49 -17 249 -17 281 0 263 -10 263
144 0 140 7 143 104 47 104 -103 97 -106 289 87 191 192 189 184 86 288 -96
97 -93 104 49 104 93 0 111 3 125 18 15 16 17 49 17 249 0 281 10 263 -143
263 -70 0 -108 4 -113 12 -4 7 22 39 69 84 61 57 77 78 77 100 0 23 -29 57
-158 186 -194 194 -188 193 -297 87 -41 -39 -78 -68 -84 -64 -7 4 -11 50 -11
119 0 97 -3 115 -18 129 -16 15 -49 17 -249 17 -221 0 -231 -1 -249 -21z m376
-215 c0 -110 5 -119 100 -160 82 -35 93 -32 169 41 l67 64 89 -89 90 -90 -63
-63 c-44 -44 -62 -70 -62 -88 0 -45 54 -163 81 -176 13 -7 61 -13 107 -13 l82
0 0 -130 0 -130 -93 0 c-59 0 -99 -5 -109 -12 -19 -15 -72 -145 -70 -172 0
-11 28 -47 62 -81 33 -33 60 -65 60 -70 0 -13 -162 -175 -175 -175 -6 0 -35
25 -65 56 -30 30 -63 60 -73 65 -22 13 -173 -45 -187 -72 -6 -10 -10 -58 -10
-108 l0 -91 -130 0 -130 0 0 83 c0 45 -6 93 -13 107 -13 26 -97 73 -155 85
-30 6 -37 2 -103 -61 l-70 -68 -92 92 -92 92 68 68 c37 37 67 74 67 83 0 19
-52 142 -69 163 -11 13 -34 16 -112 16 l-99 0 0 135 0 135 99 0 c95 0 100 1
120 26 22 28 61 125 61 152 0 9 -30 47 -67 84 l-68 68 92 92 92 92 70 -67 c38
-37 75 -67 83 -67 27 0 153 59 170 80 14 18 18 41 18 111 l0 89 130 0 130 0 0
-96z"/>
<path d="M2960 1180 c-127 -59 -189 -197 -148 -333 16 -53 97 -140 151 -162
23 -9 70 -18 103 -18 237 -3 358 288 189 455 -53 52 -99 72 -180 75 -55 3 -80
-1 -115 -17z m180 -139 c61 -42 74 -128 28 -186 -50 -64 -135 -67 -194 -8 -29
28 -34 41 -34 79 0 70 35 121 95 137 30 7 77 -2 105 -22z"/>
</g>
</svg>
