<?xml version="1.0" encoding="utf-8"?>
<!-- Generator: Adobe Illustrator 19.0.0, SVG Export Plug-In . SVG Version: 6.00 Build 0)  -->
<svg version="1.1" id="Layer_1" xmlns="http://www.w3.org/2000/svg" xmlns:xlink="http://www.w3.org/1999/xlink" x="0px" y="0px"
	 viewBox="-183 185 32 32" style="enable-background:new -183 185 32 32;" xml:space="preserve">
<style type="text/css">
	.st0{fill:#374561;}
</style>
<path class="st0" d="M-167,185c-8.8,0-16,2.2-16,5v4c0,2.8,7.2,5,16,5s16-2.2,16-5v-4C-151,187.2-158.2,185-167,185z"/>
<path class="st0" d="M-167,202c-8.8,0-16-2.2-16-5v6c0,2.8,7.2,5,16,5s16-2.2,16-5v-6C-151,199.8-158.2,202-167,202z"/>
<path class="st0" d="M-167,211c-8.8,0-16-2.2-16-5v6c0,2.8,7.2,5,16,5s16-2.2,16-5v-6C-151,208.8-158.2,211-167,211z"/>
</svg>
