<?xml version="1.0" encoding="utf-8"?>
<!-- Generator: Adobe Illustrator 19.0.0, SVG Export Plug-In . SVG Version: 6.00 Build 0)  -->
<svg version="1.1" id="Layer_1" xmlns="http://www.w3.org/2000/svg" xmlns:xlink="http://www.w3.org/1999/xlink" x="0px" y="0px"
	 viewBox="16 -15.2 431.2 431.2" style="enable-background:new 16 -15.2 431.2 431.2;" xml:space="preserve">
<style type="text/css">
	.st0{fill:#FEFEFE;}
	.st1{fill:#FA5370;}
	.st2{fill:#374561;}
	.st3{fill:#01D6A2;}
</style>
<g>
	<path class="st0" d="M457.2,32.4v377.5c0,5.3-4.4,9.7-9.7,9.7H11.9c-5.3,0-9.7-4.4-9.7-9.7V32.4H457.2z"/>
	<path class="st1" d="M436.5-2.8V50H22.9V-2.8c0-4.8,4-8.8,8.8-8.8h396C432.5-11.6,436.5-7.6,436.5-2.8L436.5-2.8z"/>
	<path class="st2" d="M427.7-20.4h-396c-9.7,0-17.6,7.9-17.6,17.6v396c0,9.7,7.9,17.6,17.6,17.6h396c9.7,0,17.6-7.9,17.6-17.6v-396
		C445.3-12.5,437.4-20.4,427.7-20.4L427.7-20.4z M427.7-2.8v44h-396v-44H427.7z M31.7,393.2V58.8h396v334.4H31.7L31.7,393.2z"/>
	<rect x="49.3" y="10.4" class="st2" width="30.8" height="17.6"/>
	<rect x="93.3" y="10.4" class="st2" width="30.8" height="17.6"/>
	<rect x="379.3" y="10.4" class="st2" width="30.8" height="17.6"/>
	<path class="st0" d="M229.7,173.2c19.4,0,35.2,15.8,35.2,35.2s-15.8,35.2-35.2,35.2s-35.2-15.8-35.2-35.2S210.3,173.2,229.7,173.2
		L229.7,173.2z"/>
	<rect x="348.5" y="111.6" class="st2" width="17.6" height="17.6"/>
	<rect x="374.9" y="111.6" class="st2" width="17.6" height="17.6"/>
	<rect x="401.3" y="111.6" class="st2" width="17.6" height="17.6"/>
	<rect x="40.5" y="287.6" class="st2" width="17.6" height="17.6"/>
	<rect x="66.9" y="287.6" class="st2" width="17.6" height="17.6"/>
	<rect x="93.3" y="287.6" class="st2" width="17.6" height="17.6"/>
	<rect x="71.3" y="358" class="st2" width="316.8" height="17.6"/>
</g>
<g>
	<path class="st3" d="M308.7,187.3c-8.5-28.2-34.7-48.8-65.7-48.8c-21.8,0-41.2,10.2-53.8,26.1c-3.4-1.2-7-1.9-10.8-1.9
		c-17.8,0-32.3,14.5-32.3,32.3c0,0.3,0,0.5,0,0.8c-18.4,3.7-32.3,20-32.3,39.6c0,22.3,18.1,40.4,40.4,40.4h149.4
		c24.5,0,44.4-19.9,44.4-44.4C347.9,208.6,330.8,189.9,308.7,187.3L308.7,187.3z"/>
	<path class="st3" d="M150.1,243.5c0-18.2,12-33.5,28.5-38.6c1.1-10.1,9.6-17.9,20-17.9c0.7,0,1.5,0.1,2.2,0.2
		c7-25.7,30.4-44.6,58.4-44.6c2.9,0,5.8,0.2,8.6,0.6c-7.7-3-16-4.7-24.8-4.7c-21.8,0-41.2,10.2-53.8,26.1c-3.4-1.2-7-1.9-10.8-1.9
		c-17.8,0-32.3,14.5-32.3,32.3c0,0.3,0,0.5,0,0.8c-18.4,3.7-32.3,20-32.3,39.6c0,22.3,18.1,40.4,40.4,40.4h12.2
		C156.5,268.4,150.1,256.7,150.1,243.5L150.1,243.5z"/>
	<path class="st3" d="M216.1,291.7"/>
	<path class="st3" d="M216.1,262.3"/>
	<path class="st3" d="M208.7,229.3"/>
	<path class="st3" d="M252.8,247.6"/>
	<path class="st3" d="M252.8,262.3"/>
	<path class="st3" d="M326.2,277"/>
	<path class="st3" d="M289.5,277"/>
	<path class="st3" d="M304.2,277"/>
</g>
</svg>
