<?xml version="1.0" encoding="utf-8"?>
<!-- Generator: Adobe Illustrator 19.0.0, SVG Export Plug-In . SVG Version: 6.00 Build 0)  -->
<svg version="1.1" id="Layer_1" xmlns="http://www.w3.org/2000/svg" xmlns:xlink="http://www.w3.org/1999/xlink" x="0px" y="0px"
	 viewBox="-183 185 32 32" style="enable-background:new -183 185 32 32;" xml:space="preserve">
<style type="text/css">
	.st0{fill:#374561;}
</style>
<path class="st0" d="M-171.6,207.5l1.3-1.8l-1.4-1.4l-1.8,1.3c-0.3-0.2-0.7-0.3-1.1-0.4l-0.4-2.2h-2l-0.4,2.2
	c-0.4,0.1-0.7,0.3-1.1,0.4l-1.8-1.3l-1.4,1.4l1.3,1.8c-0.2,0.3-0.3,0.7-0.4,1.1l-2.2,0.4v2l2.2,0.4c0.1,0.4,0.3,0.7,0.4,1.1
	l-1.3,1.8l1.4,1.4l1.8-1.3c0.3,0.2,0.7,0.3,1.1,0.4l0.4,2.2h2l0.4-2.2c0.4-0.1,0.7-0.3,1.1-0.4l1.8,1.3l1.4-1.4l-1.3-1.8
	c0.2-0.3,0.3-0.7,0.4-1.1l2.2-0.4v-2l-2.2-0.4C-171.3,208.2-171.4,207.8-171.6,207.5L-171.6,207.5z M-176,211.9c-1.1,0-2-0.9-2-2
	s0.9-2,2-2s2,0.9,2,2S-174.9,211.9-176,211.9z M-151,196.9v-2l-2.1-0.4c0-0.3-0.1-0.5-0.1-0.7l1.8-1.2l-0.8-1.8l-2.1,0.5
	c-0.1-0.2-0.3-0.4-0.4-0.6l1.2-1.8l-1.4-1.4l-1.8,1.2c-0.2-0.1-0.4-0.3-0.6-0.4l0.5-2.1l-1.8-0.8l-1.2,1.8c-0.2-0.1-0.5-0.1-0.7-0.1
	l-0.4-2.1h-2l-0.4,2.1c-0.3,0-0.5,0.1-0.7,0.1l-1.2-1.8l-1.8,0.8l0.5,2.1c-0.2,0.1-0.4,0.3-0.6,0.4l-1.8-1.2l-1.4,1.4l1.2,1.8
	c-0.1,0.2-0.3,0.4-0.4,0.6l-2.1-0.5l-0.8,1.8l1.8,1.2c-0.1,0.2-0.1,0.5-0.1,0.7l-2.1,0.4v2l2.1,0.4c0,0.3,0.1,0.5,0.1,0.7l-1.8,1.2
	l0.8,1.8l2.1-0.5c0.1,0.2,0.3,0.4,0.4,0.6l-1.2,1.8l1.4,1.4l1.8-1.2c0.2,0.1,0.4,0.3,0.6,0.4l-0.5,2.1l1.8,0.8l1.2-1.8
	c0.2,0.1,0.5,0.1,0.7,0.1l0.4,2.1h2l0.4-2.1c0.3,0,0.5-0.1,0.7-0.1l1.2,1.8l1.8-0.8l-0.5-2.1c0.2-0.1,0.4-0.3,0.6-0.4l1.8,1.2
	l1.4-1.4l-1.2-1.8c0.1-0.2,0.3-0.4,0.4-0.6l2.1,0.5l0.8-1.8l-1.8-1.2c0.1-0.2,0.1-0.5,0.1-0.7L-151,196.9z M-162,200.3
	c-2.4,0-4.4-1.9-4.4-4.4s1.9-4.4,4.4-4.4s4.4,1.9,4.4,4.4S-159.6,200.3-162,200.3z"/>
</svg>
