<?xml version="1.0" encoding="utf-8"?>
<!-- Generator: Adobe Illustrator 19.0.0, SVG Export Plug-In . SVG Version: 6.00 Build 0)  -->
<svg version="1.1" id="Layer_1" xmlns="http://www.w3.org/2000/svg" xmlns:xlink="http://www.w3.org/1999/xlink" x="0px" y="0px"
	 viewBox="-683 -35.2 431.2 431.2" style="enable-background:new -683 -35.2 431.2 431.2;" xml:space="preserve">
<style type="text/css">
	.st0{fill:#FEFEFE;}
	.st1{fill:#FFCC1F;}
	.st2{fill:#424242;}
	.st3{fill:#5B8DEF;}
</style>
<g>
	<path class="st0" d="M-239.9,17.6v377.5c0,5.3-4.4,9.7-9.7,9.7h-435.6c-5.3,0-9.7-4.4-9.7-9.7V17.6H-239.9z"/>
	<path class="st1" d="M-260.6-17.6v52.8h-413.6v-52.8c0-4.8,4-8.8,8.8-8.8h396C-264.6-26.4-260.6-22.4-260.6-17.6L-260.6-17.6z"/>
	<path class="st2" d="M-269.4-35.2h-396c-9.7,0-17.6,7.9-17.6,17.6v396c0,9.7,7.9,17.6,17.6,17.6h396c9.7,0,17.6-7.9,17.6-17.6v-396
		C-251.8-27.3-259.7-35.2-269.4-35.2L-269.4-35.2z M-269.4-17.6v44h-396v-44C-665.4-17.6-269.4-17.6-269.4-17.6z M-665.4,378.4V44
		h396v334.4L-665.4,378.4L-665.4,378.4z"/>
	<rect x="-647.8" y="-4.4" class="st2" width="30.8" height="17.6"/>
	<rect x="-603.8" y="-4.4" class="st2" width="30.8" height="17.6"/>
	<rect x="-317.8" y="-4.4" class="st2" width="30.8" height="17.6"/>
	<path class="st0" d="M-467.4,158.4c19.4,0,35.2,15.8,35.2,35.2s-15.8,35.2-35.2,35.2s-35.2-15.8-35.2-35.2
		S-486.8,158.4-467.4,158.4L-467.4,158.4z"/>
	<rect x="-348.6" y="96.8" class="st2" width="17.6" height="17.6"/>
	<rect x="-322.2" y="96.8" class="st2" width="17.6" height="17.6"/>
	<rect x="-295.8" y="96.8" class="st2" width="17.6" height="17.6"/>
	<rect x="-656.6" y="272.8" class="st2" width="17.6" height="17.6"/>
	<rect x="-630.2" y="272.8" class="st2" width="17.6" height="17.6"/>
	<rect x="-603.8" y="272.8" class="st2" width="17.6" height="17.6"/>
	<rect x="-625.8" y="343.2" class="st2" width="316.8" height="17.6"/>
</g>
<g>
	<path class="st3" d="M-388.4,172.5c-8.5-28.2-34.7-48.8-65.7-48.8c-21.8,0-41.2,10.2-53.8,26.1c-3.4-1.2-7-1.9-10.8-1.9
		c-17.8,0-32.3,14.5-32.3,32.3c0,0.3,0,0.5,0,0.8c-18.4,3.7-32.3,20-32.3,39.6c0,22.3,18.1,40.4,40.4,40.4h149.4
		c24.5,0,44.4-19.9,44.4-44.4C-349.2,193.8-366.3,175.1-388.4,172.5L-388.4,172.5z"/>
	<path class="st3" d="M-547,228.7c0-18.2,12-33.5,28.5-38.6c1.1-10.1,9.6-17.9,20-17.9c0.7,0,1.5,0.1,2.2,0.2
		c7-25.7,30.4-44.6,58.4-44.6c2.9,0,5.8,0.2,8.6,0.6c-7.7-3-16-4.7-24.8-4.7c-21.8,0-41.2,10.2-53.8,26.1c-3.4-1.2-7-1.9-10.8-1.9
		c-17.8,0-32.3,14.5-32.3,32.3c0,0.3,0,0.5,0,0.8c-18.4,3.7-32.3,20-32.3,39.6c0,22.3,18.1,40.4,40.4,40.4h12.2
		C-540.6,253.6-547,241.9-547,228.7L-547,228.7z"/>
	<path class="st3" d="M-481,276.9"/>
	<path class="st3" d="M-481,247.5"/>
	<path class="st3" d="M-488.4,214.5"/>
	<path class="st3" d="M-444.3,232.8"/>
	<path class="st3" d="M-444.3,247.5"/>
	<path class="st3" d="M-370.9,262.2"/>
	<path class="st3" d="M-407.6,262.2"/>
	<path class="st3" d="M-392.9,262.2"/>
</g>
</svg>
