<?xml version="1.0" encoding="utf-8"?>
<!-- Generator: Adobe Illustrator 19.0.0, SVG Export Plug-In . SVG Version: 6.00 Build 0)  -->
<svg version="1.1" id="Layer_1" xmlns="http://www.w3.org/2000/svg" xmlns:xlink="http://www.w3.org/1999/xlink" x="0px" y="0px"
	 viewBox="16 -15.2 431.2 431.2" style="enable-background:new 16 -15.2 431.2 431.2;" xml:space="preserve">
<style type="text/css">
	.st0{fill:#FEFEFE;}
	.st1{fill:#FAFAFA;}
	.st2{fill:#374561;}
	.st3{fill:#01D6A2;}
	.st4{fill:#FAFAFA;stroke:#374561;stroke-width:18;stroke-miterlimit:10;}
</style>
<g>
	<path class="st0" d="M457.2,29.4v377.5c0,5.3-4.4,9.7-9.7,9.7H11.9c-5.3,0-9.7-4.4-9.7-9.7V29.4H457.2z"/>
	<path class="st1" d="M436.5-6.4v52.8H22.9V-6.4c0-4.8,4-8.8,8.8-8.8h396C432.5-15.2,436.5-11.2,436.5-6.4L436.5-6.4z"/>
	<path class="st2" d="M427.7-13.4h-396c-9.7,0-17.6,7.9-17.6,17.6v396c0,9.7,7.9,17.6,17.6,17.6h396c9.7,0,17.6-7.9,17.6-17.6V4.2
		C445.3-5.5,437.4-13.4,427.7-13.4L427.7-13.4z M427.7,4.2v44h-396v-44H427.7z M31.7,400.2V65.8h396v334.4H31.7L31.7,400.2z"/>
	<rect x="49.3" y="17.4" class="st2" width="30.8" height="17.6"/>
	<rect x="93.3" y="17.4" class="st2" width="30.8" height="17.6"/>
	<rect x="379.3" y="17.4" class="st2" width="30.8" height="17.6"/>
	<path class="st0" d="M229.7,180.2c19.4,0,35.2,15.8,35.2,35.2s-15.8,35.2-35.2,35.2s-35.2-15.8-35.2-35.2S210.3,180.2,229.7,180.2
		L229.7,180.2z"/>
	<rect x="348.5" y="118.6" class="st3" width="17.6" height="17.6"/>
	<rect x="374.9" y="118.6" class="st3" width="17.6" height="17.6"/>
	<rect x="401.3" y="118.6" class="st3" width="17.6" height="17.6"/>
	<rect x="40.5" y="294.6" class="st3" width="17.6" height="17.6"/>
	<rect x="66.9" y="294.6" class="st3" width="17.6" height="17.6"/>
	<rect x="93.3" y="294.6" class="st3" width="17.6" height="17.6"/>
	<rect x="71.3" y="365" class="st2" width="316.8" height="17.6"/>
</g>
<g>
	<path class="st4" d="M308.7,194.3c-8.5-28.2-34.7-48.8-65.7-48.8c-21.8,0-41.2,10.2-53.8,26.1c-3.4-1.2-7-1.9-10.8-1.9
		c-17.8,0-32.3,14.5-32.3,32.3c0,0.3,0,0.5,0,0.8c-18.4,3.7-32.3,20-32.3,39.6c0,22.3,18.1,40.4,40.4,40.4h149.4
		c24.5,0,44.4-19.9,44.4-44.4C347.9,215.6,330.8,196.9,308.7,194.3L308.7,194.3z"/>
	<path class="st2" d="M216.1,298.7"/>
	<path class="st2" d="M216.1,269.3"/>
	<path class="st2" d="M208.7,236.3"/>
	<path class="st2" d="M252.8,254.6"/>
	<path class="st2" d="M252.8,269.3"/>
	<path class="st2" d="M326.2,284"/>
	<path class="st2" d="M289.5,284"/>
	<path class="st2" d="M304.2,284"/>
</g>
</svg>
