<?xml version="1.0" encoding="utf-8"?>
<!-- Generator: Adobe Illustrator 19.0.0, SVG Export Plug-In . SVG Version: 6.00 Build 0)  -->
<svg version="1.1" id="Layer_1" xmlns="http://www.w3.org/2000/svg" xmlns:xlink="http://www.w3.org/1999/xlink" x="0px" y="0px"
	 viewBox="25 -24.4 449.3 449.4" style="enable-background:new 25 -24.4 449.3 449.4;" xml:space="preserve">
<style type="text/css">
	.st0{fill:#374561;}
	.st1{fill:#01D6A2;}
</style>
<g>
	<path class="st0" d="M474.4,72.9c0-0.7,0-1.5-0.7-2.2v-0.8c-0.8-0.7-0.8-1.4-1.5-2.2l-89.9-89.9c-0.8-0.7-1.5-0.7-2.2-1.5h-0.8
		c-0.7,0-1.5-0.7-2.2-0.7H32.5c-4.5,0-7.5,3-7.5,7.5v67.4h15v-60h329.5v82.4c0,4.5,3,7.5,7.5,7.5h82.4v134.8h15V72.9z M384.5,65.4V1
		L449,65.5h-64.5V65.4z"/>
	<path class="st0" d="M466.9,290.1H446c-0.8-0.8-0.8-2.2-1.5-3l15-13.5c1.5-1.5,2.2-3,2.2-5.3s-0.8-3.7-2.2-5.3L428,231.5
		c-3-3-7.5-3-10.4,0l-14.3,14.3c-1.5-0.7-2.2-0.7-3-1.5v-21.8c0-4.5-2.9-7.5-7.5-7.5h-44.9c-4.5,0-7.5,3-7.5,7.5v20.2
		c-0.7,0.8-2.2,0.8-3,1.5l-14.3-14.3c-3-3-7.5-3-10.5,0l-31.5,31.5c-1.5,1.5-2.2,3-2.2,5.3s0.7,3.7,2.2,5.3l14.3,14.3
		c-0.7,1.5-0.7,2.2-1.5,3h-21.8c-4.5,0-7.5,3-7.5,7.5v44.9c0,4.5,3,7.5,7.5,7.5H293c0.7,0.7,0.7,2.2,1.5,2.9l-14.3,14.3
		c-1.5,1.5-2.2,2.9-2.2,5.3c0,2.2,0.8,3.7,2.2,5.3l31.5,31.5c3,3,7.5,3,10.5,0l14.3-14.3c1.5,0.8,2.2,0.8,3,1.5v21.8
		c0,4.5,3,7.5,7.5,7.5h44.9c4.5,0,7.5-3,7.5-7.5v-20.9c0.7-0.8,2.2-0.8,3-1.5l14.3,14.3c3,3,7.5,3,10.5,0l31.5-31.5
		c1.5-1.5,2.2-3,2.2-5.3s-0.7-3.7-2.2-5.3L444.4,353c0.7-0.8,0.7-2.2,1.5-3h20.9c4.5,0,7.5-3,7.5-7.5v-44.9
		C474.4,293.1,471.3,290.1,466.9,290.1L466.9,290.1z M459.4,335h-18.7c-3.7,0-6.7,3-7.5,6c0,1.5-3,7.5-3.7,9s-1.5,3-1.5,4.5
		c0,2.2,0.8,3.7,2.2,5.3l12.8,12.8l-20.9,20.9l-12.8-12.8c-1.5-1.5-3-2.2-5.3-2.2s-3,0.8-4.5,1.5c-1.5,0.8-7.5,3-9,3.7
		c-3.7,0.7-6,3.7-6,7.5v18.7h-30v-18.7c0-2.2-0.7-3.7-2.2-5.3c-1.5-2.2-14.3-7.5-17.2-7.5c-2.2,0-3.7,0.8-5.3,2.2L317,393.4
		l-20.9-20.9l12.8-12.8c1.5-1.5,2.2-3,2.2-5.3c0-1.5-0.7-3-1.5-4.5c-0.7-1.5-3-7.5-3.7-9c-0.7-3.7-3.7-6-7.5-6h-18.7v-30h18.7
		c2.2,0,3.7-0.7,5.3-2.2c2.2-1.5,7.5-14.3,7.5-17.2c0-2.2-0.7-3.7-2.2-5.3l-12.8-12.8l20.9-20.9l12.8,12.8c1.5,1.5,3,2.2,5.3,2.2
		c2.2,0,3-0.7,4.5-1.5c1.5-0.7,7.5-3,9-3.7c3.7-0.7,6-3.7,6-7.5v-18.6h30v18.7c0,2.2,0.8,3.7,2.2,5.3c1.5,2.2,14.3,7.5,17.2,7.5
		c2.2,0,3.7-0.7,5.3-2.2l12.8-12.8l20.9,20.9l-12.8,12.8c-1.5,1.5-2.2,3-2.2,5.3c0,1.5,0.8,3,1.5,4.5c0.8,1.5,3,7.5,3.7,9
		c0.7,3.7,3.7,6,7.5,6h18.7V335H459.4z"/>
	<path class="st0" d="M369.5,290.1c-16.5,0-30,13.5-30,30s13.5,30,30,30s30-13.5,30-30C399.5,303.5,386,290.1,369.5,290.1
		L369.5,290.1z M369.5,335c-8.2,0-15-6.7-15-15s6.8-15,15-15s15,6.8,15,15S377.7,335,369.5,335L369.5,335z"/>
	<path class="st1" d="M211.5,166.5l-30-59.9c-2.2-5.3-11.2-5.3-13.5,0l-30,59.9c-1.4,1.5-1.4,3.7-0.7,6v252.4h15V177.7h15v247.1h15
		V177.7h15v247.1h14.9V171C212.3,169.5,212.3,168,211.5,166.5L211.5,166.5z M156.8,162.8l18-35.9l18,35.9H156.8z"/>
	<path class="st0" d="M107.4,72.9H32.5c-4.5,0-7.5,3-7.5,7.5v344.5h15v-22.5h37.4v-15H40V335h37.4v-15H40v-59.9h37.4v-15H40v-59.9
		h37.4v-15H40v-44.9h37.4v-15H40V87.8h59.9v337h15V80.4C114.9,75.9,111.9,72.9,107.4,72.9L107.4,72.9z"/>
	<rect x="62.5" y="13" class="st0" width="89.9" height="15"/>
	<rect x="167.3" y="13" class="st0" width="30" height="15"/>
	<rect x="122.4" y="42.9" class="st0" width="74.9" height="15"/>
	<rect x="287.1" y="102.8" class="st0" width="149.8" height="15"/>
	<rect x="242.2" y="140.3" class="st0" width="134.8" height="15"/>
	<rect x="242.2" y="177.7" class="st0" width="194.7" height="15"/>
	<rect x="242.2" y="207.7" class="st0" width="44.9" height="15"/>
	<rect x="392" y="140.3" class="st0" width="44.9" height="15"/>
</g>
</svg>
