<?xml version="1.0" encoding="utf-8"?>
<!-- Generator: Adobe Illustrator 19.0.0, SVG Export Plug-In . SVG Version: 6.00 Build 0)  -->
<svg version="1.1" id="Layer_1" xmlns="http://www.w3.org/2000/svg" xmlns:xlink="http://www.w3.org/1999/xlink" x="0px" y="0px"
	 viewBox="-674 -44.4 449.3 449.4" style="enable-background:new -674 -44.4 449.3 449.4;" xml:space="preserve">
<style type="text/css">
	.st0{fill:#424242;}
	.st1{fill:#FFCC1F;}
	.st2{fill:#5B8DEF;}
</style>
<g>
	<path class="st0" d="M-222.3,52.9c0-0.7,0-1.5-0.7-2.2v-0.8c-0.8-0.7-0.8-1.4-1.5-2.2l-89.9-89.9c-0.8-0.7-1.5-0.7-2.2-1.5h-0.8
		c-0.7,0-1.5-0.7-2.2-0.7h-344.6c-4.5,0-7.5,3-7.5,7.5v67.4h15v-60h329.5v82.4c0,4.5,3,7.5,7.5,7.5h82.4v134.8h15V52.9z
		 M-312.2,45.4V-19l64.5,64.5h-64.5V45.4z"/>
	<path class="st0" d="M-229.8,270.1h-20.9c-0.8-0.8-0.8-2.2-1.5-3l15-13.5c1.5-1.5,2.2-3,2.2-5.3s-0.8-3.7-2.2-5.3l-31.5-31.5
		c-3-3-7.5-3-10.4,0l-14.3,14.3c-1.5-0.7-2.2-0.7-3-1.5v-21.8c0-4.5-2.9-7.5-7.5-7.5h-44.9c-4.5,0-7.5,3-7.5,7.5v20.2
		c-0.7,0.8-2.2,0.8-3,1.5l-14.3-14.3c-3-3-7.5-3-10.5,0l-31.5,31.5c-1.5,1.5-2.2,3-2.2,5.3s0.7,3.7,2.2,5.3l14.3,14.3
		c-0.7,1.5-0.7,2.2-1.5,3h-21.8c-4.5,0-7.5,3-7.5,7.5v44.9c0,4.5,3,7.5,7.5,7.5h20.9c0.7,0.7,0.7,2.2,1.5,2.9l-14.3,14.3
		c-1.5,1.5-2.2,2.9-2.2,5.3c0,2.2,0.8,3.7,2.2,5.3l31.5,31.5c3,3,7.5,3,10.5,0l14.3-14.3c1.5,0.8,2.2,0.8,3,1.5v21.8
		c0,4.5,3,7.5,7.5,7.5h44.9c4.5,0,7.5-3,7.5-7.5v-20.9c0.7-0.8,2.2-0.8,3-1.5l14.3,14.3c3,3,7.5,3,10.5,0l31.5-31.5
		c1.5-1.5,2.2-3,2.2-5.3s-0.7-3.7-2.2-5.3l-14.3-14.3c0.7-0.8,0.7-2.2,1.5-3h20.9c4.5,0,7.5-3,7.5-7.5v-44.9
		C-222.3,273.1-225.4,270.1-229.8,270.1L-229.8,270.1z M-237.3,315H-256c-3.7,0-6.7,3-7.5,6c0,1.5-3,7.5-3.7,9s-1.5,3-1.5,4.5
		c0,2.2,0.8,3.7,2.2,5.3l12.8,12.8l-20.9,20.9l-12.8-12.8c-1.5-1.5-3-2.2-5.3-2.2s-3,0.8-4.5,1.5c-1.5,0.8-7.5,3-9,3.7
		c-3.7,0.7-6,3.7-6,7.5v18.7h-30v-18.7c0-2.2-0.7-3.7-2.2-5.3c-1.5-2.2-14.3-7.5-17.2-7.5c-2.2,0-3.7,0.8-5.3,2.2l-12.8,12.8
		l-20.9-20.9l12.8-12.8c1.5-1.5,2.2-3,2.2-5.3c0-1.5-0.7-3-1.5-4.5c-0.7-1.5-3-7.5-3.7-9c-0.7-3.7-3.7-6-7.5-6H-417v-30h18.7
		c2.2,0,3.7-0.7,5.3-2.2c2.2-1.5,7.5-14.3,7.5-17.2c0-2.2-0.7-3.7-2.2-5.3l-12.8-12.8l20.9-20.9l12.8,12.8c1.5,1.5,3,2.2,5.3,2.2
		c2.2,0,3-0.7,4.5-1.5c1.5-0.7,7.5-3,9-3.7c3.7-0.7,6-3.7,6-7.5v-18.6h30v18.7c0,2.2,0.8,3.7,2.2,5.3c1.5,2.2,14.3,7.5,17.2,7.5
		c2.2,0,3.7-0.7,5.3-2.2l12.8-12.8l20.9,20.9l-12.8,12.8c-1.5,1.5-2.2,3-2.2,5.3c0,1.5,0.8,3,1.5,4.5c0.8,1.5,3,7.5,3.7,9
		c0.7,3.7,3.7,6,7.5,6h18.7V315H-237.3z"/>
	<path class="st0" d="M-327.2,270.1c-16.5,0-30,13.5-30,30s13.5,30,30,30s30-13.5,30-30C-297.2,283.5-310.7,270.1-327.2,270.1
		L-327.2,270.1z M-327.2,315c-8.2,0-15-6.7-15-15s6.8-15,15-15s15,6.8,15,15S-319,315-327.2,315L-327.2,315z"/>
	<path class="st1" d="M-485.2,146.5l-30-59.9c-2.2-5.3-11.2-5.3-13.5,0l-30,59.9c-1.4,1.5-1.4,3.7-0.7,6v252.4h15V157.7h15v247.1h15
		V157.7h15v247.1h14.9V151C-484.4,149.5-484.4,148-485.2,146.5L-485.2,146.5z M-539.9,142.8l18-35.9l18,35.9H-539.9z"/>
	<path class="st0" d="M-589.3,52.9h-74.9c-4.5,0-7.5,3-7.5,7.5v344.5h15v-22.5h37.4v-15h-37.4V315h37.4v-15h-37.4v-59.9h37.4v-15
		h-37.4v-59.9h37.4v-15h-37.4v-44.9h37.4v-15h-37.4V67.8h59.9v337h15V60.4C-581.8,55.9-584.8,52.9-589.3,52.9L-589.3,52.9z"/>
	<rect x="-634.2" y="-7" class="st2" width="89.9" height="15"/>
	<rect x="-529.4" y="-7" class="st2" width="30" height="15"/>
	<rect x="-574.3" y="22.9" class="st2" width="74.9" height="15"/>
	<rect x="-409.6" y="82.8" class="st2" width="149.8" height="15"/>
	<rect x="-454.5" y="120.3" class="st2" width="134.8" height="15"/>
	<rect x="-454.5" y="157.7" class="st2" width="194.7" height="15"/>
	<rect x="-454.5" y="187.7" class="st2" width="44.9" height="15"/>
	<rect x="-304.7" y="120.3" class="st2" width="44.9" height="15"/>
</g>
</svg>
