<?xml version="1.0" encoding="utf-8"?>
<!-- Generator: Adobe Illustrator 19.0.0, SVG Export Plug-In . SVG Version: 6.00 Build 0)  -->
<svg version="1.1" id="Layer_1" xmlns="http://www.w3.org/2000/svg" xmlns:xlink="http://www.w3.org/1999/xlink" x="0px" y="0px"
	 viewBox="-683 -35.2 431.2 431.2" style="enable-background:new -683 -35.2 431.2 431.2;" xml:space="preserve">
<style type="text/css">
	.st0{fill:#FEFEFE;}
	.st1{fill:#FFCC1F;}
	.st2{fill:#424242;}
	.st3{fill:#5B8DEF;}
</style>
<g>
	<path class="st0" d="M-260.6,37.6v343.2c0,4.8-4,8.8-8.8,8.8h-396c-4.8,0-8.8-4-8.8-8.8V37.6H-260.6z"/>
	<path class="st1" d="M-260.6-15.2v52.8h-413.6v-52.8c0-4.8,4-8.8,8.8-8.8h396C-264.6-24-260.6-20-260.6-15.2L-260.6-15.2z"/>
	<path class="st2" d="M-269.4-32.8h-396c-9.7,0-17.6,7.9-17.6,17.6v396c0,9.7,7.9,17.6,17.6,17.6h396c9.7,0,17.6-7.9,17.6-17.6v-396
		C-251.8-24.9-259.7-32.8-269.4-32.8L-269.4-32.8z M-269.4-15.2v44h-396v-44H-269.4z M-665.4,380.8V46.4h396v334.4H-665.4z"/>
	<rect x="-647.8" y="-2" class="st2" width="30.8" height="17.6"/>
	<rect x="-603.8" y="-2" class="st2" width="30.8" height="17.6"/>
	<rect x="-317.8" y="-2" class="st2" width="30.8" height="17.6"/>
	<path class="st3" d="M-348.6,178.4v35.2c0,4.8-4,8.8-8.8,8.8h-21.5c-1.9,6.2-4.2,12.1-7.3,17.5l15.2,15.2c3.4,3.4,3.4,9,0,12.4
		l-25,25c-3.4,3.4-9,3.4-12.4,0l-15.2-15.2c-5.5,3-11.3,5.4-17.5,7.3V306c0,4.8-4,8.8-8.8,8.8h-35.2c-4.8,0-8.8-4-8.8-8.8v-21.5
		c-6.2-1.9-12.1-4.2-17.5-7.3l-15.2,15.2c-3.4,3.4-9,3.4-12.4,0l-25-25c-3.4-3.4-3.4-9,0-12.4l15.2-15.2c-3-5.5-5.4-11.3-7.3-17.5
		h-21.3c-4.8,0-8.8-4-8.8-8.8v-35.2c0-4.8,4-8.8,8.8-8.8h21.4c1.9-6.2,4.2-12.1,7.3-17.5l-15.2-15.2c-3.4-3.4-3.4-9,0-12.4
		l24.9-24.9c3.4-3.4,9-3.4,12.4,0l15.2,15.3c5.5-3,11.3-5.4,17.5-7.3V85.9c0-4.8,4-8.8,8.8-8.8h35.2c4.8,0,8.8,4,8.8,8.8v21.4
		c6.2,1.9,12.1,4.2,17.5,7.3l15.2-15.2c3.4-3.4,9-3.4,12.4,0l24.9,24.9c3.4,3.4,3.4,9,0,12.4l-15.2,15.2c3,5.5,5.4,11.3,7.3,17.5
		h21.6C-352.6,169.6-348.6,173.6-348.6,178.4L-348.6,178.4z"/>
	<path class="st2" d="M-449.8,323.6H-485c-9.7,0-17.6-7.9-17.6-17.6v-15.2c-2.4-0.9-4.7-1.9-7-2.9l-10.8,10.7
		c-3.3,3.3-7.7,5.2-12.4,5.2c-4.7,0-9.1-1.9-12.4-5.2l-24.9-24.8c-3.3-3.3-5.2-7.7-5.2-12.4c0-4.7,1.9-9.1,5.2-12.4l10.7-10.7
		c-1-2.2-2-4.6-2.9-7h-15.1c-9.7,0-17.6-7.9-17.6-17.6v-35.2c0-9.7,7.9-17.6,17.6-17.6h15.2c0.9-2.4,1.9-4.7,2.9-7l-10.7-10.8
		c-3.3-3.3-5.2-7.7-5.2-12.4c0-4.7,1.9-9.1,5.2-12.4l24.9-24.9c3.3-3.3,7.7-5.2,12.4-5.2c4.7,0,9.1,1.9,12.4,5.2l10.8,10.7
		c2.2-1,4.6-2,7-2.9V86.1c0-9.7,7.9-17.6,17.6-17.6h35.2c9.7,0,17.6,7.9,17.6,17.6v15.2c2.4,0.9,4.7,1.9,7,2.9l10.8-10.7
		c3.3-3.3,7.7-5.2,12.4-5.2s9.1,1.9,12.4,5.2l24.9,24.9c3.3,3.3,5.2,7.7,5.2,12.4c0,4.7-1.9,9.1-5.2,12.4l-10.7,10.8
		c1,2.2,2,4.6,2.9,7h15c9.7,0,17.6,7.9,17.6,17.6v35.2c0,9.7-7.9,17.6-17.6,17.6h-15.2c-0.9,2.4-1.9,4.7-2.9,7l10.7,10.8
		c3.3,3.3,5.2,7.7,5.2,12.4s-1.9,9.1-5.2,12.4l-24.8,24.8c-3.3,3.3-7.7,5.2-12.4,5.2s-9.1-1.9-12.4-5.2l-10.8-10.7
		c-2.2,1-4.6,2-7,2.9v15C-432.2,315.7-440.1,323.6-449.8,323.6L-449.8,323.6z M-511.3,268.5c1.4,0,2.9,0.3,4.2,1.1
		c4.7,2.5,10,4.7,15.8,6.5c3.7,1.1,6.3,4.5,6.3,8.5v21.5h35.2v-21.5c0-3.9,2.5-7.3,6.3-8.5c5.8-1.8,11.1-4,15.8-6.5
		c3.4-1.9,7.7-1.3,10.5,1.4l15.2,15.2l24.9-24.9l-15.3-15.1c-2.8-2.8-3.3-7-1.4-10.5c2.5-4.7,4.7-10,6.5-15.8
		c1.1-3.7,4.5-6.3,8.5-6.3h21.4v-35.2h-21.5c-3.8,0-7.3-2.5-8.5-6.3c-1.8-5.8-4-11.1-6.5-15.8c-1.9-3.4-1.3-7.7,1.4-10.4l15.2-15.2
		l-24.8-24.9l-15.2,15.2c-2.8,2.8-7,3.3-10.5,1.4c-4.7-2.5-10-4.7-15.8-6.5c-3.7-1.1-6.3-4.5-6.3-8.5V85.9h-35.2v21.4
		c0,3.9-2.5,7.3-6.3,8.5c-5.8,1.8-11.1,4-15.8,6.5c-3.4,1.9-7.7,1.3-10.4-1.4l-15.1-15.1l-24.9,24.9l15.2,15.1
		c2.8,2.8,3.3,7,1.4,10.4c-2.5,4.7-4.7,10-6.5,15.8c-1.1,3.7-4.5,6.3-8.5,6.3h-21.4v35.2h21.4c3.9,0,7.3,2.5,8.5,6.3
		c1.8,5.8,4,11.1,6.5,15.8c1.9,3.4,1.3,7.7-1.4,10.5l-15.2,15.2l24.9,24.9l15.2-15.2C-515.8,269.4-513.6,268.5-511.3,268.5
		L-511.3,268.5z"/>
	<path class="st0" d="M-467.4,160.8c19.5,0,35.2,15.7,35.2,35.2s-15.7,35.2-35.2,35.2s-35.2-15.7-35.2-35.2
		S-486.9,160.8-467.4,160.8L-467.4,160.8z"/>
	<path class="st2" d="M-467.4,240c-24.3,0-44-19.7-44-44s19.7-44,44-44s44,19.7,44,44S-443.1,240-467.4,240L-467.4,240z
		 M-467.4,169.6c-14.5,0-26.4,11.9-26.4,26.4s11.9,26.4,26.4,26.4S-441,210.5-441,196C-441,181.5-452.9,169.6-467.4,169.6
		L-467.4,169.6z"/>
	<rect x="-348.6" y="99.2" class="st2" width="17.6" height="17.6"/>
	<rect x="-322.2" y="99.2" class="st2" width="17.6" height="17.6"/>
	<rect x="-295.8" y="99.2" class="st2" width="17.6" height="17.6"/>
	<rect x="-656.6" y="275.2" class="st2" width="17.6" height="17.6"/>
	<rect x="-630.2" y="275.2" class="st2" width="17.6" height="17.6"/>
	<rect x="-603.8" y="275.2" class="st2" width="17.6" height="17.6"/>
	<rect x="-625.8" y="345.6" class="st2" width="316.8" height="17.6"/>
</g>
</svg>
