<?xml version="1.0" encoding="utf-8"?>
<!-- Generator: Adobe Illustrator 19.0.0, SVG Export Plug-In . SVG Version: 6.00 Build 0)  -->
<svg version="1.1" id="Layer_1" xmlns="http://www.w3.org/2000/svg" xmlns:xlink="http://www.w3.org/1999/xlink" x="0px" y="0px"
	 viewBox="16 -15.2 431.2 431.2" style="enable-background:new 16 -15.2 431.2 431.2;" xml:space="preserve">
<style type="text/css">
	.st0{fill:#FAFAFA;}
	.st1{fill:#FA5370;}
	.st2{fill:#374561;}
	.st3{fill:#01D6A2;}
</style>
<g>
	<path class="st0" d="M438.4,55.2v343.2c0,4.8-4,8.8-8.8,8.8h-396c-4.8,0-8.8-4-8.8-8.8V55.2H438.4z"/>
	<path class="st1" d="M438.4,2.4v52.8H24.8V2.4c0-4.8,4-8.8,8.8-8.8h396C434.4-6.4,438.4-2.4,438.4,2.4L438.4,2.4z"/>
	<path class="st2" d="M429.6-15.2h-396C23.9-15.2,16-7.3,16,2.4v396c0,9.7,7.9,17.6,17.6,17.6h396c9.7,0,17.6-7.9,17.6-17.6V2.4
		C447.2-7.3,439.3-15.2,429.6-15.2L429.6-15.2z M429.6,2.4v44h-396v-44C33.6,2.4,429.6,2.4,429.6,2.4z M33.6,398.4V64h396v334.4
		H33.6z"/>
	<rect x="51.2" y="15.6" class="st2" width="30.8" height="17.6"/>
	<rect x="95.2" y="15.6" class="st2" width="30.8" height="17.6"/>
	<rect x="381.2" y="15.6" class="st2" width="30.8" height="17.6"/>
	<path class="st3" d="M350.4,196v35.2c0,4.8-4,8.8-8.8,8.8h-21.5c-1.9,6.2-4.2,12.1-7.3,17.5l15.2,15.2c3.4,3.4,3.4,9,0,12.4l-25,25
		c-3.4,3.4-9,3.4-12.4,0l-15.2-15.2c-5.5,3-11.3,5.4-17.5,7.3v21.4c0,4.8-4,8.8-8.8,8.8h-35.2c-4.8,0-8.8-4-8.8-8.8v-21.5
		c-6.2-1.9-12.1-4.2-17.5-7.3L172.4,310c-3.4,3.4-9,3.4-12.4,0l-25-25c-3.4-3.4-3.4-9,0-12.4l15.2-15.2c-3-5.5-5.4-11.3-7.3-17.5
		h-21.3c-4.8,0-8.8-4-8.8-8.8v-35.2c0-4.8,4-8.8,8.8-8.8H143c1.9-6.2,4.2-12.1,7.3-17.5l-15.2-15.2c-3.4-3.4-3.4-9,0-12.4l24.9-24.9
		c3.4-3.4,9-3.4,12.4,0l15.2,15.3c5.5-3,11.3-5.4,17.5-7.3v-21.6c0-4.8,4-8.8,8.8-8.8h35.2c4.8,0,8.8,4,8.8,8.8v21.4
		c6.2,1.9,12.1,4.2,17.5,7.3l15.2-15.2c3.4-3.4,9-3.4,12.4,0l24.9,24.9c3.4,3.4,3.4,9,0,12.4l-15.2,15.2c3,5.5,5.4,11.3,7.3,17.5
		h21.6C346.4,187.2,350.4,191.2,350.4,196L350.4,196z"/>
	<path class="st2" d="M249.2,341.2H214c-9.7,0-17.6-7.9-17.6-17.6v-15.2c-2.4-0.9-4.7-1.9-7-2.9l-10.8,10.7
		c-3.3,3.3-7.7,5.2-12.4,5.2s-9.1-1.9-12.4-5.2l-24.9-24.8c-3.3-3.3-5.2-7.7-5.2-12.4c0-4.7,1.9-9.1,5.2-12.4l10.7-10.7
		c-1-2.2-2-4.6-2.9-7h-15.1c-9.7,0-17.6-7.9-17.6-17.6v-35.2c0-9.7,7.9-17.6,17.6-17.6h15.2c0.9-2.4,1.9-4.7,2.9-7L129,160.7
		c-3.3-3.3-5.2-7.7-5.2-12.4s1.9-9.1,5.2-12.4l24.9-24.9c3.3-3.3,7.7-5.2,12.4-5.2s9.1,1.9,12.4,5.2l10.8,10.7c2.2-1,4.6-2,7-2.9
		v-15.1c0-9.7,7.9-17.6,17.6-17.6h35.2c9.7,0,17.6,7.9,17.6,17.6v15.2c2.4,0.9,4.7,1.9,7,2.9l10.8-10.7c3.3-3.3,7.7-5.2,12.4-5.2
		s9.1,1.9,12.4,5.2l24.9,24.9c3.3,3.3,5.2,7.7,5.2,12.4c0,4.7-1.9,9.1-5.2,12.4l-10.7,10.8c1,2.2,2,4.6,2.9,7h15
		c9.7,0,17.6,7.9,17.6,17.6v35.2c0,9.7-7.9,17.6-17.6,17.6h-15.2c-0.9,2.4-1.9,4.7-2.9,7l10.7,10.8c3.3,3.3,5.2,7.7,5.2,12.4
		s-1.9,9.1-5.2,12.4l-24.8,24.8c-3.3,3.3-7.7,5.2-12.4,5.2s-9.1-1.9-12.4-5.2l-10.8-10.7c-2.2,1-4.6,2-7,2.9v15
		C266.8,333.3,258.9,341.2,249.2,341.2L249.2,341.2z M187.7,286.1c1.4,0,2.9,0.3,4.2,1.1c4.7,2.5,10,4.7,15.8,6.5
		c3.7,1.1,6.3,4.5,6.3,8.5v21.5h35.2v-21.5c0-3.9,2.5-7.3,6.3-8.5c5.8-1.8,11.1-4,15.8-6.5c3.4-1.9,7.7-1.3,10.5,1.4l15.2,15.2
		l24.9-24.9l-15.3-15.1c-2.8-2.8-3.3-7-1.4-10.5c2.5-4.7,4.7-10,6.5-15.8c1.1-3.7,4.5-6.3,8.5-6.3h21.4V196h-21.5
		c-3.8,0-7.3-2.5-8.5-6.3c-1.8-5.8-4-11.1-6.5-15.8c-1.9-3.4-1.3-7.7,1.4-10.4l15.2-15.2l-24.8-24.9l-15.2,15.2
		c-2.8,2.8-7,3.3-10.5,1.4c-4.7-2.5-10-4.7-15.8-6.5c-3.7-1.1-6.3-4.5-6.3-8.5v-21.5h-35.2v21.4c0,3.9-2.5,7.3-6.3,8.5
		c-5.8,1.8-11.1,4-15.8,6.5c-3.4,1.9-7.7,1.3-10.4-1.4l-15.1-15.1l-24.9,24.9l15.2,15.1c2.8,2.8,3.3,7,1.4,10.4
		c-2.5,4.7-4.7,10-6.5,15.8c-1.1,3.7-4.5,6.3-8.5,6.3h-21.4v35.2H143c3.9,0,7.3,2.5,8.5,6.3c1.8,5.8,4,11.1,6.5,15.8
		c1.9,3.4,1.3,7.7-1.4,10.5l-15.2,15.2l24.9,24.9l15.2-15.2C183.2,287,185.4,286.1,187.7,286.1L187.7,286.1z"/>
	<path class="st0" d="M231.6,178.4c19.5,0,35.2,15.7,35.2,35.2s-15.7,35.2-35.2,35.2s-35.2-15.7-35.2-35.2S212.1,178.4,231.6,178.4
		L231.6,178.4z"/>
	<path class="st2" d="M231.6,257.6c-24.3,0-44-19.7-44-44s19.7-44,44-44s44,19.7,44,44S255.9,257.6,231.6,257.6L231.6,257.6z
		 M231.6,187.2c-14.5,0-26.4,11.9-26.4,26.4s11.9,26.4,26.4,26.4s26.4-11.9,26.4-26.4S246.1,187.2,231.6,187.2L231.6,187.2z"/>
	<rect x="350.4" y="116.8" class="st2" width="17.6" height="17.6"/>
	<rect x="376.8" y="116.8" class="st2" width="17.6" height="17.6"/>
	<rect x="403.2" y="116.8" class="st2" width="17.6" height="17.6"/>
	<rect x="42.4" y="292.8" class="st2" width="17.6" height="17.6"/>
	<rect x="68.8" y="292.8" class="st2" width="17.6" height="17.6"/>
	<rect x="95.2" y="292.8" class="st2" width="17.6" height="17.6"/>
	<rect x="73.2" y="363.2" class="st2" width="316.8" height="17.6"/>
</g>
</svg>
