<?xml version="1.0" encoding="utf-8"?>
<!-- Generator: Adobe Illustrator 19.0.0, SVG Export Plug-In . SVG Version: 6.00 Build 0)  -->
<svg version="1.1" id="Layer_1" xmlns="http://www.w3.org/2000/svg" xmlns:xlink="http://www.w3.org/1999/xlink" x="0px" y="0px"
	 viewBox="-33 35 32 32" style="enable-background:new -33 35 32 32;" xml:space="preserve">
<style type="text/css">
	.st0{fill:#FFFFFF;}
</style>
<path class="st0" d="M-20,65h5c1.7,0,3-1.3,3-3c0-0.5-0.1-1-0.4-1.5C-11.6,60-11,59.1-11,58c0-0.8-0.3-1.5-0.8-2
	c0.5-0.5,0.8-1.2,0.8-2c0-0.3-0.1-0.7-0.2-1H-4c1.7,0,3-1.3,3-3s-1.3-3-3-3h-12.3l2.9-5.5c0.3-0.5,0.4-1,0.4-1.5c0-1.7-1.3-3-3-3
	c-0.8,0-1.6,0.3-2.2,0.9c0,0,0,0,0,0l-6.8,7.5V44c0-0.6-0.4-1-1-1h-6c-0.6,0-1,0.4-1,1v20c0,0.6,0.4,1,1,1h6c0.6,0,1-0.4,1-1v-1.4
	l4.6,2.3C-20.3,65-20.2,65-20,65L-20,65z M-28,63c-0.6,0-1-0.4-1-1s0.4-1,1-1s1,0.4,1,1S-27.4,63-28,63z M-19.8,63l-5.2-2.6v-12
	l8.3-9.1c0.2-0.2,0.4-0.3,0.7-0.3c0.6,0,1,0.4,1,1c0,0.2,0,0.3-0.1,0.5c0,0,0,0,0,0.1l-3.7,7c-0.2,0.3-0.2,0.7,0,1
	c0.2,0.3,0.5,0.5,0.9,0.5h14c0.6,0,1,0.4,1,1s-0.4,1-1,1h-10c-0.6,0-1,0.4-1,1s0.4,1,1,1c0.6,0,1,0.4,1,1s-0.4,1-1,1
	c-0.6,0-1,0.4-1,1s0.4,1,1,1c0.6,0,1,0.4,1,1s-0.4,1-1,1h-1c-0.6,0-1,0.4-1,1s0.4,1,1,1c0.6,0,1,0.4,1,1s-0.4,1-1,1H-19.8L-19.8,63z
	"/>
</svg>
